<?xml version="1.0" encoding="utf-8"?>
<!-- Generator: Adobe Illustrator 18.1.1, SVG Export Plug-In . SVG Version: 6.00 Build 0)  -->
<!DOCTYPE svg PUBLIC "-//W3C//DTD SVG 1.1//EN" "http://www.w3.org/Graphics/SVG/1.1/DTD/svg11.dtd">
<svg version="1.1" id="Layer_1" xmlns="http://www.w3.org/2000/svg" xmlns:xlink="http://www.w3.org/1999/xlink" x="0px" y="0px"
	 viewBox="-208 195.4 14.5 18.2" enable-background="new -208 195.4 14.5 18.2" xml:space="preserve">
<g>
	<g>
		<path fill="#FFFAF0" d="M-194.5,203.1l0,9.6l-12.5,0l0-9.6L-194.5,203.1 M-193.6,202.1l-14.4,0l0,11.5l14.4,0L-193.6,202.1
			L-193.6,202.1z"/>
		<path fill="#FFFAF0" d="M-200.7,196.6l4.5,3.7l-9.1,0L-200.7,196.6 M-200.7,195.4l-7.2,5.8l14.4,0L-200.7,195.4L-200.7,195.4z"/>
	</g>
	<g>
		<g>
			<circle fill="#FFFAF0" cx="-203.7" cy="207.9" r="1"/>
			<rect x="-204.5" y="209.3" fill="#FFFAF0" width="1.6" height="2.8"/>
		</g>
		<g>
			<circle fill="#FFFAF0" cx="-200.8" cy="205.3" r="1"/>
			<rect x="-201.6" y="206.8" fill="#FFFAF0" width="1.6" height="5.3"/>
		</g>
		<g>
			<circle fill="#FFFAF0" cx="-197.8" cy="206.4" r="1"/>
			<rect x="-198.6" y="207.9" fill="#FFFAF0" width="1.6" height="4.2"/>
		</g>
	</g>
</g>
</svg>
