<svg xmlns="http://www.w3.org/2000/svg" width="15.7" height="15.7"><g class="start" fill="#333232"><path d="M13.8 9.7l-1.3-1.3c-.2 2.2-2.1 4-4.3 4.2l1.3 1.3c2.1-.6 3.7-2.2 4.3-4.2"/><path d="M1.8 6.1l1.3 1.3c.2-2.2 2-4 4.2-4.3l-1.3-1.3c-2 .7-3.6 2.3-4.2 4.3"/><path d="M5.3 1.1l-1.1-1.1c-1.9.9-3.4 2.4-4.2 4.2l1.1 1.1c.7-1.9 2.2-3.5 4.2-4.2"/><path d="M10.3 14.7l1.1 1.1c1.9-.9 3.4-2.4 4.2-4.2l-1.1-1.1c-.6 1.9-2.2 3.4-4.2 4.2"/><path d="M3.1 8.4l-1.3 1.3c.6 2.1 2.2 3.6 4.3 4.2l1.3-1.3c-2.3-.1-4.1-1.9-4.3-4.2"/><path d="M12.6 7.4l1.3-1.3c-.6-2.1-2.2-3.7-4.2-4.3l-1.3 1.3c2.2.3 4 2.1 4.2 4.3"/><path d="M14.6 5.4l1.1-1.1c-.9-1.9-2.4-3.4-4.2-4.2l-1.1 1.1c2 .6 3.5 2.2 4.2 4.2"/><path d="M1.1 10.4l-1.1 1.1c.9 1.9 2.4 3.4 4.2 4.2l1.1-1.1c-1.9-.7-3.5-2.2-4.2-4.2"/><path d="M7.8 6.9c-.5 0-1 .5-1 1s.5 1 1 1 1-.5 1-1-.4-1-1-1"/><path d="M5.7 7.9c0-1.1.9-2.1 2.1-2.1 1.1 0 2.1.9 2.1 2.1 0 1.1-.9 2.1-2.1 2.1s-2.1-1-2.1-2.1m5.6.8c.1-.3.1-.5.1-.8 0-.2 0-.5-.1-.7-.3-1.4-1.4-2.5-2.8-2.8-.2-.1-.5-.1-.7-.1s-.5 0-.7.1c-1.4.3-2.5 1.4-2.8 2.8-.1.2-.1.5-.1.7 0 .3.1.6.1.8.3 1.3 1.3 2.4 2.6 2.6.3.1.5.1.8.1s.6-.1.8-.1c1.5-.2 2.5-1.3 2.8-2.6"/></g></svg>
