<svg xmlns="http://www.w3.org/2000/svg" width="13.6" height="13.6"><g class="start"><path fill="#999696" d="M6.8 13.6c-3.8 0-6.8-3-6.8-6.8s3-6.8 6.8-6.8 6.8 3 6.8 6.8-3.1 6.8-6.8 6.8zm0-12.7c-3.3 0-5.9 2.6-5.9 5.9 0 3.3 2.6 5.9 5.9 5.9s5.9-2.6 5.9-5.9c0-3.2-2.6-5.9-5.9-5.9z"/><path fill="#999696" d="M6.8 13.6l-.2-.2c-1-.6-1.8-1.6-2.4-2.8-.6-1.1-.9-2.5-.9-3.8 0-1.4.3-2.7.9-3.8s1.4-2.1 2.4-2.8l.2-.2.2.2c1 .6 1.8 1.6 2.4 2.8s.9 2.5.9 3.8c0 1.4-.3 2.7-.9 3.8-.6 1.1-1.4 2.1-2.4 2.8l-.2.2zm0-12.4c-1.6 1.3-2.6 3.4-2.6 5.6 0 2.3 1 4.4 2.6 5.6 1.6-1.3 2.6-3.4 2.6-5.6s-.9-4.3-2.6-5.6z"/><path fill="#999696" d="M6.8 4.8c-2.1 0-4-.6-5.1-1.7l.6-.6c.9.9 2.6 1.4 4.5 1.4 1.8 0 3.6-.5 4.5-1.4l.6.6c-1.1 1-3 1.7-5.1 1.7z"/><path fill="#999696" d="M11.3 11.3c-.9-.9-2.6-1.4-4.5-1.4-1.8 0-3.6.5-4.5 1.4l-.6-.6c1.1-1.1 3-1.7 5.1-1.7s4 .6 5.1 1.7l-.6.6z"/><rect x=".5" y="6.4" fill="#999696" width="12.7" height=".9"/></g></svg>
