<svg version="1.1"
	 xmlns="http://www.w3.org/2000/svg" xmlns:xlink="http://www.w3.org/1999/xlink" xmlns:a="http://ns.adobe.com/AdobeSVGViewerExtensions/3.0/"
	 x="0px" y="0px" width="13.6px" height="36.6px" viewBox="0 0 13.6 36.6" enable-background="new 0 0 13.6 36.6"
	 xml:space="preserve">
<defs>
</defs>
<g class="start">
	<g>
		<path fill="#333232" d="M6.8,13.6C3,13.6,0,10.6,0,6.8S3,0,6.8,0s6.8,3,6.8,6.8S10.5,13.6,6.8,13.6z M6.8,0.9
			c-3.3,0-5.9,2.6-5.9,5.9c0,3.3,2.6,5.9,5.9,5.9s5.9-2.6,5.9-5.9C12.7,3.6,10.1,0.9,6.8,0.9z"/>
	</g>
	<g>
		<path fill="#333232" d="M6.8,13.6l-0.2-0.2c-1-0.6-1.8-1.6-2.4-2.8C3.6,9.5,3.3,8.1,3.3,6.8c0-1.4,0.3-2.7,0.9-3.8
			s1.4-2.1,2.4-2.8L6.8,0L7,0.2C8,0.8,8.8,1.8,9.4,3s0.9,2.5,0.9,3.8c0,1.4-0.3,2.7-0.9,3.8C8.8,11.7,8,12.7,7,13.4L6.8,13.6z
			 M6.8,1.2C5.2,2.5,4.2,4.6,4.2,6.8c0,2.3,1,4.4,2.6,5.6C8.4,11.1,9.4,9,9.4,6.8S8.5,2.5,6.8,1.2z"/>
	</g>
	<g>
		<path fill="#333232" d="M6.8,4.8c-2.1,0-4-0.6-5.1-1.7l0.6-0.6c0.9,0.9,2.6,1.4,4.5,1.4c1.8,0,3.6-0.5,4.5-1.4l0.6,0.6
			C10.8,4.1,8.9,4.8,6.8,4.8z"/>
	</g>
	<g>
		<path fill="#333232" d="M11.3,11.3c-0.9-0.9-2.6-1.4-4.5-1.4c-1.8,0-3.6,0.5-4.5,1.4l-0.6-0.6C2.8,9.6,4.7,9,6.8,9s4,0.6,5.1,1.7
			L11.3,11.3z"/>
	</g>
	<g>
		<rect x="0.5" y="6.4" fill="#333232" width="12.7" height="0.9"/>
	</g>
</g>
<g opacity="0.5">
	<g>
		<path fill="#333232" d="M6.8,36.6c-3.8,0-6.8-3-6.8-6.8S3,23,6.8,23s6.8,3,6.8,6.8C13.6,33.5,10.5,36.6,6.8,36.6z M6.8,23.8
			c-3.3,0-5.9,2.6-5.9,5.9c0,3.3,2.6,5.9,5.9,5.9s5.9-2.6,5.9-5.9C12.7,26.5,10.1,23.8,6.8,23.8z"/>
	</g>
	<g>
		<path fill="#333232" d="M6.8,36.5l-0.2-0.2c-1-0.6-1.8-1.6-2.4-2.8c-0.6-1.1-0.9-2.5-0.9-3.8s0.3-2.7,0.9-3.8s1.4-2.1,2.4-2.8
			l0.2-0.2L7,23.1c1,0.6,1.8,1.6,2.4,2.8s0.9,2.5,0.9,3.8s-0.3,2.7-0.9,3.8C8.8,34.6,8,35.6,7,36.3L6.8,36.5z M6.8,24.1
			c-1.6,1.3-2.6,3.4-2.6,5.6c0,2.3,1,4.4,2.6,5.6c1.6-1.3,2.6-3.4,2.6-5.6S8.5,25.4,6.8,24.1z"/>
	</g>
	<g>
		<path fill="#333232" d="M6.8,27.7c-2.1,0-4-0.6-5.1-1.7l0.6-0.6c0.9,0.9,2.6,1.4,4.5,1.4c1.8,0,3.6-0.5,4.5-1.4l0.6,0.6
			C10.8,27.1,8.9,27.7,6.8,27.7z"/>
	</g>
	<g>
		<path fill="#333232" d="M11.3,34.2c-0.9-0.9-2.6-1.4-4.5-1.4c-1.8,0-3.6,0.5-4.5,1.4l-0.6-0.6c1.1-1.1,3-1.7,5.1-1.7
			s4,0.6,5.1,1.7L11.3,34.2z"/>
	</g>
	<g>
		<rect x="0.5" y="29.4" fill="#333232" width="12.7" height="0.9"/>
	</g>
</g>
</svg>
