<svg xmlns="http://www.w3.org/2000/svg" width="12.6" height="12.6"><g class="start"><path fill="#999696" d="M6.3 12.6c-3.5 0-6.3-2.8-6.3-6.3s2.8-6.3 6.3-6.3 6.3 2.8 6.3 6.3-2.8 6.3-6.3 6.3zm0-11.7c-3 0-5.4 2.4-5.4 5.4s2.4 5.4 5.4 5.4 5.4-2.4 5.4-5.4-2.4-5.4-5.4-5.4z"/><path fill="#999696" d="M6.3 7.9c-.9 0-1.6-.7-1.6-1.6s.7-1.6 1.6-1.6c.9 0 1.6.7 1.6 1.6s-.7 1.6-1.6 1.6zm0-2.4c-.4 0-.7.3-.7.7s.3.7.7.7.7-.3.7-.7c0-.3-.3-.7-.7-.7z"/><path fill="#999696" d="M6.3 10.2c-2.2 0-4-1.8-4-4s1.8-4 4-4 4 1.8 4 4-1.8 4-4 4zm0-7c-1.7 0-3 1.4-3 3 0 1.7 1.4 3 3 3s3-1.4 3-3c.1-1.7-1.3-3-3-3z"/></g></svg>
