<?xml version="1.0" encoding="utf-8"?>
<!-- Generator: Adobe Illustrator 18.1.1, SVG Export Plug-In . SVG Version: 6.00 Build 0)  -->
<!DOCTYPE svg PUBLIC "-//W3C//DTD SVG 1.1//EN" "http://www.w3.org/Graphics/SVG/1.1/DTD/svg11.dtd">
<svg version="1.1" id="Layer_1" xmlns="http://www.w3.org/2000/svg" xmlns:xlink="http://www.w3.org/1999/xlink" x="0px" y="0px"
	 viewBox="-298.125 375.4 14.625 12.617" enable-background="new -298.125 375.4 14.625 12.617" xml:space="preserve">
<polygon fill="#323132" points="-295.969,382.188 -295.436,382.861 -295.969,382.188 "/>
<polygon fill="#323132" points="-284.06,378.426 -284.656,377.807 -284.06,378.426 "/>
<polygon fill="#323132" points="-283.497,379.904 -283.517,376.524 -286.897,376.543 -285.755,377.673 -289.897,381.668 
	-292.342,379.315 -295.969,382.188 -295.436,382.861 -294.902,383.534 -292.453,381.593 -289.896,384.054 -284.532,378.881 "/>
<g>
	<path fill="#323132" d="M-285.482,380.65l-1.791,1.727c-0.288,1.893-1.756,3.47-3.746,3.772c-2.466,0.382-4.751-1.368-5.115-3.767
		c-0.372-2.449,1.318-4.743,3.767-5.115c0.229-0.035,0.456-0.051,0.68-0.051c1.311,0,2.556,0.575,3.412,1.576
		c0.072,0.085,0.133,0.177,0.199,0.267l1.315-1.268c-0.046-0.058-0.084-0.121-0.132-0.178c-1.41-1.649-3.597-2.47-5.746-2.141
		c-3.439,0.522-5.812,3.744-5.291,7.182c0.464,3.058,3.142,5.363,6.231,5.363c0.317,0,0.637-0.025,0.952-0.073
		c3.439-0.522,5.812-3.744,5.29-7.182C-285.463,380.724-285.476,380.688-285.482,380.65z"/>
</g>
</svg>
