<?xml version="1.0" encoding="utf-8"?>
<!-- Generator: Adobe Illustrator 17.1.0, SVG Export Plug-In . SVG Version: 6.00 Build 0)  -->
<!DOCTYPE svg PUBLIC "-//W3C//DTD SVG 1.1//EN" "http://www.w3.org/Graphics/SVG/1.1/DTD/svg11.dtd">
<svg version="1.1" id="Layer_1" xmlns="http://www.w3.org/2000/svg" xmlns:xlink="http://www.w3.org/1999/xlink" x="0px" y="0px"
	 viewBox="0 0 24.6 60.7" enable-background="new 0 0 24.6 60.7" xml:space="preserve">
<g>
	<g>
		<path fill="#333232" d="M12.3,16.5c-2.7,0-5.2-1.1-7-3l-0.2-0.3V7.9h1.7v4.6c1.5,1.4,3.5,2.2,5.6,2.2s4.1-0.8,5.6-2.2V7.9h1.7v5.3
			l-0.3,0.3C17.5,15.4,15,16.5,12.3,16.5z"/>
	</g>
	<g>
		<path fill="#333232" d="M12.3,12.2L0,6.1L12.3,0l12.3,6.1L12.3,12.2z M4,6l8.3,4.2L20.6,6l-8.3-4.2L4,6z"/>
	</g>
</g>
<g opacity="0.5">
	<g>
		<path fill="#333232" d="M12.3,59.5c-2.7,0-5.2-1.1-7-3l-0.2-0.3v-5.3h1.7v4.6c1.5,1.4,3.5,2.2,5.6,2.2s4.1-0.8,5.6-2.2v-4.6h1.7
			v5.3l-0.3,0.3C17.5,58.4,15,59.5,12.3,59.5z"/>
	</g>
	<g>
		<path fill="#333232" d="M12.3,55.2L0,49.1L12.3,43l12.3,6.1L12.3,55.2z M4,49l8.3,4.2l8.3-4.2l-8.3-4.2L4,49z"/>
	</g>
</g>
</svg>
