<!-- Generator: Adobe Illustrator 17.1.0, SVG Export Plug-In  -->
<svg version="1.1"
	 xmlns="http://www.w3.org/2000/svg" xmlns:xlink="http://www.w3.org/1999/xlink" xmlns:a="http://ns.adobe.com/AdobeSVGViewerExtensions/3.0/"
	 x="0px" y="0px" width="127.7px" height="31.3px" viewBox="0 0 127.7 31.3" enable-background="new 0 0 127.7 31.3"
	 xml:space="preserve">
<defs>
</defs>
<g>
	<g>
		<path fill="#FFFBEF" d="M38.5,12.8V0.2h6v2.8h-2.9V5h2.8v2.8h-2.8V10h3v2.8H38.5z"/>
		<path fill="#FFFBEF" d="M56.4,11.4c-1.1,1-2.4,1.6-4.2,1.6c-4.2,0-6.7-2.8-6.7-6.5c0-3.6,2.6-6.5,6.6-6.5c1.9,0,3.3,0.6,4.3,1.5
			l-1.8,2.3c-0.5-0.4-1.3-0.9-2.4-0.9c-2.2,0-3.5,1.6-3.5,3.7c0,2.1,1.4,3.7,3.5,3.7c1.1,0,1.9-0.5,2.4-0.9L56.4,11.4z"/>
		<path fill="#FFFBEF" d="M62.6,0c4.1,0,6.7,2.8,6.7,6.5c0,3.7-2.5,6.6-6.6,6.6c-4.1,0-6.6-2.8-6.6-6.5C56,2.9,58.7,0,62.6,0z
			 M62.6,10.2c2.2,0,3.4-1.6,3.4-3.7c0-2.1-1.3-3.7-3.4-3.7c-2.2,0-3.4,1.6-3.4,3.7C59.2,8.6,60.6,10.2,62.6,10.2z"/>
		<path fill="#FFFBEF" d="M73.3,5.4v7.4h-2.9V0.2h3.1l4.7,7.6V0.2h2.9v12.6h-3L73.3,5.4z"/>
		<path fill="#FFFBEF" d="M88.8,0c4.1,0,6.7,2.8,6.7,6.5c0,3.7-2.5,6.6-6.6,6.6c-4.1,0-6.6-2.8-6.6-6.5C82.2,2.9,84.9,0,88.8,0z
			 M88.8,10.2c2.2,0,3.4-1.6,3.4-3.7c0-2.1-1.3-3.7-3.4-3.7c-2.2,0-3.4,1.6-3.4,3.7C85.4,8.6,86.7,10.2,88.8,10.2z"/>
		<path fill="#FFFBEF" d="M105.2,12.8h-2.9l-3-8.8v8.8h-2.8V0.2h4.5l2.8,8.5l2.8-8.5h4.5v12.6h-2.9V4L105.2,12.8z"/>
		<path fill="#FFFBEF" d="M115.7,12.8h-3V0.2h3V12.8z"/>
		<path fill="#FFFBEF" d="M127.7,11.4c-1.1,1-2.4,1.6-4.2,1.6c-4.2,0-6.7-2.8-6.7-6.5c0-3.6,2.6-6.5,6.6-6.5c1.9,0,3.3,0.6,4.3,1.5
			l-1.8,2.3c-0.5-0.4-1.3-0.9-2.4-0.9c-2.2,0-3.5,1.6-3.5,3.7c0,2.1,1.4,3.7,3.5,3.7c1.1,0,1.9-0.5,2.4-0.9L127.7,11.4z"/>
		<path fill="#FFFBEF" d="M50.5,31h-2.9v-0.6c-0.6,0.5-1.5,0.8-2.9,0.8c-3.9,0-6.5-2.6-6.5-6.5c0-3.5,2.5-6.5,6.5-6.5
			c2.7,0,4.4,1.2,5.3,2.7l-2.4,1.7c-0.5-0.7-1.4-1.5-3-1.5c-2,0-3.3,1.5-3.3,3.7c0,2.3,1.5,3.7,3.5,3.7c1.4,0,2.3-0.6,2.7-1v-0.9
			h-1.9v-2.5h4.9V31z"/>
		<path fill="#FFFBEF" d="M58.6,25.3l2.9,5.7h-3.3l-2.5-5.2H55V31h-3V18.4h4.3c2.6,0,4,1.4,4,3.7C60.2,23.6,59.6,24.7,58.6,25.3z
			 M55,21.1v2.3H56c0.7,0,1.1-0.5,1.1-1.2c0-0.7-0.4-1.1-1.1-1.1H55z"/>
		<path fill="#FFFBEF" d="M67.6,18.2c4.1,0,6.7,2.8,6.7,6.5c0,3.7-2.5,6.6-6.6,6.6c-4.1,0-6.6-2.8-6.6-6.5
			C61,21.1,63.7,18.2,67.6,18.2z M67.6,28.4c2.2,0,3.4-1.6,3.4-3.7c0-2.1-1.3-3.7-3.4-3.7c-2.2,0-3.4,1.6-3.4,3.7
			C64.2,26.8,65.5,28.4,67.6,28.4z"/>
		<path fill="#FFFBEF" d="M83,23.1L80.9,31h-3.5l-3.5-12.6h3.3l2.1,8.6l2.2-8.6h3.3L87,27l2.1-8.6h3.1L88.8,31h-3.6L83,23.1z"/>
		<path fill="#FFFBEF" d="M97.8,21.3V31h-3v-9.8h-2.1v-2.8h7.2v2.8H97.8z"/>
		<path fill="#FFFBEF" d="M111.3,31h-3v-5h-4.4v5h-3V18.4h3v4.7h4.4v-4.7h3V31z"/>
	</g>
	<g>
		<g>
			
				<rect x="-2.2" y="13.4" transform="matrix(-0.7071 0.7071 -0.7071 -0.7071 37.6448 15.1418)" fill="#FFFBEF" width="35.8" height="3.9"/>
		</g>
		<g>
			<polygon fill="#FFFBEF" points="18,0.2 30.8,0.2 30.8,13 27,13 27,4.1 18,4.1 			"/>
		</g>
		<g>
			<polygon fill="#FFFBEF" points="30.8,31 0,31 0,0.2 3.8,0.2 3.8,27.2 30.8,27.2 			"/>
		</g>
	</g>
</g>
</svg>
