<!-- Generator: Adobe Illustrator 17.1.0, SVG Export Plug-In  -->
<svg version="1.1"
	 xmlns="http://www.w3.org/2000/svg" xmlns:xlink="http://www.w3.org/1999/xlink" xmlns:a="http://ns.adobe.com/AdobeSVGViewerExtensions/3.0/"
	 x="0px" y="0px" width="118.4px" height="24.2px" viewBox="0 0 118.4 24.2" enable-background="new 0 0 118.4 24.2"
	 xml:space="preserve">
<defs>
</defs>
<g>
	<g>
		<path fill="#FFFBEF" d="M54,18.9v5h-3V11.3h6v2.8h-3v1.9h2.9v2.8H54z"/>
		<path fill="#FFFBEF" d="M58.2,23.9V11.3h6v2.8h-2.9v1.9h2.8v2.8h-2.8v2.2h3v2.8H58.2z"/>
		<path fill="#FFFBEF" d="M65.5,23.9V11.3h3v9.8h2.9v2.8H65.5z"/>
		<path fill="#FFFBEF" d="M72.5,23.9V11.3h3v9.8h2.9v2.8H72.5z"/>
		<path fill="#FFFBEF" d="M85.1,11.1c4.1,0,6.7,2.8,6.7,6.5c0,3.7-2.5,6.6-6.6,6.6c-4.1,0-6.6-2.8-6.6-6.5
			C78.6,14,81.2,11.1,85.1,11.1z M85.2,21.3c2.2,0,3.4-1.6,3.4-3.7c0-2.1-1.3-3.7-3.4-3.7c-2.2,0-3.4,1.6-3.4,3.7
			C81.8,19.7,83.1,21.3,85.2,21.3z"/>
		<path fill="#FFFBEF" d="M100.6,16l-2.2,7.9h-3.5l-3.5-12.6h3.3l2.1,8.6l2.2-8.6h3.3l2.2,8.6l2.1-8.6h3.1l-3.4,12.6h-3.6L100.6,16z
			"/>
		<path fill="#FFFBEF" d="M114.2,15.9l1.6,0.6c1.6,0.7,2.6,1.8,2.6,3.6c0,2.5-1.8,4-4.3,4c-3.6,0-4.3-2.3-4.1-4.2h2.9
			c0,0.8,0.3,1.6,1.3,1.6c0.7,0,1.2-0.4,1.2-1.1c0-0.7-0.5-1.1-1.3-1.4c-0.6-0.3-1.3-0.5-2-0.8c-1.3-0.7-1.9-1.9-1.9-3.4
			c0-2.2,1.6-3.7,4.1-3.7c3,0,4,1.7,3.9,3.9h-2.8c0-0.8-0.4-1.3-1.1-1.3c-0.7,0-1,0.4-1,0.9C113.1,15.2,113.3,15.5,114.2,15.9z"/>
	</g>
	<g>
		<g>
			<rect x="0" y="20.1" fill="#FFFBEF" width="43.1" height="3.8"/>
		</g>
		<g>
			<rect x="19.6" y="0" fill="#FFFBEF" width="3.9" height="22.1"/>
		</g>
		<g>
			<rect x="25.1" y="1.4" transform="matrix(0.866 0.5 -0.5 0.866 9.857 -11.8793)" fill="#FFFBEF" width="3.9" height="22.1"/>
		</g>
		<g>
			
				<rect x="29.2" y="5.5" transform="matrix(0.4995 0.8663 -0.8663 0.4995 29.87 -18.7164)" fill="#FFFBEF" width="3.9" height="22.1"/>
		</g>
		<g>
			<rect x="5" y="10.5" transform="matrix(0.5 0.866 -0.866 0.5 18.8159 -7.6842)" fill="#FFFBEF" width="22.1" height="3.9"/>
		</g>
		<g>
			<rect x="1" y="14.5" transform="matrix(0.866 0.5001 -0.5001 0.866 9.8584 -3.804)" fill="#FFFBEF" width="22.1" height="3.9"/>
		</g>
	</g>
</g>
</svg>
