<svg version="1.1"
	 xmlns="http://www.w3.org/2000/svg" xmlns:xlink="http://www.w3.org/1999/xlink" xmlns:a="http://ns.adobe.com/AdobeSVGViewerExtensions/3.0/"
	 x="0px" y="0px" width="94.4px" height="32.9px" viewBox="0 0 94.4 32.9" enable-background="new 0 0 94.4 32.9"
	 xml:space="preserve">
<defs>
</defs>
<g>
	<g>
		<path fill="#FFFAEE" d="M29,20.2l-2.6-2.6c-0.5,4.6-4.3,8.3-8.9,8.8l2.6,2.6C24.3,27.7,27.7,24.4,29,20.2"/>
		<path fill="#FFFAEE" d="M4,12.9l2.6,2.6c0.4-4.7,4.1-8.4,8.8-8.9L12.8,4C8.5,5.2,5.2,8.6,4,12.9"/>
		<path fill="#FFFAEE" d="M11.1,2.3L8.8,0C4.9,1.8,1.8,5,0,8.9l2.4,2.4C3.9,7.1,7.1,3.9,11.1,2.3"/>
		<path fill="#FFFAEE" d="M21.7,30.6l2.4,2.4c3.9-1.8,7-4.9,8.9-8.8l-2.3-2.3C29,25.8,25.8,29.1,21.7,30.6"/>
		<path fill="#FFFAEE" d="M6.6,17.6L4,20.2c1.3,4.2,4.6,7.6,8.9,8.8l2.6-2.6C10.9,25.9,7.2,22.2,6.6,17.6"/>
		<path fill="#FFFAEE" d="M26.4,15.5l2.6-2.6c-1.2-4.3-4.5-7.6-8.8-8.9l-2.6,2.6C22.3,7.1,25.9,10.8,26.4,15.5"/>
		<path fill="#FFFAEE" d="M30.6,11.2L33,8.9c-1.8-3.9-4.9-7-8.8-8.9l-2.3,2.3C25.9,3.9,29.1,7.1,30.6,11.2"/>
		<path fill="#FFFAEE" d="M2.4,21.8l-2.3,2.3c1.8,3.9,5,7,8.9,8.8l2.4-2.4C7.2,29.1,4,25.8,2.4,21.8"/>
		<path fill="#FFFAEE" d="M16.5,14.4c-1.1,0-2,0.9-2,2c0,1.1,0.9,2,2,2c1.1,0,2-0.9,2-2C18.5,15.3,17.6,14.4,16.5,14.4"/>
		<path fill="#FFFAEE" d="M12.1,16.4c0-2.4,2-4.4,4.4-4.4c2.4,0,4.4,2,4.4,4.4c0,2.4-2,4.4-4.4,4.4C14.1,20.8,12.1,18.8,12.1,16.4
			 M23.7,18.1c0.1-0.6,0.2-1.1,0.2-1.7c0-0.5-0.1-1-0.1-1.4c-0.6-3-2.9-5.3-5.9-5.9C17.5,9,17,9,16.5,9c-0.5,0-1,0.1-1.4,0.1
			c-3,0.6-5.3,2.9-5.9,5.9c-0.1,0.5-0.1,0.9-0.1,1.4c0,0.6,0.1,1.2,0.2,1.7c0.6,2.7,2.8,4.9,5.5,5.5c0.5,0.1,1.1,0.2,1.7,0.2
			c0.6,0,1.2-0.1,1.7-0.2C20.9,23,23.1,20.9,23.7,18.1"/>
	</g>
	<g>
		<g>
			<path fill="#FFFBEF" d="M42.6,8.5v5h-3V0.9h6.1v2.8h-3v2h2.9v2.8H42.6z"/>
			<path fill="#FFFBEF" d="M46.8,8.5V0.9h3v7.6c0,1.4,0.7,2.4,2.2,2.4c1.4,0,2.1-1,2.1-2.4V0.9h3v7.6c0,3-1.8,5.3-5.2,5.3
				C48.4,13.8,46.8,11.6,46.8,8.5z"/>
			<path fill="#FFFBEF" d="M63.3,3.7v9.8h-3V3.7h-2.1V0.9h7.3v2.8H63.3z"/>
			<path fill="#FFFBEF" d="M66.4,8.5V0.9h3v7.6c0,1.4,0.7,2.4,2.2,2.4c1.4,0,2.1-1,2.1-2.4V0.9h3v7.6c0,3-1.8,5.3-5.2,5.3
				C68,13.8,66.4,11.6,66.4,8.5z"/>
			<path fill="#FFFBEF" d="M84.9,7.8l2.9,5.8h-3.3l-2.5-5.2h-0.8v5.2h-3V0.9h4.3c2.6,0,4,1.4,4,3.8C86.5,6.1,85.9,7.1,84.9,7.8z
				 M81.2,3.5v2.3h1.1c0.7,0,1.1-0.5,1.1-1.2c0-0.7-0.4-1.1-1.1-1.1H81.2z"/>
			<path fill="#FFFBEF" d="M88.3,13.5V0.9h6v2.8h-2.9v2h2.8v2.8h-2.8v2.2h3v2.8H88.3z"/>
		</g>
		<g>
			<path fill="#FFFBEF" d="M44.3,22v9.8h-3V22h-2.1v-2.8h7.3V22H44.3z"/>
			<path fill="#FFFBEF" d="M47.4,31.8V19.1h6V22h-2.9v2h2.8v2.8h-2.8v2.2h3v2.8H47.4z"/>
			<path fill="#FFFBEF" d="M57.6,24.3v7.5h-2.9V19.1h3.1l4.7,7.6v-7.6h2.9v12.6h-3L57.6,24.3z"/>
			<path fill="#FFFBEF" d="M71,23.7l1.6,0.6c1.6,0.7,2.6,1.8,2.6,3.6c0,2.6-1.8,4.1-4.3,4.1c-3.6,0-4.3-2.4-4.2-4.2h2.9
				c0,0.8,0.3,1.6,1.3,1.6c0.7,0,1.2-0.4,1.2-1.1c0-0.7-0.5-1.1-1.3-1.4c-0.6-0.3-1.3-0.5-2-0.8c-1.3-0.7-2-1.9-2-3.4
				c0-2.2,1.6-3.7,4.1-3.7c3,0,4.1,1.7,3.9,3.9h-2.8c0-0.8-0.4-1.3-1.1-1.3c-0.7,0-1,0.4-1,0.9S70.1,23.3,71,23.7z"/>
			<path fill="#FFFBEF" d="M76.3,31.8V19.1h6V22h-2.9v2h2.8v2.8h-2.8v2.2h3v2.8H76.3z"/>
		</g>
	</g>
</g>
</svg>
