<!-- Generator: Adobe Illustrator 17.1.0, SVG Export Plug-In  -->
<svg version="1.1"
	 xmlns="http://www.w3.org/2000/svg" xmlns:xlink="http://www.w3.org/1999/xlink" xmlns:a="http://ns.adobe.com/AdobeSVGViewerExtensions/3.0/"
	 x="0px" y="0px" width="163.3px" height="35px" viewBox="0 0 163.3 35" enable-background="new 0 0 163.3 35" xml:space="preserve"
	>
<defs>
</defs>
<g>
	<g>
		<path fill="#FFFBEF" d="M44.9,14.7h-3V2.1h3V14.7z"/>
		<path fill="#FFFBEF" d="M49.4,7.3v7.4h-2.9V2.1h3.1l4.7,7.6V2.1h2.9v12.6h-3L49.4,7.3z"/>
		<path fill="#FFFBEF" d="M63.4,5v9.8h-3V5h-2.1V2.1h7.2V5H63.4z"/>
		<path fill="#FFFBEF" d="M66.5,14.7V2.1h6V5h-2.9v1.9h2.8v2.8h-2.8v2.2h3v2.8H66.5z"/>
		<path fill="#FFFBEF" d="M80.5,9l2.9,5.7h-3.3l-2.5-5.2h-0.8v5.2h-3V2.1h4.3c2.6,0,4,1.4,4,3.7C82.1,7.3,81.6,8.3,80.5,9z
			 M76.9,4.7v2.3h1.1c0.7,0,1.1-0.5,1.1-1.2c0-0.7-0.4-1.1-1.1-1.1H76.9z"/>
		<path fill="#FFFBEF" d="M86.8,7.3v7.4h-2.9V2.1H87l4.7,7.6V2.1h2.9v12.6h-3L86.8,7.3z"/>
		<path fill="#FFFBEF" d="M103.2,11.7h-4l-1,3h-3l4.4-12.6h3.2l4.7,12.6h-3.2L103.2,11.7z M100.1,9.2h2.2L101.2,6L100.1,9.2z"/>
		<path fill="#FFFBEF" d="M111.6,5v9.8h-3V5h-2.1V2.1h7.2V5H111.6z"/>
		<path fill="#FFFBEF" d="M117.8,14.7h-3V2.1h3V14.7z"/>
		<path fill="#FFFBEF" d="M125.4,1.9c4.1,0,6.7,2.8,6.7,6.5c0,3.7-2.5,6.6-6.6,6.6c-4.1,0-6.6-2.8-6.6-6.5
			C118.8,4.8,121.5,1.9,125.4,1.9z M125.4,12.1c2.2,0,3.4-1.6,3.4-3.7s-1.3-3.7-3.4-3.7c-2.2,0-3.4,1.6-3.4,3.7
			C122,10.5,123.4,12.1,125.4,12.1z"/>
		<path fill="#FFFBEF" d="M136.1,7.3v7.4h-2.9V2.1h3.1l4.7,7.6V2.1h2.9v12.6h-3L136.1,7.3z"/>
		<path fill="#FFFBEF" d="M152.5,11.7h-4l-1,3h-3l4.4-12.6h3.2l4.7,12.6h-3.2L152.5,11.7z M149.4,9.2h2.2L150.5,6L149.4,9.2z"/>
		<path fill="#FFFBEF" d="M157.4,14.7V2.1h3v9.8h2.9v2.8H157.4z"/>
		<path fill="#FFFBEF" d="M45.8,24.9l1.6,0.6c1.6,0.7,2.6,1.8,2.6,3.6c0,2.5-1.8,4-4.3,4c-3.6,0-4.3-2.3-4.1-4.2h2.9
			c0,0.8,0.3,1.6,1.3,1.6c0.7,0,1.2-0.4,1.2-1.1c0-0.7-0.5-1.1-1.3-1.4c-0.6-0.3-1.3-0.5-2-0.8c-1.3-0.7-1.9-1.9-1.9-3.4
			c0-2.2,1.6-3.7,4.1-3.7c3,0,4,1.7,3.9,3.9h-2.8c0-0.8-0.4-1.3-1.1-1.3c-0.7,0-1,0.4-1,0.9C44.7,24.2,45,24.5,45.8,24.9z"/>
		<path fill="#FFFBEF" d="M51.1,32.9V20.3h6v2.8h-2.9v1.9H57v2.8h-2.8v2.2h3v2.8H51.1z"/>
		<path fill="#FFFBEF" d="M68.9,31.5c-1.1,1-2.4,1.6-4.2,1.6c-4.2,0-6.7-2.8-6.7-6.5c0-3.6,2.6-6.6,6.6-6.6c1.9,0,3.3,0.6,4.3,1.5
			l-1.8,2.3c-0.5-0.4-1.3-0.9-2.4-0.9c-2.2,0-3.5,1.6-3.5,3.7c0,2.1,1.4,3.7,3.5,3.7c1.1,0,1.9-0.5,2.4-0.9L68.9,31.5z"/>
		<path fill="#FFFBEF" d="M69.6,27.9v-7.6h3v7.6c0,1.4,0.7,2.4,2.2,2.4c1.4,0,2.1-1,2.1-2.4v-7.5h3v7.5c0,3-1.7,5.3-5.2,5.3
			C71.2,33.1,69.6,31,69.6,27.9z"/>
		<path fill="#FFFBEF" d="M88.1,27.2l2.9,5.7h-3.3l-2.5-5.2h-0.8v5.2h-3V20.3h4.3c2.6,0,4,1.4,4,3.7C89.7,25.5,89.2,26.5,88.1,27.2z
			 M84.5,22.9v2.3h1.1c0.7,0,1.1-0.5,1.1-1.2c0-0.7-0.4-1.1-1.1-1.1H84.5z"/>
		<path fill="#FFFBEF" d="M94.5,32.9h-3V20.3h3V32.9z"/>
		<path fill="#FFFBEF" d="M100.7,23.2v9.8h-3v-9.8h-2.1v-2.8h7.2v2.8H100.7z"/>
		<path fill="#FFFBEF" d="M103.1,20.3h3.4l1.7,3.4l1.8-3.4h3.2l-3.6,6.3v6.2h-3v-6.2L103.1,20.3z"/>
	</g>
	<g>
		<g>
			<path fill="#FFFBEF" d="M17.5,35C7.9,35,0,27.2,0,17.5C0,7.9,7.9,0,17.5,0C27.2,0,35,7.9,35,17.5C35,27.2,27.2,35,17.5,35z
				 M17.5,2.3C9.1,2.3,2.3,9.1,2.3,17.5c0,8.4,6.8,15.2,15.2,15.2c8.4,0,15.2-6.8,15.2-15.2C32.7,9.1,25.9,2.3,17.5,2.3z"/>
		</g>
		<g>
			<path fill="#FFFBEF" d="M17.5,34.9l-0.6-0.4c-2.5-1.7-4.7-4.1-6.2-7.1c-1.5-3-2.3-6.4-2.3-9.9c0-3.5,0.8-6.9,2.3-9.9
				c1.5-2.9,3.6-5.4,6.2-7.1l0.6-0.4l0.6,0.4c2.5,1.7,4.7,4.1,6.2,7.1c1.5,3,2.3,6.4,2.3,9.9c0,3.5-0.8,6.9-2.3,9.9
				c-1.5,2.9-3.6,5.4-6.2,7.1L17.5,34.9z M17.5,3c-4.2,3.2-6.8,8.7-6.8,14.5c0,5.9,2.6,11.4,6.8,14.5c4.2-3.2,6.8-8.7,6.8-14.5
				C24.3,11.6,21.8,6.1,17.5,3z"/>
		</g>
		<g>
			<path fill="#FFFBEF" d="M17.5,12.1c-5.4,0-10.4-1.6-13.2-4.4L6,6.1c2.3,2.3,6.8,3.7,11.5,3.7c4.8,0,9.2-1.4,11.5-3.7l1.6,1.6
				C27.9,10.5,23,12.1,17.5,12.1z"/>
		</g>
		<g>
			<path fill="#FFFBEF" d="M29.1,29c-2.3-2.3-6.8-3.7-11.5-3.7c-4.8,0-9.2,1.4-11.5,3.7l-1.6-1.6c2.8-2.8,7.7-4.4,13.2-4.4
				c5.4,0,10.4,1.6,13.2,4.4L29.1,29z"/>
		</g>
		<g>
			<rect x="1.2" y="16.4" fill="#FFFBEF" width="32.7" height="2.3"/>
		</g>
	</g>
</g>
</svg>
