<!-- Generator: Adobe Illustrator 17.1.0, SVG Export Plug-In  -->
<svg version="1.1"
	 xmlns="http://www.w3.org/2000/svg" xmlns:xlink="http://www.w3.org/1999/xlink" xmlns:a="http://ns.adobe.com/AdobeSVGViewerExtensions/3.0/"
	 x="0px" y="0px" width="146.9px" height="32.6px" viewBox="0 0 146.9 32.6" enable-background="new 0 0 146.9 32.6"
	 xml:space="preserve">
<defs>
</defs>
<g>
	<g>
		<path fill="#FFFBEF" d="M42.6,5.9v7.4h-2.9V0.8h3.1l4.7,7.6V0.8h2.9v12.6h-3L42.6,5.9z"/>
		<path fill="#FFFBEF" d="M52.1,13.4V0.8h6v2.8h-2.9v1.9h2.8v2.8h-2.8v2.2h3v2.8H52.1z"/>
		<path fill="#FFFBEF" d="M67.7,5.5l-2.2,7.9H62L58.5,0.8h3.3l2.1,8.6l2.2-8.6h3.3l2.2,8.6l2.1-8.6h3.1l-3.4,12.6h-3.6L67.7,5.5z"/>
		<path fill="#FFFBEF" d="M46.8,28.6h-4l-1,3h-3L43.2,19h3.2l4.7,12.6h-3.2L46.8,28.6z M43.7,26H46l-1.1-3.2L43.7,26z"/>
		<path fill="#FFFBEF" d="M60.3,31.6h-2.9l-3-8.8v8.8h-2.8V19h4.5l2.8,8.5l2.8-8.5h4.5v12.6h-2.9v-8.8L60.3,31.6z"/>
		<path fill="#FFFBEF" d="M67.8,31.6V19h6v2.8h-2.9v1.9h2.8v2.8h-2.8v2.2h3v2.8H67.8z"/>
		<path fill="#FFFBEF" d="M81.8,25.8l2.9,5.7h-3.3l-2.5-5.2h-0.8v5.2h-3V19h4.3c2.6,0,4,1.4,4,3.7C83.4,24.1,82.8,25.2,81.8,25.8z
			 M78.1,21.6v2.3h1.1c0.7,0,1.1-0.5,1.1-1.2c0-0.7-0.4-1.1-1.1-1.1H78.1z"/>
		<path fill="#FFFBEF" d="M88.2,31.6h-3V19h3V31.6z"/>
		<path fill="#FFFBEF" d="M100.1,30.2c-1.1,1-2.4,1.6-4.2,1.6c-4.2,0-6.7-2.8-6.7-6.5c0-3.6,2.6-6.6,6.6-6.6c1.9,0,3.3,0.6,4.3,1.5
			l-1.8,2.3c-0.5-0.4-1.3-0.9-2.4-0.9c-2.2,0-3.5,1.6-3.5,3.7c0,2.1,1.4,3.7,3.5,3.7c1.1,0,1.9-0.5,2.4-0.9L100.1,30.2z"/>
		<path fill="#FFFBEF" d="M108.1,28.6h-4l-1,3h-3l4.4-12.6h3.2l4.7,12.6h-3.2L108.1,28.6z M105,26h2.2l-1.1-3.2L105,26z"/>
		<path fill="#FFFBEF" d="M118.6,24.1v7.4h-2.9V19h3.1l4.7,7.6V19h2.9v12.6h-3L118.6,24.1z"/>
		<path fill="#FFFBEF" d="M127,19h3.4l1.7,3.4l1.8-3.4h3.2l-3.6,6.3v6.2h-3v-6.2L127,19z"/>
		<path fill="#FFFBEF" d="M146.9,30.2c-1.1,1-2.4,1.6-4.2,1.6c-4.2,0-6.7-2.8-6.7-6.5c0-3.6,2.6-6.6,6.6-6.6c1.9,0,3.3,0.6,4.3,1.5
			l-1.8,2.3c-0.5-0.4-1.3-0.9-2.4-0.9c-2.2,0-3.5,1.6-3.5,3.7c0,2.1,1.4,3.7,3.5,3.7c1.1,0,1.9-0.5,2.4-0.9L146.9,30.2z"/>
	</g>
	<g>
		<g>
			<path fill="#FFFBEF" d="M16.3,32.6C7.3,32.6,0,25.3,0,16.3C0,7.3,7.3,0,16.3,0c9,0,16.3,7.3,16.3,16.3
				C32.6,25.3,25.3,32.6,16.3,32.6z M16.3,2.4C8.6,2.4,2.4,8.6,2.4,16.3c0,7.7,6.2,13.9,13.9,13.9c7.7,0,13.9-6.2,13.9-13.9
				C30.2,8.6,24,2.4,16.3,2.4z"/>
		</g>
		<g>
			<path fill="#FFFBEF" d="M16.3,20.5c-2.3,0-4.2-1.9-4.2-4.2s1.9-4.2,4.2-4.2c2.3,0,4.2,1.9,4.2,4.2S18.6,20.5,16.3,20.5z
				 M16.3,14.4c-1,0-1.8,0.8-1.8,1.8c0,1,0.8,1.8,1.8,1.8c1,0,1.8-0.8,1.8-1.8C18.1,15.3,17.3,14.4,16.3,14.4z"/>
		</g>
		<g>
			<path fill="#FFFBEF" d="M16.3,26.5C10.6,26.5,6,21.9,6,16.3C6,10.6,10.6,6,16.3,6c5.6,0,10.2,4.6,10.2,10.2
				C26.5,21.9,21.9,26.5,16.3,26.5z M16.3,8.4c-4.3,0-7.9,3.5-7.9,7.9c0,4.3,3.5,7.9,7.9,7.9c4.3,0,7.9-3.5,7.9-7.9
				C24.2,11.9,20.6,8.4,16.3,8.4z"/>
		</g>
	</g>
</g>
</svg>
