<!-- Generator: Adobe Illustrator 17.1.0, SVG Export Plug-In  -->
<svg version="1.1"
	 xmlns="http://www.w3.org/2000/svg" xmlns:xlink="http://www.w3.org/1999/xlink" xmlns:a="http://ns.adobe.com/AdobeSVGViewerExtensions/3.0/"
	 x="0px" y="0px" width="118.2px" height="33.8px" viewBox="0 0 118.2 33.8" enable-background="new 0 0 118.2 33.8"
	 xml:space="preserve">
<defs>
</defs>
<g>
	<g>
		<path fill="#FFFBEF" d="M46.4,9.1h-1.3v5h-3V1.6h4.3c2.6,0,4,1.4,4,3.7C50.4,7.6,48.8,9.1,46.4,9.1z M45.1,4.2v2.3h1.1
			c0.7,0,1.1-0.5,1.1-1.2c0-0.7-0.4-1.1-1.1-1.1H45.1z"/>
		<path fill="#FFFBEF" d="M57.4,1.3c4.1,0,6.7,2.8,6.7,6.5c0,3.7-2.5,6.6-6.6,6.6c-4.1,0-6.6-2.8-6.6-6.5
			C50.9,4.2,53.5,1.3,57.4,1.3z M57.5,11.5c2.2,0,3.4-1.6,3.4-3.7c0-2.1-1.3-3.7-3.4-3.7c-2.2,0-3.4,1.6-3.4,3.7
			C54,9.9,55.4,11.5,57.5,11.5z"/>
		<path fill="#FFFBEF" d="M65.2,14.1V1.6h3v9.8h2.9v2.8H65.2z"/>
		<path fill="#FFFBEF" d="M75.2,14.1h-3V1.6h3V14.1z"/>
		<path fill="#FFFBEF" d="M81.3,4.4v9.8h-3V4.4h-2.1V1.6h7.2v2.8H81.3z"/>
		<path fill="#FFFBEF" d="M87.5,14.1h-3V1.6h3V14.1z"/>
		<path fill="#FFFBEF" d="M99.5,12.7c-1.1,1-2.4,1.6-4.2,1.6c-4.2,0-6.7-2.8-6.7-6.5c0-3.6,2.6-6.5,6.6-6.5c1.9,0,3.3,0.6,4.3,1.5
			l-1.8,2.3c-0.5-0.4-1.3-0.9-2.4-0.9c-2.2,0-3.5,1.6-3.5,3.7c0,2.1,1.4,3.7,3.5,3.7c1.1,0,1.9-0.5,2.4-0.9L99.5,12.7z"/>
		<path fill="#FFFBEF" d="M107.5,11.1h-4l-1,3h-3l4.4-12.6h3.2l4.7,12.6h-3.2L107.5,11.1z M104.4,8.6h2.2l-1.1-3.2L104.4,8.6z"/>
		<path fill="#FFFBEF" d="M112.3,14.1V1.6h3v9.8h2.9v2.8H112.3z"/>
		<path fill="#FFFBEF" d="M48.8,26.6l2.9,5.7h-3.3l-2.5-5.2h-0.8v5.2h-3V19.7h4.3c2.6,0,4,1.4,4,3.7C50.4,24.9,49.8,26,48.8,26.6z
			 M45.1,22.4v2.3h1.1c0.7,0,1.1-0.5,1.1-1.2c0-0.7-0.4-1.1-1.1-1.1H45.1z"/>
		<path fill="#FFFBEF" d="M52.1,32.3V19.7h6v2.8h-2.9v1.9H58v2.8h-2.8v2.2h3v2.8H52.1z"/>
		<path fill="#FFFBEF" d="M62.4,27.3v5h-3V19.7h6v2.8h-3v1.9h2.9v2.8H62.4z"/>
		<path fill="#FFFBEF" d="M72.8,19.5c4.1,0,6.7,2.8,6.7,6.5c0,3.7-2.5,6.6-6.6,6.6c-4.1,0-6.6-2.8-6.6-6.5
			C66.3,22.4,68.9,19.5,72.8,19.5z M72.9,29.7c2.2,0,3.4-1.6,3.4-3.7c0-2.1-1.3-3.7-3.4-3.7c-2.2,0-3.4,1.6-3.4,3.7
			C69.5,28.1,70.8,29.7,72.9,29.7z"/>
		<path fill="#FFFBEF" d="M87.3,26.6l2.9,5.7h-3.3l-2.5-5.2h-0.8v5.2h-3V19.7h4.3c2.6,0,4,1.4,4,3.7C88.9,24.9,88.3,26,87.3,26.6z
			 M83.6,22.4v2.3h1.1c0.7,0,1.1-0.5,1.1-1.2c0-0.7-0.4-1.1-1.1-1.1H83.6z"/>
		<path fill="#FFFBEF" d="M99.3,32.3h-2.9l-3-8.8v8.8h-2.8V19.7h4.5l2.8,8.5l2.8-8.5h4.5v12.6h-2.9v-8.8L99.3,32.3z"/>
	</g>
	<g>
		<g>
			<polygon fill="#FFFBEF" points="16.9,24.1 8,15.2 11,12.3 16.9,18.2 34.5,0.6 37.4,3.6 			"/>
		</g>
		<g>
			<path fill="#FFFBEF" d="M29.5,15.3c0.1,0.5,0.1,1.1,0.1,1.6c0,7-5.7,12.7-12.7,12.7c-7,0-12.7-5.7-12.7-12.7
				c0-7,5.7-12.7,12.7-12.7c2.9,0,5.5,1,7.6,2.6l3-3C24.7,1.4,20.9,0,16.9,0C7.6,0,0,7.6,0,16.9c0,9.3,7.6,16.9,16.9,16.9
				c9.3,0,16.9-7.6,16.9-16.9c0-1.8-0.3-3.5-0.8-5.2L29.5,15.3z"/>
		</g>
	</g>
</g>
</svg>
