<!-- Generator: Adobe Illustrator 17.1.0, SVG Export Plug-In  -->
<svg version="1.1"
	 xmlns="http://www.w3.org/2000/svg" xmlns:xlink="http://www.w3.org/1999/xlink" xmlns:a="http://ns.adobe.com/AdobeSVGViewerExtensions/3.0/"
	 x="0px" y="0px" width="190px" height="43.3px" viewBox="0 0 190 43.3" enable-background="new 0 0 190 43.3" xml:space="preserve"
	>
<defs>
</defs>
<g>
	<g>
		<path fill="#FFFBEF" d="M72.7,6.8h-1.2v4.4h-2.6v-11h3.8c2.3,0,3.5,1.2,3.5,3.3C76.2,5.5,74.8,6.8,72.7,6.8z M71.5,2.5v2h0.9
			c0.6,0,1-0.4,1-1c0-0.6-0.4-1-1-1H71.5z"/>
		<path fill="#FFFBEF" d="M82.3,0c3.6,0,5.8,2.5,5.8,5.7c0,3.2-2.2,5.7-5.8,5.7c-3.6,0-5.8-2.5-5.8-5.7C76.6,2.5,78.9,0,82.3,0z
			 M82.4,8.9c1.9,0,3-1.4,3-3.2c0-1.8-1.1-3.2-3-3.2c-1.9,0-3,1.4-3,3.2C79.4,7.5,80.5,8.9,82.4,8.9z"/>
		<path fill="#FFFBEF" d="M92.5,4.2l1.4,0.5c1.4,0.6,2.3,1.5,2.3,3.2c0,2.2-1.6,3.5-3.8,3.5c-3.2,0-3.7-2.1-3.6-3.7h2.5
			c0,0.7,0.2,1.4,1.1,1.4c0.6,0,1.1-0.3,1.1-1c0-0.6-0.4-0.9-1.2-1.2c-0.6-0.2-1.1-0.4-1.7-0.7c-1.1-0.6-1.7-1.7-1.7-3
			c0-1.9,1.4-3.3,3.6-3.3c2.6,0,3.5,1.5,3.4,3.4h-2.5c0-0.7-0.3-1.2-1-1.2c-0.6,0-0.9,0.4-0.9,0.8C91.5,3.6,91.7,3.9,92.5,4.2z"/>
		<path fill="#FFFBEF" d="M100.8,2.7v8.5h-2.7V2.7h-1.8V0.2h6.3v2.5H100.8z"/>
		<path fill="#FFFBEF" d="M109.4,4.2l1.4,0.5c1.4,0.6,2.3,1.5,2.3,3.2c0,2.2-1.6,3.5-3.8,3.5c-3.2,0-3.7-2.1-3.6-3.7h2.5
			c0,0.7,0.2,1.4,1.1,1.4c0.6,0,1-0.3,1-1c0-0.6-0.4-0.9-1.2-1.2c-0.6-0.2-1.1-0.4-1.7-0.7c-1.1-0.6-1.7-1.7-1.7-3
			c0-1.9,1.4-3.3,3.5-3.3c2.6,0,3.5,1.5,3.4,3.4h-2.5c0-0.7-0.3-1.2-1-1.2c-0.6,0-0.9,0.4-0.9,0.8C108.4,3.6,108.7,3.9,109.4,4.2z"
			/>
		<path fill="#FFFBEF" d="M114,11.2v-11h5.2v2.5h-2.6v1.7h2.5v2.5h-2.5v1.9h2.6v2.5H114z"/>
		<path fill="#FFFBEF" d="M129.6,10c-0.9,0.9-2.1,1.4-3.7,1.4c-3.7,0-5.9-2.5-5.9-5.7c0-3.2,2.3-5.7,5.8-5.7c1.7,0,2.8,0.5,3.7,1.3
			l-1.6,2c-0.4-0.4-1.1-0.8-2.1-0.8c-2,0-3.1,1.4-3.1,3.2c0,1.8,1.2,3.2,3.1,3.2c0.9,0,1.6-0.4,2.1-0.8L129.6,10z"/>
		<path fill="#FFFBEF" d="M135.1,0c3.6,0,5.8,2.5,5.8,5.7c0,3.2-2.2,5.7-5.8,5.7c-3.6,0-5.8-2.5-5.8-5.7C129.4,2.5,131.7,0,135.1,0z
			 M135.1,8.9c1.9,0,3-1.4,3-3.2c0-1.8-1.1-3.2-3-3.2c-1.9,0-3,1.4-3,3.2C132.1,7.5,133.3,8.9,135.1,8.9z"/>
		<path fill="#FFFBEF" d="M144.4,4.7v6.5h-2.6v-11h2.7l4.1,6.7V0.2h2.6v11h-2.6L144.4,4.7z"/>
		<path fill="#FFFBEF" d="M155.2,0.2c3.6,0,5.9,2,5.9,5.5c0,3.4-2.2,5.5-5.9,5.5h-2.5v-11H155.2z M155.3,8.9c1.8,0,3-1,3-3.2
			c0-2.1-1.2-3.2-3-3.2V8.9z"/>
		<path fill="#FFFBEF" d="M167.6,8.6h-3.5l-0.9,2.6h-2.6l3.9-11h2.8l4.1,11h-2.8L167.6,8.6z M164.9,6.4h1.9l-1-2.8L164.9,6.4z"/>
		<path fill="#FFFBEF" d="M177.7,6.2l2.5,5h-2.9l-2.2-4.5h-0.7v4.5h-2.6v-11h3.8c2.3,0,3.5,1.2,3.5,3.3
			C179.1,4.7,178.6,5.7,177.7,6.2z M174.5,2.5v2h0.9c0.6,0,1-0.4,1-1c0-0.6-0.4-1-1-1H174.5z"/>
		<path fill="#FFFBEF" d="M179,0.2h2.9l1.5,3l1.5-3h2.8l-3.1,5.6v5.5H182V5.8L179,0.2z"/>
		<path fill="#FFFBEF" d="M71.5,20.6v6.5h-2.6v-11h2.7l4.1,6.7v-6.7h2.6v11h-2.6L71.5,20.6z"/>
		<path fill="#FFFBEF" d="M85.8,24.5h-3.5l-0.9,2.6h-2.6l3.8-11h2.8l4.1,11h-2.8L85.8,24.5z M83.1,22.3h1.9l-1-2.8L83.1,22.3z"/>
		<path fill="#FFFBEF" d="M93.2,18.6v8.5h-2.7v-8.5h-1.8v-2.5H95v2.5H93.2z"/>
		<path fill="#FFFBEF" d="M98.6,27.1h-2.7v-11h2.7V27.1z"/>
		<path fill="#FFFBEF" d="M105.2,15.9c3.6,0,5.8,2.5,5.8,5.7c0,3.2-2.2,5.7-5.8,5.7c-3.6,0-5.8-2.5-5.8-5.7
			C99.5,18.5,101.8,15.9,105.2,15.9z M105.3,24.9c1.9,0,3-1.4,3-3.2c0-1.8-1.1-3.2-3-3.2c-1.9,0-3,1.4-3,3.2
			C102.3,23.5,103.5,24.9,105.3,24.9z"/>
		<path fill="#FFFBEF" d="M114.6,20.6v6.5H112v-11h2.7l4.1,6.7v-6.7h2.6v11h-2.6L114.6,20.6z"/>
		<path fill="#FFFBEF" d="M129,24.5h-3.5l-0.9,2.6H122l3.9-11h2.8l4.1,11h-2.8L129,24.5z M126.3,22.3h1.9l-1-2.8L126.3,22.3z"/>
		<path fill="#FFFBEF" d="M133.2,27.1v-11h2.7v8.5h2.5v2.5H133.2z"/>
		<path fill="#FFFBEF" d="M145.5,22.8h-1.2v4.4h-2.6v-11h3.8c2.3,0,3.5,1.2,3.5,3.3C149,21.4,147.6,22.8,145.5,22.8z M144.4,18.4v2
			h0.9c0.6,0,1-0.4,1-1c0-0.6-0.4-1-1-1H144.4z"/>
		<path fill="#FFFBEF" d="M155.1,15.9c3.6,0,5.8,2.5,5.8,5.7c0,3.2-2.2,5.7-5.8,5.7c-3.6,0-5.8-2.5-5.8-5.7
			C149.4,18.5,151.7,15.9,155.1,15.9z M155.2,24.9c1.9,0,3-1.4,3-3.2c0-1.8-1.1-3.2-3-3.2c-1.9,0-3,1.4-3,3.2
			C152.2,23.5,153.4,24.9,155.2,24.9z"/>
		<path fill="#FFFBEF" d="M161.9,27.1v-11h2.7v8.5h2.5v2.5H161.9z"/>
		<path fill="#FFFBEF" d="M170.7,27.1H168v-11h2.7V27.1z"/>
		<path fill="#FFFBEF" d="M181.2,25.9c-0.9,0.9-2.1,1.4-3.7,1.4c-3.7,0-5.9-2.5-5.9-5.7c0-3.2,2.3-5.7,5.8-5.7
			c1.7,0,2.8,0.5,3.7,1.3l-1.6,2c-0.4-0.4-1.1-0.8-2.1-0.8c-2,0-3.1,1.4-3.1,3.2c0,1.8,1.2,3.2,3.1,3.2c0.9,0,1.6-0.4,2.1-0.8
			L181.2,25.9z"/>
		<path fill="#FFFBEF" d="M181.2,16.1h2.9l1.5,3l1.5-3h2.8l-3.1,5.6v5.5h-2.6v-5.4L181.2,16.1z"/>
		<path fill="#FFFBEF" d="M71.6,43.1h-2.7V32h2.7V43.1z"/>
		<path fill="#FFFBEF" d="M75.5,36.6v6.5h-2.6V32h2.7l4.1,6.7V32h2.6v11h-2.6L75.5,36.6z"/>
		<path fill="#FFFBEF" d="M87.1,36l1.4,0.5c1.4,0.6,2.3,1.5,2.3,3.2c0,2.2-1.6,3.5-3.8,3.5c-3.2,0-3.7-2.1-3.6-3.7h2.5
			c0,0.7,0.2,1.4,1.1,1.4c0.6,0,1.1-0.3,1.1-1c0-0.6-0.4-0.9-1.2-1.2c-0.6-0.2-1.1-0.4-1.7-0.7c-1.1-0.6-1.7-1.7-1.7-3
			c0-1.9,1.4-3.3,3.6-3.3c2.6,0,3.5,1.5,3.4,3.4h-2.4c0-0.7-0.3-1.2-1-1.2c-0.6,0-0.9,0.4-0.9,0.8C86.1,35.4,86.3,35.7,87.1,36z"/>
		<path fill="#FFFBEF" d="M95.4,34.5v8.5h-2.7v-8.5h-1.8V32h6.3v2.5H95.4z"/>
		<path fill="#FFFBEF" d="M100.8,43.1h-2.7V32h2.7V43.1z"/>
		<path fill="#FFFBEF" d="M106.2,34.5v8.5h-2.7v-8.5h-1.8V32h6.3v2.5H106.2z"/>
		<path fill="#FFFBEF" d="M108.9,38.7V32h2.7v6.6c0,1.2,0.6,2.1,1.9,2.1c1.3,0,1.9-0.9,1.9-2.1V32h2.7v6.6c0,2.7-1.5,4.6-4.6,4.6
			C110.3,43.3,108.9,41.4,108.9,38.7z"/>
		<path fill="#FFFBEF" d="M123.3,34.5v8.5h-2.7v-8.5h-1.8V32h6.3v2.5H123.3z"/>
		<path fill="#FFFBEF" d="M126,43.1V32h5.2v2.5h-2.6v1.7h2.5v2.5h-2.5v1.9h2.6v2.5H126z"/>
	</g>
	<g>
		<g>
			<path fill="#FFFBEF" d="M31.6,43.1c-7,0-13.3-2.8-18.1-7.8L13,34.6V20.8h4.5v11.9c3.8,3.7,9,5.8,14.4,5.8c5.4,0,10.5-2,14.4-5.8
				V20.8h4.3v13.8l-0.7,0.7C45.1,40.3,38.6,43.1,31.6,43.1z"/>
		</g>
		<g>
			<path fill="#FFFBEF" d="M31.6,31.9L0,16L31.6,0.1L63.3,16L31.6,31.9z M10.2,16l21.5,10.8L53.1,16L31.6,5.2L10.2,16z"/>
		</g>
	</g>
</g>
</svg>
