<?xml version="1.0" encoding="utf-8"?>
<!-- Generator: Adobe Illustrator 16.0.0, SVG Export Plug-In . SVG Version: 6.00 Build 0)  -->
<!DOCTYPE svg PUBLIC "-//W3C//DTD SVG 1.1//EN" "http://www.w3.org/Graphics/SVG/1.1/DTD/svg11.dtd">
<svg version="1.1" id="Layer_1" xmlns="http://www.w3.org/2000/svg" xmlns:xlink="http://www.w3.org/1999/xlink" x="0px" y="0px"
	 width="32px" height="32px" viewBox="0 0 32 32" enable-background="new 0 0 32 32" xml:space="preserve">
<g>
	<g>
		<rect x="8.013" y="19.528" fill="#333132" width="15.987" height="2.238"/>
		<rect x="8.013" y="14.946" fill="#333132" width="15.987" height="2.291"/>
		<rect x="11.957" y="10.363" fill="#333132" width="12.043" height="2.291"/>
		<circle fill="#333132" cx="9.281" cy="11.514" r="1.281"/>
	</g>
	<path fill="#333132" d="M16,3.631c6.82,0,12.369,5.548,12.369,12.369S22.82,28.369,16,28.369S3.631,22.82,3.631,16
		S9.18,3.631,16,3.631 M16,1.131C7.788,1.131,1.131,7.788,1.131,16c0,8.213,6.657,14.869,14.869,14.869
		c8.213,0,14.869-6.656,14.869-14.869C30.869,7.788,24.213,1.131,16,1.131L16,1.131z"/>
</g>
</svg>
