<!-- Generator: Adobe Illustrator 17.1.0, SVG Export Plug-In  -->
<svg version="1.1"
	 xmlns="http://www.w3.org/2000/svg" xmlns:xlink="http://www.w3.org/1999/xlink" xmlns:a="http://ns.adobe.com/AdobeSVGViewerExtensions/3.0/"
	 x="0px" y="0px" width="127.6px" height="32.6px" viewBox="0 0 127.6 32.6" enable-background="new 0 0 127.6 32.6"
	 xml:space="preserve">
<defs>
</defs>
<g>
	<g>
		<path fill="#FFFBEF" d="M44.4,3.6v9.7h-3V3.6h-2.1V0.8h7.2v2.8H44.4z"/>
		<path fill="#FFFBEF" d="M58,13.4h-3v-5h-4.4v5h-3V0.8h3v4.7h4.4V0.8h3V13.4z"/>
		<path fill="#FFFBEF" d="M59.5,13.4V0.8h6v2.8h-2.9v1.9h2.8v2.8h-2.8v2.2h3v2.8H59.5z"/>
		<path fill="#FFFBEF" d="M77.9,5.5l-2.2,7.9h-3.5L68.7,0.8h3.3l2.1,8.6l2.2-8.6h3.3l2.2,8.6l2.1-8.6H87l-3.4,12.6H80L77.9,5.5z"/>
		<path fill="#FFFBEF" d="M87.6,13.4V0.8h6v2.8h-2.9v1.9h2.8v2.8h-2.8v2.2h3v2.8H87.6z"/>
		<path fill="#FFFBEF" d="M94.9,13.4V0.8h6v2.8H98v1.9h2.8v2.8H98v2.2h3v2.8H94.9z"/>
		<path fill="#FFFBEF" d="M105.3,5.7l3.4-4.9h3.5l-4.4,6l4.4,6.6h-3.5l-3.4-5.1v5.1h-3V0.8h3V5.7z"/>
		<path fill="#FFFBEF" d="M112.8,13.4V0.8h3v9.8h2.9v2.8H112.8z"/>
		<path fill="#FFFBEF" d="M117.6,0.8h3.4l1.7,3.4l1.8-3.4h3.2l-3.6,6.3v6.2h-3V7.2L117.6,0.8z"/>
		<path fill="#FFFBEF" d="M48,23.7l-2.2,7.9h-3.5L38.9,19h3.3l2.1,8.6l2.2-8.6h3.3l2.2,8.6L54,19h3.1l-3.4,12.6h-3.6L48,23.7z"/>
		<path fill="#FFFBEF" d="M63.4,18.7c4.1,0,6.7,2.8,6.7,6.5c0,3.7-2.5,6.6-6.6,6.6c-4.1,0-6.6-2.8-6.6-6.5
			C56.8,21.6,59.5,18.7,63.4,18.7z M63.4,29c2.2,0,3.4-1.6,3.4-3.7c0-2.1-1.3-3.7-3.4-3.7c-2.2,0-3.4,1.6-3.4,3.7
			C60,27.3,61.3,29,63.4,29z"/>
		<path fill="#FFFBEF" d="M74.1,24.1v7.4h-2.9V19h3.1l4.7,7.6V19h2.9v12.6h-3L74.1,24.1z"/>
		<path fill="#FFFBEF" d="M86.5,23.9l3.4-4.9h3.5L89,25l4.4,6.6h-3.5l-3.4-5.1v5.1h-3V19h3V23.9z"/>
	</g>
	<g>
		<g>
			<g>
				<rect x="8" y="13" fill="#FFFBEF" width="15.8" height="2.2"/>
			</g>
		</g>
		<g>
			<g>
				<rect x="8" y="17.5" fill="#FFFBEF" width="10.7" height="2.2"/>
			</g>
		</g>
		<g>
			<g>
				<path fill="#FFFBEF" d="M23.6,17.7c0.5,0.5,0.5,1.3,0,1.8c-0.5,0.5-1.3,0.5-1.8,0c-0.5-0.5-0.5-1.3,0-1.8
					C22.3,17.2,23.1,17.2,23.6,17.7"/>
			</g>
		</g>
		<g>
			<g>
				<g>
					<path fill="#FFFBEF" d="M16.3,32.6C7.3,32.6,0,25.3,0,16.3C0,7.3,7.3,0,16.3,0c9,0,16.3,7.3,16.3,16.3
						C32.6,25.3,25.3,32.6,16.3,32.6z M16.3,3C8.9,3,3,8.9,3,16.3c0,7.4,6,13.3,13.3,13.3c7.4,0,13.3-6,13.3-13.3
						C29.6,8.9,23.6,3,16.3,3z"/>
				</g>
			</g>
		</g>
	</g>
</g>
</svg>
