<?xml version="1.0" encoding="utf-8"?>
<!-- Generator: Adobe Illustrator 18.1.0, SVG Export Plug-In . SVG Version: 6.00 Build 0)  -->
<svg version="1.1" id="Layer_1" xmlns="http://www.w3.org/2000/svg" xmlns:xlink="http://www.w3.org/1999/xlink" x="0px" y="0px"
	 viewBox="-258 377.5 93.1 39.5" enable-background="new -258 377.5 93.1 39.5" xml:space="preserve">
<g>
	<path fill="#FFFBEF" d="M-258,377.5h10.6l5.5,10.7l5.6-10.7h10l-11.1,19.8v19.5h-9.5v-19.3L-258,377.5z"/>
</g>
<g>
	<path fill="#FFFBEF" d="M-226.4,391.1h2.6l1.4,2.7l1.4-2.7h2.5l-2.8,5v4.9h-2.4v-4.9L-226.4,391.1z"/>
	<path fill="#FFFBEF" d="M-214.2,391c3.3,0,5.3,2.2,5.3,5.1c0,2.9-1.9,5.2-5.2,5.2c-3.3,0-5.2-2.2-5.2-5.1
		C-219.3,393.2-217.2,391-214.2,391z M-214.2,399c1.7,0,2.7-1.3,2.7-2.9c0-1.6-1-2.9-2.7-2.9c-1.7,0-2.7,1.3-2.7,2.9
		C-216.8,397.7-215.8,399-214.2,399z"/>
	<path fill="#FFFBEF" d="M-208.2,397.1v-5.9h2.4v5.9c0,1.1,0.5,1.8,1.7,1.8c1.1,0,1.7-0.9,1.7-1.9v-5.9h2.4v5.9
		c0,2.4-1.4,4.1-4.1,4.1C-206.9,401.2-208.2,399.6-208.2,397.1z"/>
	<path fill="#FFFBEF" d="M-195.2,393.3v7.7h-2.4v-7.7h-1.6v-2.2h5.7v2.2H-195.2L-195.2,393.3z"/>
	<path fill="#FFFBEF" d="M-184.6,401h-2.4v-3.9h-3.4v3.9h-2.4v-9.9h2.4v3.7h3.4v-3.7h2.4V401L-184.6,401z"/>
	<path fill="#FFFBEF" d="M-180.4,394.7l1.2,0.5c1.3,0.5,2,1.4,2,2.9c0,1.9-1.4,3.2-3.4,3.2c-2.9,0-3.3-1.8-3.3-3.3h2.3
		c0,0.6,0.2,1.2,1,1.2c0.5,0,1-0.3,1-0.9c0-0.6-0.4-0.9-1.1-1.1c-0.5-0.2-1-0.4-1.5-0.6c-1-0.5-1.5-1.5-1.5-2.7
		c0-1.7,1.3-2.9,3.2-2.9c2.3,0,3.2,1.3,3.1,3.1h-2.2c0-0.6-0.3-1.1-0.9-1.1c-0.5,0-0.9,0.3-0.9,0.8
		C-181.2,394.2-181,394.5-180.4,394.7z"/>
	<path fill="#FFFBEF" d="M-170.9,398.6h-3.1l-0.9,2.4h-2.3l3.4-9.9h2.5l3.7,9.9h-2.5L-170.9,398.6z M-173.3,396.7h1.7l-0.9-2.5
		L-173.3,396.7z"/>
	<path fill="#FFFBEF" d="M-168.9,391.1h2.7l2.3,6.9l2.3-6.9h2.6l-3.7,9.9h-2.6L-168.9,391.1z"/>
	<path fill="#FFFBEF" d="M-158.7,401v-9.9h4.7v2.2h-2.3v1.5h2.2v2.2h-2.2v1.7h2.3v2.2L-158.7,401L-158.7,401z"/>
</g>
</svg>
