<svg version="1.1"
	 xmlns="http://www.w3.org/2000/svg" xmlns:xlink="http://www.w3.org/1999/xlink" xmlns:a="http://ns.adobe.com/AdobeSVGViewerExtensions/3.0/"
	 x="0px" y="0px" width="15.7px" height="38.7px" viewBox="0 0 15.7 38.7" enable-background="new 0 0 15.7 38.7"
	 xml:space="preserve">
<defs>
</defs>
<g class="start">
	<path fill="#333232" d="M13.8,9.7l-1.3-1.3c-0.2,2.2-2.1,4-4.3,4.2l1.3,1.3C11.6,13.3,13.2,11.7,13.8,9.7"/>
	<path fill="#333232" d="M1.8,6.1l1.3,1.3c0.2-2.2,2-4,4.2-4.3L6,1.8C4,2.5,2.4,4.1,1.8,6.1"/>
	<path fill="#333232" d="M5.3,1.1L4.2,0C2.3,0.9,0.8,2.4,0,4.2l1.1,1.1C1.8,3.4,3.3,1.8,5.3,1.1"/>
	<path fill="#333232" d="M10.3,14.7l1.1,1.1c1.9-0.9,3.4-2.4,4.2-4.2l-1.1-1.1C13.9,12.4,12.3,13.9,10.3,14.7"/>
	<path fill="#333232" d="M3.1,8.4L1.8,9.7c0.6,2.1,2.2,3.6,4.3,4.2l1.3-1.3C5.1,12.5,3.3,10.7,3.1,8.4"/>
	<path fill="#333232" d="M12.6,7.4l1.3-1.3C13.3,4,11.7,2.4,9.7,1.8L8.4,3.1C10.6,3.4,12.4,5.2,12.6,7.4"/>
	<path fill="#333232" d="M14.6,5.4l1.1-1.1c-0.9-1.9-2.4-3.4-4.2-4.2l-1.1,1.1C12.4,1.8,13.9,3.4,14.6,5.4"/>
	<path fill="#333232" d="M1.1,10.4L0,11.5c0.9,1.9,2.4,3.4,4.2,4.2l1.1-1.1C3.4,13.9,1.8,12.4,1.1,10.4"/>
	<path fill="#333232" d="M7.8,6.9c-0.5,0-1,0.5-1,1s0.5,1,1,1s1-0.5,1-1S8.4,6.9,7.8,6.9"/>
	<path fill="#333232" d="M5.7,7.9c0-1.1,0.9-2.1,2.1-2.1c1.1,0,2.1,0.9,2.1,2.1C9.9,9,9,10,7.8,10S5.7,9,5.7,7.9 M11.3,8.7
		c0.1-0.3,0.1-0.5,0.1-0.8c0-0.2,0-0.5-0.1-0.7C11,5.8,9.9,4.7,8.5,4.4C8.3,4.3,8,4.3,7.8,4.3s-0.5,0-0.7,0.1
		C5.7,4.7,4.6,5.8,4.3,7.2C4.2,7.4,4.2,7.7,4.2,7.9c0,0.3,0.1,0.6,0.1,0.8c0.3,1.3,1.3,2.4,2.6,2.6c0.3,0.1,0.5,0.1,0.8,0.1
		s0.6-0.1,0.8-0.1C10,11.1,11,10,11.3,8.7"/>
</g>
<g opacity="0.5">
	<path fill="#333232" d="M13.8,32.6l-1.3-1.3c-0.2,2.2-2.1,4-4.3,4.2l1.3,1.3C11.6,36.2,13.2,34.6,13.8,32.6"/>
	<path fill="#333232" d="M1.8,29.1l1.3,1.3c0.2-2.2,2-4,4.2-4.3L6,24.8C4,25.4,2.4,27.1,1.8,29.1"/>
	<path fill="#333232" d="M5.3,24l-1.1-1.1c-1.9,0.9-3.4,2.4-4.2,4.2l1.1,1.1C1.8,26.3,3.3,24.8,5.3,24"/>
	<path fill="#333232" d="M10.3,37.6l1.1,1.1c1.9-0.9,3.4-2.4,4.2-4.2l-1.1-1.1C13.9,35.3,12.3,36.9,10.3,37.6"/>
	<path fill="#333232" d="M3.1,31.4l-1.3,1.3c0.6,2.1,2.2,3.6,4.3,4.2l1.3-1.3C5.1,35.4,3.3,33.6,3.1,31.4"/>
	<path fill="#333232" d="M12.6,30.3l1.3-1.3c-0.6-2.1-2.2-3.7-4.2-4.3L8.4,26C10.6,26.3,12.4,28.1,12.6,30.3"/>
	<path fill="#333232" d="M14.6,28.3l1.1-1.1c-0.9-1.9-2.4-3.4-4.2-4.2l-1.1,1.1C12.4,24.8,13.9,26.3,14.6,28.3"/>
	<path fill="#333232" d="M1.1,33.4L0,34.5c0.9,1.9,2.4,3.4,4.2,4.2l1.1-1.1C3.4,36.9,1.8,35.3,1.1,33.4"/>
	<path fill="#333232" d="M7.8,29.8c-0.5,0-1,0.5-1,1s0.5,1,1,1s1-0.5,1-1S8.4,29.8,7.8,29.8"/>
	<path fill="#333232" d="M5.7,30.8c0-1.1,0.9-2.1,2.1-2.1c1.1,0,2.1,0.9,2.1,2.1c0,1.1-0.9,2.1-2.1,2.1S5.7,31.9,5.7,30.8
		 M11.3,31.7c0.1-0.3,0.1-0.5,0.1-0.8c0-0.2,0-0.5-0.1-0.7c-0.3-1.4-1.4-2.5-2.8-2.8c-0.2-0.1-0.5-0.1-0.7-0.1s-0.5,0-0.7,0.1
		c-1.4,0.3-2.5,1.4-2.8,2.8c-0.1,0.2-0.1,0.5-0.1,0.7c0,0.3,0.1,0.6,0.1,0.8c0.3,1.3,1.3,2.4,2.6,2.6c0.3,0.1,0.5,0.1,0.8,0.1
		s0.6-0.1,0.8-0.1C10,34,11,33,11.3,31.7"/>
</g>
</svg>
