<?xml version="1.0" encoding="utf-8"?>
<!-- Generator: Adobe Illustrator 17.1.0, SVG Export Plug-In . SVG Version: 6.00 Build 0)  -->
<!DOCTYPE svg PUBLIC "-//W3C//DTD SVG 1.1//EN" "http://www.w3.org/Graphics/SVG/1.1/DTD/svg11.dtd">
<svg version="1.1" id="Layer_1" xmlns="http://www.w3.org/2000/svg" xmlns:xlink="http://www.w3.org/1999/xlink" x="0px" y="0px"
	 viewBox="57 0 62 231" enable-background="new 57 0 62 231" xml:space="preserve">
<g>
	<g>
		<g>
			<rect x="67.8" y="28.1" fill="#333232" width="5.7" height="29.7"/>
		</g>
		<g>
			<rect x="80" y="28.1" fill="#333232" width="5.7" height="29.7"/>
		</g>
		<g>
			<rect x="91.3" y="28.1" fill="#333232" width="5.7" height="29.7"/>
		</g>
		<g>
			<rect x="103.5" y="28.1" fill="#333232" width="5.7" height="29.7"/>
		</g>
	</g>
	<g>
		<polygon fill="#333232" points="118.6,26.8 88.5,17.9 58.4,26.8 58.4,20.7 88.5,11.8 118.6,20.7 		"/>
	</g>
	<g>
		<rect x="58.4" y="54.9" fill="#333232" width="60.2" height="5.7"/>
	</g>
	<g>
		<polygon fill="#333232" points="91.3,15 85.7,15 85.7,0 97.4,0 97.4,5.7 91.3,5.7 		"/>
	</g>
</g>
<g opacity="0.5">
	<g>
		<g>
			<rect x="67.8" y="197.5" fill="#333232" width="5.7" height="29.7"/>
		</g>
		<g>
			<rect x="80" y="197.5" fill="#333232" width="5.7" height="29.7"/>
		</g>
		<g>
			<rect x="91.3" y="197.5" fill="#333232" width="5.7" height="29.7"/>
		</g>
		<g>
			<rect x="103.5" y="197.5" fill="#333232" width="5.7" height="29.7"/>
		</g>
	</g>
	<g>
		<polygon fill="#333232" points="118.6,196.2 88.5,187.7 58.4,196.2 58.4,190.2 88.5,181.6 118.6,190.2 		"/>
	</g>
	<g>
		<rect x="58.4" y="224.3" fill="#333232" width="60.2" height="5.7"/>
	</g>
	<g>
		<polygon fill="#333232" points="91.3,184.5 85.7,184.5 85.7,169.4 97.4,169.4 97.4,175.1 91.3,175.1 		"/>
	</g>
</g>
</svg>
