<svg version="1.1"
	 xmlns="http://www.w3.org/2000/svg" xmlns:xlink="http://www.w3.org/1999/xlink" xmlns:a="http://ns.adobe.com/AdobeSVGViewerExtensions/3.0/"
	 x="0px" y="0px" width="12.6px" height="35.5px" viewBox="0 0 12.6 35.5" enable-background="new 0 0 12.6 35.5"
	 xml:space="preserve">
<defs>
</defs>
<g class="start">
	<g>
		<path fill="#333232" d="M6.3,12.6C2.8,12.6,0,9.8,0,6.3S2.8,0,6.3,0s6.3,2.8,6.3,6.3S9.8,12.6,6.3,12.6z M6.3,0.9
			c-3,0-5.4,2.4-5.4,5.4s2.4,5.4,5.4,5.4s5.4-2.4,5.4-5.4S9.3,0.9,6.3,0.9z"/>
	</g>
	<g>
		<path fill="#333232" d="M6.3,7.9c-0.9,0-1.6-0.7-1.6-1.6s0.7-1.6,1.6-1.6c0.9,0,1.6,0.7,1.6,1.6S7.2,7.9,6.3,7.9z M6.3,5.5
			c-0.4,0-0.7,0.3-0.7,0.7s0.3,0.7,0.7,0.7S7,6.6,7,6.2C7,5.9,6.7,5.5,6.3,5.5z"/>
	</g>
	<g>
		<path fill="#333232" d="M6.3,10.2c-2.2,0-4-1.8-4-4s1.8-4,4-4s4,1.8,4,4S8.5,10.2,6.3,10.2z M6.3,3.2c-1.7,0-3,1.4-3,3
			c0,1.7,1.4,3,3,3s3-1.4,3-3C9.4,4.5,8,3.2,6.3,3.2z"/>
	</g>
</g>
<g opacity="0.5">
	<g>
		<path fill="#333232" d="M6.3,35.5c-3.5,0-6.3-2.8-6.3-6.3s2.8-6.3,6.3-6.3s6.3,2.8,6.3,6.3S9.8,35.5,6.3,35.5z M6.3,23.8
			c-3,0-5.4,2.4-5.4,5.4s2.4,5.4,5.4,5.4s5.4-2.4,5.4-5.4S9.3,23.8,6.3,23.8z"/>
	</g>
	<g>
		<path fill="#333232" d="M6.3,30.8c-0.9,0-1.6-0.7-1.6-1.6s0.7-1.6,1.6-1.6c0.9,0,1.6,0.7,1.6,1.6S7.2,30.8,6.3,30.8z M6.3,28.4
			c-0.4,0-0.7,0.3-0.7,0.7s0.3,0.7,0.7,0.7S7,29.5,7,29.1C7,28.8,6.7,28.4,6.3,28.4z"/>
	</g>
	<g>
		<path fill="#333232" d="M6.3,33.1c-2.2,0-4-1.8-4-4s1.8-4,4-4s4,1.8,4,4C10.3,31.4,8.5,33.1,6.3,33.1z M6.3,26.1c-1.7,0-3,1.4-3,3
			c0,1.7,1.4,3,3,3s3-1.4,3-3C9.4,27.5,8,26.1,6.3,26.1z"/>
	</g>
</g>
</svg>
