<svg version="1.1"
	 xmlns="http://www.w3.org/2000/svg" xmlns:xlink="http://www.w3.org/1999/xlink" xmlns:a="http://ns.adobe.com/AdobeSVGViewerExtensions/3.0/"
	 x="0px" y="0px" width="14.5px" height="42.6px" viewBox="0 0 14.5 42.6" enable-background="new 0 0 14.5 42.6"
	 xml:space="preserve">
<defs>
</defs>
<g class="start">
	<g>
		<rect x="6.4" y="9.6" fill="#333232" width="1.8" height="6.4"/>
	</g>
	<g>
		<rect x="4" y="15.1" fill="#333232" width="6.4" height="1.8"/>
	</g>
	<g>
		<rect x="4" y="17.8" fill="#333232" width="6.4" height="1.8"/>
	</g>
	<g>
		<path fill="#333232" d="M7.3,0C3.3,0,0,3.3,0,7.3c0,3.3,2.1,6,5,7v-1.9c-1.8-0.9-3.2-2.8-3.2-5c0-3,2.5-5.5,5.5-5.5
			s5.4,2.5,5.4,5.5c0,2.2-1.3,4.1-3.3,5v1.9c2.9-1,5.1-3.7,5.1-7C14.6,3.3,11.3,0,7.3,0z"/>
	</g>
</g>
</svg>
