<?xml version="1.0" encoding="utf-8"?>
<!-- Generator: Adobe Illustrator 17.1.0, SVG Export Plug-In . SVG Version: 6.00 Build 0)  -->
<!DOCTYPE svg PUBLIC "-//W3C//DTD SVG 1.1//EN" "http://www.w3.org/Graphics/SVG/1.1/DTD/svg11.dtd">
<svg version="1.1" id="Layer_1" xmlns="http://www.w3.org/2000/svg" xmlns:xlink="http://www.w3.org/1999/xlink" x="0px" y="0px"
	 viewBox="0 0 463.8 594.1" enable-background="new 0 0 463.8 594.1" xml:space="preserve">
<g opacity="0.5">
	<g>
		<rect x="2.8" y="251.2" fill="#333333" width="43.1" height="3.8"/>
	</g>
	<g>
		<rect x="22.4" y="231.1" fill="#333333" width="3.9" height="22.1"/>
	</g>
	<g>
		
			<rect x="27.9" y="232.5" transform="matrix(0.8659 0.5002 -0.5002 0.8659 125.8347 17.7017)" fill="#333333" width="3.9" height="22.1"/>
	</g>
	<g>
		
			<rect x="32" y="236.6" transform="matrix(0.4995 0.8663 -0.8663 0.4995 231.4689 94.51)" fill="#333333" width="3.9" height="22.1"/>
	</g>
	<g>
		<rect x="7.8" y="241.6" transform="matrix(0.5 0.866 -0.866 0.5 220.354 105.4352)" fill="#333333" width="22.1" height="3.9"/>
	</g>
	<g>
		
			<rect x="3.8" y="245.6" transform="matrix(0.866 0.5001 -0.5001 0.866 125.7918 25.7591)" fill="#333333" width="22.1" height="3.9"/>
	</g>
</g>
<g opacity="0.5">
	<g>
		<rect x="17" y="25" fill="#333333" width="4.8" height="16.5"/>
	</g>
	<g>
		<rect x="11" y="39.1" fill="#333333" width="16.6" height="4.8"/>
	</g>
	<g>
		<rect x="11" y="46.3" fill="#333333" width="16.6" height="4.8"/>
	</g>
	<g>
		<path fill="#333333" d="M19.4,0.1c-10.4,0-19,8.5-19,19c0,8.4,5.5,15.5,13,18v-5.1C8.7,29.7,5.2,24.8,5.2,19
			c0-7.8,6.4-14.2,14.2-14.2c7.8,0,14.1,6.4,14.1,14.2c0,5.7-3.3,10.7-8.4,12.9V37c7.6-2.5,13.1-9.6,13.1-18
			C38.3,8.6,29.8,0.1,19.4,0.1z"/>
	</g>
</g>
<g opacity="0.5">
	<polygon fill="#333333" points="121.1,258.6 117.8,258.6 117.8,247.2 127.5,247.2 127.5,237.6 137.2,237.6 137.2,227.9 
		148.5,227.9 148.5,231.2 140.4,231.2 140.4,240.8 130.7,240.8 130.7,250.5 121.1,250.5 	"/>
</g>
<g opacity="0.5">
	<g>
		<path fill="#333333" d="M133.9,43.3c-9.7,0-17.5-7.9-17.5-17.5c0-9.7,7.9-17.5,17.5-17.5c9.7,0,17.5,7.9,17.5,17.5
			C151.4,35.4,143.5,43.3,133.9,43.3z M133.9,10.5c-8.4,0-15.2,6.8-15.2,15.2c0,8.4,6.8,15.2,15.2,15.2c8.4,0,15.2-6.8,15.2-15.2
			C149.1,17.4,142.3,10.5,133.9,10.5z"/>
	</g>
	<g>
		<path fill="#333333" d="M133.9,43.1l-0.6-0.4c-2.5-1.7-4.7-4.1-6.2-7.1c-1.5-3-2.3-6.4-2.3-9.9c0-3.5,0.8-6.9,2.3-9.9
			c1.5-2.9,3.6-5.4,6.2-7.1l0.6-0.4l0.6,0.4c2.5,1.7,4.7,4.1,6.2,7.1c1.5,3,2.3,6.4,2.3,9.9c0,3.5-0.8,6.9-2.3,9.9
			c-1.5,2.9-3.6,5.4-6.2,7.1L133.9,43.1z M133.9,11.2c-4.2,3.2-6.8,8.7-6.8,14.5c0,5.9,2.6,11.4,6.8,14.5c4.2-3.2,6.8-8.7,6.8-14.5
			C140.7,19.9,138.1,14.4,133.9,11.2z"/>
	</g>
	<g>
		<path fill="#333333" d="M133.9,20.4c-5.4,0-10.4-1.6-13.2-4.4l1.6-1.6c2.3,2.3,6.8,3.7,11.5,3.7c4.8,0,9.2-1.4,11.5-3.7L147,16
			C144.3,18.7,139.3,20.4,133.9,20.4z"/>
	</g>
	<g>
		<path fill="#333333" d="M145.4,37.2c-2.3-2.3-6.8-3.7-11.5-3.7c-4.8,0-9.2,1.4-11.5,3.7l-1.6-1.6c2.8-2.8,7.7-4.4,13.2-4.4
			c5.4,0,10.4,1.6,13.2,4.4L145.4,37.2z"/>
	</g>
	<g>
		<rect x="117.5" y="24.6" fill="#333333" width="32.7" height="2.3"/>
	</g>
</g>
<g opacity="0.5">
	<g>
		<rect x="427.3" y="17.9" fill="#333333" width="4" height="23.6"/>
	</g>
	<g>
		<circle fill="#333333" cx="429.3" cy="13" r="3"/>
	</g>
	<g>
		<rect x="436.3" y="23" fill="#333333" width="4" height="18.5"/>
	</g>
	<g>
		<circle fill="#333333" cx="438.2" cy="18.1" r="3"/>
	</g>
	<g>
		<rect x="445.2" y="17.9" fill="#333333" width="4" height="23.6"/>
	</g>
	<g>
		<circle fill="#333333" cx="447.2" cy="13" r="3"/>
	</g>
	<g>
		<rect x="454.1" y="23" fill="#333333" width="4" height="18.5"/>
	</g>
	<g>
		<circle fill="#333333" cx="456.1" cy="18.1" r="3"/>
	</g>
</g>
<g opacity="0.5">
	<g>
		<path fill="#333333" d="M331.6,47.2c-7,0-13.3-2.8-18.1-7.8l-0.5-0.7V24.9h4.5v11.9c3.8,3.7,9,5.8,14.4,5.8c5.4,0,10.5-2,14.4-5.8
			V24.9h4.3v13.8l-0.7,0.7C345.1,44.4,338.6,47.2,331.6,47.2z"/>
	</g>
	<g>
		<path fill="#333333" d="M331.6,36L300,20.1l31.6-15.9l31.6,15.9L331.6,36z M310.2,20.1l21.5,10.8l21.5-10.8L331.6,9.3L310.2,20.1z
			"/>
	</g>
</g>
<g opacity="0.5">
	<g>
		
			<rect x="298.9" y="241" transform="matrix(-0.7071 0.7071 -0.7071 -0.7071 712.6507 190.6273)" fill="#333333" width="35.8" height="3.9"/>
	</g>
	<g>
		<polygon fill="#333333" points="319.2,227.8 332,227.8 332,240.5 328.2,240.5 328.2,231.7 319.2,231.7 		"/>
	</g>
	<g>
		<polygon fill="#333333" points="332,258.6 301.2,258.6 301.2,227.8 305,227.8 305,254.8 332,254.8 		"/>
	</g>
</g>
<g opacity="0.5">
	<g>
		<polygon fill="#333333" points="216.8,250.4 207.9,241.5 210.9,238.5 216.8,244.4 234.3,226.9 237.3,229.9 		"/>
	</g>
	<g>
		<path fill="#333333" d="M229.4,241.5c0.1,0.5,0.1,1.1,0.1,1.6c0,7-5.7,12.7-12.7,12.7c-7,0-12.7-5.7-12.7-12.7
			c0-7,5.7-12.7,12.7-12.7c2.9,0,5.5,1,7.6,2.6l3-3c-2.9-2.4-6.6-3.8-10.6-3.8c-9.3,0-16.9,7.6-16.9,16.9c0,9.3,7.6,16.9,16.9,16.9
			c9.3,0,16.9-7.6,16.9-16.9c0-1.8-0.3-3.5-0.8-5.2L229.4,241.5z"/>
	</g>
</g>
<g opacity="0.5">
	<g>
		<g>
			<rect x="430.8" y="241.6" fill="#333333" width="3.6" height="18.9"/>
		</g>
		<g>
			<rect x="438.4" y="241.6" fill="#333333" width="3.6" height="18.9"/>
		</g>
		<g>
			<rect x="445.9" y="241.6" fill="#333333" width="3.6" height="18.9"/>
		</g>
		<g>
			<rect x="453.5" y="241.6" fill="#333333" width="3.6" height="18.9"/>
		</g>
	</g>
	<g>
		<polygon fill="#333333" points="463.2,240.8 444,235.2 424.8,240.8 424.8,237 444,231.4 463.2,237 		"/>
	</g>
	<g>
		<rect x="424.8" y="258.7" fill="#333333" width="38.4" height="3.6"/>
	</g>
	<g>
		<polygon fill="#333333" points="445.8,233.3 442.2,233.3 442.2,223.7 449.6,223.7 449.6,227.4 445.8,227.4 		"/>
	</g>
</g>
<g opacity="0.5">
	<g>
		<path fill="#323232" d="M214.8,476.9c-9,0-16.3-7.3-16.3-16.3c0-9,7.3-16.3,16.3-16.3c9,0,16.3,7.3,16.3,16.3
			C231.1,469.6,223.8,476.9,214.8,476.9z M214.8,446.6c-7.7,0-13.9,6.2-13.9,13.9s6.2,13.9,13.9,13.9c7.7,0,13.9-6.2,13.9-13.9
			S222.5,446.6,214.8,446.6z"/>
	</g>
	<g>
		<path fill="#323232" d="M214.8,464.8c-2.3,0-4.2-1.9-4.2-4.2c0-2.3,1.9-4.2,4.2-4.2c2.3,0,4.2,1.9,4.2,4.2
			C219,462.9,217.1,464.8,214.8,464.8z M214.8,458.7c-1,0-1.8,0.8-1.8,1.8c0,1,0.8,1.8,1.8,1.8c1,0,1.8-0.8,1.8-1.8
			C216.7,459.6,215.8,458.7,214.8,458.7z"/>
	</g>
	<g>
		<path fill="#323232" d="M214.8,470.8c-5.7,0-10.2-4.6-10.2-10.2c0-5.6,4.6-10.2,10.2-10.2c5.6,0,10.2,4.6,10.2,10.2
			C225.1,466.2,220.5,470.8,214.8,470.8z M214.8,452.7c-4.3,0-7.9,3.5-7.9,7.9c0,4.3,3.5,7.9,7.9,7.9c4.3,0,7.9-3.5,7.9-7.9
			C222.7,456.2,219.2,452.7,214.8,452.7z"/>
	</g>
</g>
<g opacity="0.5">
	<g>
		<g>
			<rect x="310.2" y="457.3" fill="#333333" width="15.8" height="2.2"/>
		</g>
	</g>
	<g>
		<g>
			<rect x="310.2" y="461.8" fill="#333333" width="10.7" height="2.2"/>
		</g>
	</g>
	<g>
		<g>
			<path fill="#333333" d="M325.8,462c0.5,0.5,0.5,1.3,0,1.8c-0.5,0.5-1.3,0.5-1.8,0c-0.5-0.5-0.5-1.3,0-1.8
				C324.5,461.5,325.3,461.5,325.8,462"/>
		</g>
	</g>
	<g>
		<g>
			<g>
				<path fill="#333333" d="M318.5,476.9c-9,0-16.3-7.3-16.3-16.3c0-9,7.3-16.3,16.3-16.3c9,0,16.3,7.3,16.3,16.3
					C334.8,469.6,327.5,476.9,318.5,476.9z M318.5,447.2c-7.3,0-13.3,6-13.3,13.3c0,7.4,6,13.3,13.3,13.3c7.4,0,13.3-6,13.3-13.3
					C331.8,453.2,325.8,447.2,318.5,447.2z"/>
			</g>
		</g>
	</g>
</g>
<g opacity="0.5">
	<g>
		<rect x="231.9" y="10.1" fill="#333333" width="4.7" height="31"/>
	</g>
	<g>
		<rect x="222.5" y="10.1" fill="#333333" width="4.7" height="31"/>
	</g>
	<g>
		<rect x="213.2" y="10.1" fill="#333333" width="4.6" height="31"/>
	</g>
	<g>
		
			<rect x="194" y="27.1" transform="matrix(-0.4921 0.8706 -0.8706 -0.4921 333.3863 -135.6062)" fill="#333333" width="24.5" height="4.7"/>
	</g>
</g>
<g opacity="0.5">
	<path fill="#333333" d="M455.8,464.3l-2.6-2.6c-0.5,4.6-4.3,8.3-8.9,8.8l2.6,2.6C451.1,471.8,454.5,468.5,455.8,464.3"/>
	<path fill="#333333" d="M430.8,457l2.6,2.6c0.4-4.7,4.1-8.4,8.8-8.9l-2.6-2.6C435.3,449.3,432,452.7,430.8,457"/>
	<path fill="#333333" d="M438,446.5l-2.3-2.3c-3.9,1.8-7,5-8.8,8.9l2.4,2.4C430.7,451.3,433.9,448,438,446.5"/>
	<path fill="#333333" d="M448.5,474.7l2.4,2.4c3.9-1.8,7-4.9,8.9-8.8l-2.3-2.3C455.8,470,452.6,473.2,448.5,474.7"/>
	<path fill="#333333" d="M433.4,461.7l-2.6,2.6c1.3,4.2,4.6,7.6,8.9,8.8l2.6-2.6C437.7,470,434,466.3,433.4,461.7"/>
	<path fill="#333333" d="M453.2,459.6l2.6-2.6c-1.2-4.3-4.5-7.6-8.8-8.9l-2.6,2.6C449.1,451.2,452.8,454.9,453.2,459.6"/>
	<path fill="#333333" d="M457.4,455.3l2.4-2.4c-1.8-3.9-4.9-7-8.8-8.9l-2.3,2.3C452.7,448,455.9,451.3,457.4,455.3"/>
	<path fill="#333333" d="M429.2,465.9l-2.3,2.3c1.8,3.9,5,7,8.9,8.8l2.4-2.4C434,473.2,430.8,470,429.2,465.9"/>
	<path fill="#333333" d="M443.3,458.5c-1.1,0-2,0.9-2,2c0,1.1,0.9,2,2,2c1.1,0,2-0.9,2-2C445.3,459.4,444.4,458.5,443.3,458.5"/>
	<path fill="#333333" d="M438.9,460.5c0-2.4,2-4.4,4.4-4.4c2.4,0,4.4,2,4.4,4.4c0,2.4-2,4.4-4.4,4.4
		C440.9,464.9,438.9,462.9,438.9,460.5 M450.5,462.3c0.1-0.6,0.2-1.1,0.2-1.7c0-0.5-0.1-1-0.1-1.4c-0.6-3-2.9-5.3-5.9-5.9
		c-0.5-0.1-0.9-0.1-1.4-0.1c-0.5,0-1,0.1-1.4,0.1c-3,0.6-5.3,2.9-5.9,5.9c-0.1,0.5-0.1,0.9-0.1,1.4c0,0.6,0.1,1.2,0.2,1.7
		c0.6,2.7,2.8,4.9,5.5,5.5c0.5,0.1,1.1,0.2,1.7,0.2c0.6,0,1.2-0.1,1.7-0.2C447.7,467.1,449.9,465,450.5,462.3"/>
</g>
<g opacity="0.5">
	<g>
		
			<rect x="0.6" y="454" transform="matrix(-0.7071 -0.7071 0.7071 -0.7071 -280.5385 798.7184)" fill="#323232" width="49" height="6.9"/>
	</g>
	<g>
		
			<rect x="0.6" y="454" transform="matrix(0.7071 -0.7071 0.7071 0.7071 -316.1142 151.7861)" fill="#323232" width="49" height="6.9"/>
	</g>
</g>
<g opacity="0.5">
	<path fill="#323232" d="M123.1,473v-8.9h-6.6v-22.1H150v22.1h-17.9L123.1,473z M119.8,460.6h6.6v4.2l4.3-4.2h15.9v-15.2h-26.8
		V460.6z"/>
</g>
<g>
	<g>
		<rect x="2.8" y="361.2" fill="#333333" width="43.1" height="3.8"/>
	</g>
	<g>
		<rect x="22.4" y="341.1" fill="#333333" width="3.9" height="22.1"/>
	</g>
	<g>
		
			<rect x="27.9" y="342.5" transform="matrix(0.8659 0.5002 -0.5002 0.8659 180.8587 32.4528)" fill="#333333" width="3.9" height="22.1"/>
	</g>
	<g>
		
			<rect x="32" y="346.6" transform="matrix(0.4995 0.8663 -0.8663 0.4995 326.7629 149.564)" fill="#333333" width="3.9" height="22.1"/>
	</g>
	<g>
		<rect x="7.8" y="351.6" transform="matrix(0.5 0.866 -0.866 0.5 315.6184 160.438)" fill="#333333" width="22.1" height="3.9"/>
	</g>
	<g>
		
			<rect x="3.8" y="355.6" transform="matrix(0.866 0.5001 -0.5001 0.866 180.7975 40.4997)" fill="#333333" width="22.1" height="3.9"/>
	</g>
</g>
<g>
	<g>
		<rect x="17" y="135" fill="#333333" width="4.8" height="16.5"/>
	</g>
	<g>
		<rect x="11" y="149.1" fill="#333333" width="16.6" height="4.8"/>
	</g>
	<g>
		<rect x="11" y="156.3" fill="#333333" width="16.6" height="4.8"/>
	</g>
	<g>
		<path fill="#333333" d="M19.4,110.1c-10.4,0-19,8.5-19,19c0,8.4,5.5,15.5,13,18v-5.1c-4.8-2.3-8.3-7.2-8.3-12.9
			c0-7.8,6.4-14.2,14.2-14.2c7.8,0,14.1,6.4,14.1,14.2c0,5.7-3.3,10.7-8.4,12.9v5.1c7.6-2.5,13.1-9.6,13.1-18
			C38.3,118.6,29.8,110.1,19.4,110.1z"/>
	</g>
</g>
<g>
	<polygon fill="#333333" points="121.1,368.6 117.8,368.6 117.8,357.2 127.5,357.2 127.5,347.6 137.2,347.6 137.2,337.9 
		148.5,337.9 148.5,341.2 140.4,341.2 140.4,350.8 130.7,350.8 130.7,360.5 121.1,360.5 	"/>
</g>
<g>
	<g>
		<path fill="#333333" d="M133.9,153.3c-9.7,0-17.5-7.9-17.5-17.5c0-9.7,7.9-17.5,17.5-17.5c9.7,0,17.5,7.9,17.5,17.5
			C151.4,145.4,143.5,153.3,133.9,153.3z M133.9,120.5c-8.4,0-15.2,6.8-15.2,15.2c0,8.4,6.8,15.2,15.2,15.2
			c8.4,0,15.2-6.8,15.2-15.2C149.1,127.4,142.3,120.5,133.9,120.5z"/>
	</g>
	<g>
		<path fill="#333333" d="M133.9,153.1l-0.6-0.4c-2.5-1.7-4.7-4.1-6.2-7.1c-1.5-3-2.3-6.4-2.3-9.9c0-3.5,0.8-6.9,2.3-9.9
			c1.5-2.9,3.6-5.4,6.2-7.1l0.6-0.4l0.6,0.4c2.5,1.7,4.7,4.1,6.2,7.1c1.5,3,2.3,6.4,2.3,9.9c0,3.5-0.8,6.9-2.3,9.9
			c-1.5,2.9-3.6,5.4-6.2,7.1L133.9,153.1z M133.9,121.2c-4.2,3.2-6.8,8.7-6.8,14.5c0,5.9,2.6,11.4,6.8,14.5
			c4.2-3.2,6.8-8.7,6.8-14.5C140.7,129.9,138.1,124.4,133.9,121.2z"/>
	</g>
	<g>
		<path fill="#333333" d="M133.9,130.4c-5.4,0-10.4-1.6-13.2-4.4l1.6-1.6c2.3,2.3,6.8,3.7,11.5,3.7c4.8,0,9.2-1.4,11.5-3.7l1.6,1.6
			C144.3,128.7,139.3,130.4,133.9,130.4z"/>
	</g>
	<g>
		<path fill="#333333" d="M145.4,147.2c-2.3-2.3-6.8-3.7-11.5-3.7c-4.8,0-9.2,1.4-11.5,3.7l-1.6-1.6c2.8-2.8,7.7-4.4,13.2-4.4
			c5.4,0,10.4,1.6,13.2,4.4L145.4,147.2z"/>
	</g>
	<g>
		<rect x="117.5" y="134.6" fill="#333333" width="32.7" height="2.3"/>
	</g>
</g>
<g>
	<g>
		<rect x="427.3" y="127.9" fill="#333333" width="4" height="23.6"/>
	</g>
	<g>
		<circle fill="#333333" cx="429.3" cy="123" r="3"/>
	</g>
	<g>
		<rect x="436.3" y="133" fill="#333333" width="4" height="18.5"/>
	</g>
	<g>
		<circle fill="#333333" cx="438.2" cy="128.1" r="3"/>
	</g>
	<g>
		<rect x="445.2" y="127.9" fill="#333333" width="4" height="23.6"/>
	</g>
	<g>
		<circle fill="#333333" cx="447.2" cy="123" r="3"/>
	</g>
	<g>
		<rect x="454.1" y="133" fill="#333333" width="4" height="18.5"/>
	</g>
	<g>
		<circle fill="#333333" cx="456.1" cy="128.1" r="3"/>
	</g>
</g>
<g>
	<g>
		<path fill="#333333" d="M331.6,157.2c-7,0-13.3-2.8-18.1-7.8l-0.5-0.7v-13.8h4.5v11.9c3.8,3.7,9,5.8,14.4,5.8
			c5.4,0,10.5-2,14.4-5.8v-11.9h4.3v13.8l-0.7,0.7C345.1,154.4,338.6,157.2,331.6,157.2z"/>
	</g>
	<g>
		<path fill="#333333" d="M331.6,146L300,130.1l31.6-15.9l31.6,15.9L331.6,146z M310.2,130.1l21.5,10.8l21.5-10.8l-21.5-10.8
			L310.2,130.1z"/>
	</g>
</g>
<g>
	<g>
		
			<rect x="298.9" y="351" transform="matrix(-0.7071 0.7071 -0.7071 -0.7071 790.4303 378.4112)" fill="#333333" width="35.8" height="3.9"/>
	</g>
	<g>
		<polygon fill="#333333" points="319.2,337.8 332,337.8 332,350.5 328.2,350.5 328.2,341.7 319.2,341.7 		"/>
	</g>
	<g>
		<polygon fill="#333333" points="332,368.6 301.2,368.6 301.2,337.8 305,337.8 305,364.8 332,364.8 		"/>
	</g>
</g>
<g>
	<g>
		<polygon fill="#333333" points="216.8,360.4 207.9,351.5 210.9,348.5 216.8,354.4 234.3,336.9 237.3,339.9 		"/>
	</g>
	<g>
		<path fill="#333333" d="M229.4,351.5c0.1,0.5,0.1,1.1,0.1,1.6c0,7-5.7,12.7-12.7,12.7c-7,0-12.7-5.7-12.7-12.7
			c0-7,5.7-12.7,12.7-12.7c2.9,0,5.5,1,7.6,2.6l3-3c-2.9-2.4-6.6-3.8-10.6-3.8c-9.3,0-16.9,7.6-16.9,16.9c0,9.3,7.6,16.9,16.9,16.9
			c9.3,0,16.9-7.6,16.9-16.9c0-1.8-0.3-3.5-0.8-5.2L229.4,351.5z"/>
	</g>
</g>
<g>
	<g>
		<g>
			<rect x="430.8" y="351.6" fill="#333333" width="3.6" height="18.9"/>
		</g>
		<g>
			<rect x="438.4" y="351.6" fill="#333333" width="3.6" height="18.9"/>
		</g>
		<g>
			<rect x="445.9" y="351.6" fill="#333333" width="3.6" height="18.9"/>
		</g>
		<g>
			<rect x="453.5" y="351.6" fill="#333333" width="3.6" height="18.9"/>
		</g>
	</g>
	<g>
		<polygon fill="#333333" points="463.2,350.8 444,345.2 424.8,350.8 424.8,347 444,341.4 463.2,347 		"/>
	</g>
	<g>
		<rect x="424.8" y="368.7" fill="#333333" width="38.4" height="3.6"/>
	</g>
	<g>
		<polygon fill="#333333" points="445.8,343.3 442.2,343.3 442.2,333.7 449.6,333.7 449.6,337.4 445.8,337.4 		"/>
	</g>
</g>
<g>
	<g>
		<path fill="#323232" d="M214.8,586.9c-9,0-16.3-7.3-16.3-16.3c0-9,7.3-16.3,16.3-16.3c9,0,16.3,7.3,16.3,16.3
			C231.1,579.6,223.8,586.9,214.8,586.9z M214.8,556.6c-7.7,0-13.9,6.2-13.9,13.9s6.2,13.9,13.9,13.9c7.7,0,13.9-6.2,13.9-13.9
			S222.5,556.6,214.8,556.6z"/>
	</g>
	<g>
		<path fill="#323232" d="M214.8,574.8c-2.3,0-4.2-1.9-4.2-4.2c0-2.3,1.9-4.2,4.2-4.2c2.3,0,4.2,1.9,4.2,4.2
			C219,572.9,217.1,574.8,214.8,574.8z M214.8,568.7c-1,0-1.8,0.8-1.8,1.8c0,1,0.8,1.8,1.8,1.8c1,0,1.8-0.8,1.8-1.8
			C216.7,569.6,215.8,568.7,214.8,568.7z"/>
	</g>
	<g>
		<path fill="#323232" d="M214.8,580.8c-5.7,0-10.2-4.6-10.2-10.2c0-5.6,4.6-10.2,10.2-10.2c5.6,0,10.2,4.6,10.2,10.2
			C225.1,576.2,220.5,580.8,214.8,580.8z M214.8,562.7c-4.3,0-7.9,3.5-7.9,7.9c0,4.3,3.5,7.9,7.9,7.9c4.3,0,7.9-3.5,7.9-7.9
			C222.7,566.2,219.2,562.7,214.8,562.7z"/>
	</g>
</g>
<g>
	<g>
		<g>
			<rect x="310.2" y="567.3" fill="#333333" width="15.8" height="2.2"/>
		</g>
	</g>
	<g>
		<g>
			<rect x="310.2" y="571.8" fill="#333333" width="10.7" height="2.2"/>
		</g>
	</g>
	<g>
		<g>
			<path fill="#333333" d="M325.8,572c0.5,0.5,0.5,1.3,0,1.8c-0.5,0.5-1.3,0.5-1.8,0c-0.5-0.5-0.5-1.3,0-1.8
				C324.5,571.5,325.3,571.5,325.8,572"/>
		</g>
	</g>
	<g>
		<g>
			<g>
				<path fill="#333333" d="M318.5,586.9c-9,0-16.3-7.3-16.3-16.3c0-9,7.3-16.3,16.3-16.3c9,0,16.3,7.3,16.3,16.3
					C334.8,579.6,327.5,586.9,318.5,586.9z M318.5,557.2c-7.3,0-13.3,6-13.3,13.3c0,7.4,6,13.3,13.3,13.3c7.4,0,13.3-6,13.3-13.3
					C331.8,563.2,325.8,557.2,318.5,557.2z"/>
			</g>
		</g>
	</g>
</g>
<g>
	<g>
		<rect x="231.9" y="120.1" fill="#333333" width="4.7" height="31"/>
	</g>
	<g>
		<rect x="222.5" y="120.1" fill="#333333" width="4.7" height="31"/>
	</g>
	<g>
		<rect x="213.2" y="120.1" fill="#333333" width="4.6" height="31"/>
	</g>
	<g>
		
			<rect x="194" y="137.1" transform="matrix(-0.4921 0.8706 -0.8706 -0.4921 429.1471 28.522)" fill="#333333" width="24.5" height="4.7"/>
	</g>
</g>
<g>
	<path fill="#333333" d="M455.8,574.3l-2.6-2.6c-0.5,4.6-4.3,8.3-8.9,8.8l2.6,2.6C451.1,581.8,454.5,578.5,455.8,574.3"/>
	<path fill="#333333" d="M430.8,567l2.6,2.6c0.4-4.7,4.1-8.4,8.8-8.9l-2.6-2.6C435.3,559.3,432,562.7,430.8,567"/>
	<path fill="#333333" d="M438,556.5l-2.3-2.3c-3.9,1.8-7,5-8.8,8.9l2.4,2.4C430.7,561.3,433.9,558,438,556.5"/>
	<path fill="#333333" d="M448.5,584.7l2.4,2.4c3.9-1.8,7-4.9,8.9-8.8l-2.3-2.3C455.8,580,452.6,583.2,448.5,584.7"/>
	<path fill="#333333" d="M433.4,571.7l-2.6,2.6c1.3,4.2,4.6,7.6,8.9,8.8l2.6-2.6C437.7,580,434,576.3,433.4,571.7"/>
	<path fill="#333333" d="M453.2,569.6l2.6-2.6c-1.2-4.3-4.5-7.6-8.8-8.9l-2.6,2.6C449.1,561.2,452.8,564.9,453.2,569.6"/>
	<path fill="#333333" d="M457.4,565.3l2.4-2.4c-1.8-3.9-4.9-7-8.8-8.9l-2.3,2.3C452.7,558,455.9,561.3,457.4,565.3"/>
	<path fill="#333333" d="M429.2,575.9l-2.3,2.3c1.8,3.9,5,7,8.9,8.8l2.4-2.4C434,583.2,430.8,580,429.2,575.9"/>
	<path fill="#333333" d="M443.3,568.5c-1.1,0-2,0.9-2,2c0,1.1,0.9,2,2,2c1.1,0,2-0.9,2-2C445.3,569.4,444.4,568.5,443.3,568.5"/>
	<path fill="#333333" d="M438.9,570.5c0-2.4,2-4.4,4.4-4.4c2.4,0,4.4,2,4.4,4.4c0,2.4-2,4.4-4.4,4.4
		C440.9,574.9,438.9,572.9,438.9,570.5 M450.5,572.3c0.1-0.6,0.2-1.1,0.2-1.7c0-0.5-0.1-1-0.1-1.4c-0.6-3-2.9-5.3-5.9-5.9
		c-0.5-0.1-0.9-0.1-1.4-0.1c-0.5,0-1,0.1-1.4,0.1c-3,0.6-5.3,2.9-5.9,5.9c-0.1,0.5-0.1,0.9-0.1,1.4c0,0.6,0.1,1.2,0.2,1.7
		c0.6,2.7,2.8,4.9,5.5,5.5c0.5,0.1,1.1,0.2,1.7,0.2c0.6,0,1.2-0.1,1.7-0.2C447.7,577.1,449.9,575,450.5,572.3"/>
</g>
<g>
	<g>
		
			<rect x="0.6" y="564" transform="matrix(-0.7071 -0.7071 0.7071 -0.7071 -358.3236 986.4968)" fill="#323232" width="49" height="6.9"/>
	</g>
	<g>
		
			<rect x="0.6" y="564" transform="matrix(0.7071 -0.7071 0.7071 0.7071 -393.8976 184.0061)" fill="#323232" width="49" height="6.9"/>
	</g>
</g>
<g>
	<path fill="#323232" d="M123.1,583v-8.9h-6.6v-22.1H150v22.1h-17.9L123.1,583z M119.8,570.6h6.6v4.2l4.3-4.2h15.9v-15.2h-26.8
		V570.6z"/>
</g>
</svg>
