<?xml version="1.0" encoding="utf-8"?>
<!-- Generator: Adobe Illustrator 17.1.0, SVG Export Plug-In . SVG Version: 6.00 Build 0)  -->
<!DOCTYPE svg PUBLIC "-//W3C//DTD SVG 1.1//EN" "http://www.w3.org/Graphics/SVG/1.1/DTD/svg11.dtd">
<svg version="1.1" id="Layer_1" xmlns="http://www.w3.org/2000/svg" xmlns:xlink="http://www.w3.org/1999/xlink" x="0px" y="0px"
	 viewBox="0 0 32 32" enable-background="new 0 0 32 32" xml:space="preserve">
<g>
	<g>
		<rect x="8" y="19.5" fill="#FFFAEF" width="16" height="2.2"/>
		<rect x="8" y="14.9" fill="#FFFAEF" width="16" height="2.3"/>
		<rect x="12" y="10.4" fill="#FFFAEF" width="12" height="2.3"/>
		<circle fill="#FFFAEF" cx="9.3" cy="11.5" r="1.3"/>
	</g>
	<path fill="#FFFAEF" d="M16,3.6c6.8,0,12.4,5.5,12.4,12.4S22.8,28.4,16,28.4S3.6,22.8,3.6,16S9.2,3.6,16,3.6 M16,1.1
		C7.8,1.1,1.1,7.8,1.1,16c0,8.2,6.7,14.9,14.9,14.9c8.2,0,14.9-6.7,14.9-14.9C30.9,7.8,24.2,1.1,16,1.1L16,1.1z"/>
</g>
</svg>
