<?xml version="1.0" encoding="utf-8"?>
<!-- Generator: Adobe Illustrator 17.1.0, SVG Export Plug-In . SVG Version: 6.00 Build 0)  -->
<!DOCTYPE svg PUBLIC "-//W3C//DTD SVG 1.1//EN" "http://www.w3.org/Graphics/SVG/1.1/DTD/svg11.dtd">
<svg version="1.1" id="Layer_1" xmlns="http://www.w3.org/2000/svg" xmlns:xlink="http://www.w3.org/1999/xlink" x="0px" y="0px"
	 viewBox="85 -1 110 300" enable-background="new 85 -1 110 300" xml:space="preserve">
<defs>
</defs>
<g class="start">
	<g>
		<g>
			<rect x="114.8" y="39.2" fill="#fffaef" width="50" height="7.4"/>
		</g>
	</g>
	<g>
		<g>
			<rect x="114.8" y="53.9" fill="#fffaef" width="33.6" height="7.4"/>
		</g>
	</g>
	<g>
		<g>
			<path fill="#fffaef" d="M164.8,54.7c1.6,1.6,1.6,4.1,0,5.7s-4.1,1.6-5.7,0s-1.6-4.1,0-5.7C160.7,53.1,163.1,53.1,164.8,54.7"/>
		</g>
	</g>
	<g>
		<g>
			<g>
				<path fill="#fffaef" d="M141,102.3c-28.7,0-51.6-23-51.6-51.6S112.3-1,141-1s51.6,23,51.6,51.6S169.7,102.3,141,102.3z M141,7.2
					c-23,0-42.6,19.7-42.6,42.6c0,23.8,19.7,42.6,42.6,42.6c23.8,0,42.6-19.7,42.6-42.6S164.8,7.2,141,7.2z"/>
			</g>
		</g>
	</g>
</g>
</svg>
