<!-- Generator: Adobe Illustrator 17.1.0, SVG Export Plug-In  -->
<svg version="1.1"
	 xmlns="http://www.w3.org/2000/svg" xmlns:xlink="http://www.w3.org/1999/xlink" xmlns:a="http://ns.adobe.com/AdobeSVGViewerExtensions/3.0/"
	 x="0px" y="0px" width="108.4px" height="31.3px" viewBox="0 0 108.4 31.3" enable-background="new 0 0 108.4 31.3"
	 xml:space="preserve">
<defs>
</defs>
<g>
	<g>
		<path fill="#FFFBEF" d="M43.1,9.8h-4l-1,3h-3l4.4-12.6h3.2l4.7,12.6h-3.2L43.1,9.8z M40,7.3h2.2l-1.1-3.2L40,7.3z"/>
		<path fill="#FFFBEF" d="M51.7,4.8l1.6,0.6c1.6,0.7,2.6,1.8,2.6,3.6c0,2.5-1.8,4-4.3,4c-3.6,0-4.3-2.3-4.1-4.2h2.9
			c0,0.8,0.3,1.6,1.3,1.6c0.7,0,1.2-0.4,1.2-1.1c0-0.7-0.5-1.1-1.3-1.4c-0.6-0.3-1.3-0.5-2-0.8c-1.3-0.7-1.9-1.9-1.9-3.4
			c0-2.2,1.6-3.7,4.1-3.7c3,0,4,1.7,3.9,3.9h-2.8c0-0.8-0.4-1.3-1.1-1.3c-0.7,0-1,0.4-1,0.9C50.5,4.1,50.8,4.4,51.7,4.8z"/>
		<path fill="#FFFBEF" d="M60.8,4.8l1.6,0.6C64,6.1,65,7.2,65,9c0,2.5-1.8,4-4.3,4c-3.6,0-4.3-2.3-4.1-4.2h2.9
			c0,0.8,0.3,1.6,1.3,1.6c0.7,0,1.2-0.4,1.2-1.1c0-0.7-0.5-1.1-1.3-1.4c-0.6-0.3-1.3-0.5-2-0.8c-1.3-0.7-1.9-1.9-1.9-3.4
			c0-2.2,1.6-3.7,4.1-3.7c3,0,4,1.7,3.9,3.9h-2.8c0-0.8-0.4-1.3-1.1-1.3c-0.7,0-1,0.4-1,0.9C59.7,4.1,60,4.4,60.8,4.8z"/>
		<path fill="#FFFBEF" d="M66.1,12.8V0.2h6v2.8h-2.9V5H72v2.8h-2.8V10h3v2.8H66.1z"/>
		<path fill="#FFFBEF" d="M78.1,3.1v9.8h-3V3.1H73V0.2h7.2v2.8H78.1z"/>
		<path fill="#FFFBEF" d="M40.6,31H36V18.4h4.3c2.6,0,3.9,1.3,3.9,3.5c0,1.1-0.5,2.1-1.3,2.5c1,0.5,1.5,1.4,1.5,2.9
			C44.4,29.6,42.9,31,40.6,31z M39,21v2.3h1c0.6,0,1.1-0.4,1.1-1.1c0-0.7-0.4-1.1-1.1-1.1H39z M39,25.9v2.5h1.1
			c0.7,0,1.2-0.5,1.2-1.3c0-0.8-0.5-1.2-1.2-1.2H39z"/>
		<path fill="#FFFBEF" d="M45.4,26v-7.6h3V26c0,1.4,0.7,2.4,2.2,2.4c1.4,0,2.1-1,2.1-2.4v-7.5h3V26c0,3-1.7,5.3-5.2,5.3
			C47.1,31.3,45.4,29.1,45.4,26z"/>
		<path fill="#FFFBEF" d="M60.3,31h-3V18.4h3V31z"/>
		<path fill="#FFFBEF" d="M61.9,31V18.4h3v9.8h2.9V31H61.9z"/>
		<path fill="#FFFBEF" d="M71.8,18.4c4.2,0,6.7,2.3,6.7,6.3c0,3.9-2.5,6.3-6.7,6.3h-2.9V18.4H71.8z M71.9,28.3c2,0,3.4-1.2,3.4-3.6
			c0-2.4-1.3-3.6-3.4-3.6V28.3z"/>
		<path fill="#FFFBEF" d="M82.6,31h-3V18.4h3V31z"/>
		<path fill="#FFFBEF" d="M87.1,23.6V31h-2.9V18.4h3.1L92,26v-7.6h2.9V31h-3L87.1,23.6z"/>
		<path fill="#FFFBEF" d="M108.4,31h-2.9v-0.6c-0.6,0.5-1.5,0.8-2.9,0.8c-3.9,0-6.5-2.6-6.5-6.5c0-3.5,2.5-6.5,6.5-6.5
			c2.7,0,4.4,1.2,5.3,2.7l-2.4,1.7c-0.5-0.7-1.4-1.5-3-1.5c-2,0-3.3,1.5-3.3,3.7c0,2.3,1.5,3.7,3.5,3.7c1.4,0,2.3-0.6,2.7-1v-0.9
			h-1.9v-2.5h4.9V31z"/>
	</g>
	<g>
		<polygon fill="#FFFBEF" points="3.3,31 0,31 0,19.7 9.7,19.7 9.7,10.1 19.4,10.1 19.4,0.4 30.7,0.4 30.7,3.7 22.6,3.7 22.6,13.3 
			12.9,13.3 12.9,23 3.3,23 		"/>
	</g>
</g>
</svg>
