<!-- Generator: Adobe Illustrator 17.1.0, SVG Export Plug-In  -->
<svg version="1.1"
	 xmlns="http://www.w3.org/2000/svg" xmlns:xlink="http://www.w3.org/1999/xlink" xmlns:a="http://ns.adobe.com/AdobeSVGViewerExtensions/3.0/"
	 x="0px" y="0px" width="165.3px" height="31.5px" viewBox="0 0 165.3 31.5" enable-background="new 0 0 165.3 31.5"
	 xml:space="preserve">
<defs>
</defs>
<g>
	<g>
		<path fill="#FFFBEF" d="M44.9,13h-4.6V0.4h4.3c2.6,0,3.9,1.3,3.9,3.5c0,1.1-0.5,2.1-1.3,2.5c1,0.5,1.5,1.4,1.5,2.9
			C48.7,11.6,47.2,13,44.9,13z M43.3,3v2.3h1c0.6,0,1.1-0.4,1.1-1.1C45.4,3.4,45,3,44.3,3H43.3z M43.3,7.9v2.5h1.1
			c0.7,0,1.2-0.5,1.2-1.3c0-0.8-0.5-1.2-1.2-1.2H43.3z"/>
		<path fill="#FFFBEF" d="M56.5,7.2l2.9,5.7h-3.3l-2.5-5.2h-0.8V13h-3V0.4h4.3c2.6,0,4,1.4,4,3.7C58.1,5.5,57.5,6.6,56.5,7.2z
			 M52.8,3v2.3h1.1c0.7,0,1.1-0.5,1.1-1.2C55,3.5,54.5,3,53.9,3H52.8z"/>
		<path fill="#FFFBEF" d="M59.8,13V0.4h6v2.8h-2.9v1.9h2.8V8h-2.8v2.2h3V13H59.8z"/>
		<path fill="#FFFBEF" d="M74.2,10h-4l-1,3h-3l4.4-12.6h3.2L78.5,13h-3.2L74.2,10z M71.1,7.4h2.2l-1.1-3.2L71.1,7.4z"/>
		<path fill="#FFFBEF" d="M82,0.4c4.2,0,6.7,2.3,6.7,6.3c0,3.9-2.5,6.3-6.7,6.3h-2.9V0.4H82z M82.1,10.3c2,0,3.4-1.2,3.4-3.6
			c0-2.4-1.3-3.6-3.4-3.6V10.3z"/>
		<path fill="#FFFBEF" d="M97.5,5.1L95.3,13h-3.5L88.3,0.4h3.3L93.7,9l2.2-8.6h3.3l2.2,8.6l2.1-8.6h3.1L103.2,13h-3.6L97.5,5.1z"/>
		<path fill="#FFFBEF" d="M110.3,13h-3V0.4h3V13z"/>
		<path fill="#FFFBEF" d="M114.7,5.5V13h-2.9V0.4h3.1l4.7,7.6V0.4h2.9V13h-3L114.7,5.5z"/>
		<path fill="#FFFBEF" d="M127.1,5.5V13h-2.9V0.4h3.1L132,8V0.4h2.9V13h-3L127.1,5.5z"/>
		<path fill="#FFFBEF" d="M139.5,13h-3V0.4h3V13z"/>
		<path fill="#FFFBEF" d="M144,5.5V13h-2.9V0.4h3.1l4.7,7.6V0.4h2.9V13h-3L144,5.5z"/>
		<path fill="#FFFBEF" d="M165.3,13h-2.9v-0.6c-0.6,0.5-1.5,0.8-2.9,0.8c-3.9,0-6.5-2.6-6.5-6.5c0-3.5,2.5-6.5,6.5-6.5
			c2.7,0,4.4,1.2,5.3,2.7l-2.4,1.7c-0.5-0.7-1.4-1.5-3-1.5c-2,0-3.3,1.5-3.3,3.7c0,2.3,1.5,3.7,3.5,3.7c1.4,0,2.3-0.6,2.7-1V8.5
			h-1.9V6h4.9V13z"/>
		<path fill="#FFFBEF" d="M48.2,30.5c-0.9,0.5-1.9,0.9-3.2,0.9c-3.3,0-5.1-1.7-5.1-4c0-1.5,0.7-2.7,2-3.4c-0.5-0.6-0.8-1.3-0.8-2.2
			c0-1.9,1.5-3.4,3.8-3.4c2.5,0,3.9,1.5,3.9,3.4c0,1.7-1.1,2.7-2.3,3l1.5,1.6c0.1-0.6,0.2-1.3,0.2-1.9h2.9c0.1,1.6-0.2,3-0.9,4.1
			l2.5,2.6h-3.7L48.2,30.5z M46.2,28.5l-2.7-2.8c-0.3,0.3-0.6,0.7-0.6,1.2c0,1.1,0.9,1.8,2.1,1.8C45.5,28.7,45.9,28.6,46.2,28.5z
			 M44.9,22.9c0.6,0,1.1-0.5,1.1-1.1c0-0.6-0.5-1-1.1-1c-0.6,0-1.1,0.5-1.1,1.1C43.8,22.5,44.3,22.9,44.9,22.9z"/>
		<path fill="#FFFBEF" d="M66,29.8c-1.1,1-2.4,1.6-4.2,1.6c-4.2,0-6.7-2.8-6.7-6.5c0-3.6,2.6-6.5,6.6-6.5c1.9,0,3.3,0.6,4.3,1.5
			l-1.8,2.3c-0.5-0.4-1.3-0.9-2.4-0.9c-2.2,0-3.5,1.6-3.5,3.7c0,2.1,1.4,3.7,3.5,3.7c1.1,0,1.9-0.5,2.4-0.9L66,29.8z"/>
		<path fill="#FFFBEF" d="M74,28.2h-4l-1,3h-3l4.4-12.6h3.2l4.7,12.6H75L74,28.2z M70.9,25.6h2.2L72,22.4L70.9,25.6z"/>
		<path fill="#FFFBEF" d="M85.5,25.4l2.9,5.7h-3.3L82.7,26h-0.8v5.2h-3V18.6h4.3c2.6,0,4,1.4,4,3.7C87.1,23.7,86.5,24.8,85.5,25.4z
			 M81.8,21.2v2.3h1.1c0.7,0,1.1-0.5,1.1-1.2c0-0.7-0.4-1.1-1.1-1.1H81.8z"/>
		<path fill="#FFFBEF" d="M88.8,31.2V18.6h6v2.8h-2.9v1.9h2.8v2.8h-2.8v2.2h3v2.8H88.8z"/>
		<path fill="#FFFBEF" d="M108.1,31.2h-2.9v-0.6c-0.6,0.5-1.5,0.8-2.9,0.8c-3.9,0-6.5-2.6-6.5-6.5c0-3.5,2.5-6.5,6.5-6.5
			c2.7,0,4.4,1.2,5.3,2.7l-2.4,1.7c-0.5-0.7-1.4-1.5-3-1.5c-2,0-3.3,1.5-3.3,3.7c0,2.3,1.5,3.7,3.5,3.7c1.4,0,2.3-0.6,2.7-1v-0.9
			h-1.9v-2.5h4.9V31.2z"/>
		<path fill="#FFFBEF" d="M112.6,31.2h-3V18.6h3V31.2z"/>
		<path fill="#FFFBEF" d="M113.1,18.6h3.4l2.9,8.8l2.9-8.8h3.2L121,31.2h-3.3L113.1,18.6z"/>
		<path fill="#FFFBEF" d="M129.3,31.2h-3V18.6h3V31.2z"/>
		<path fill="#FFFBEF" d="M133.8,23.7v7.4h-2.9V18.6h3.1l4.7,7.6v-7.6h2.9v12.6h-3L133.8,23.7z"/>
		<path fill="#FFFBEF" d="M155.1,31.2h-2.9v-0.6c-0.6,0.5-1.5,0.8-2.9,0.8c-3.9,0-6.5-2.6-6.5-6.5c0-3.5,2.5-6.5,6.5-6.5
			c2.7,0,4.4,1.2,5.4,2.7l-2.4,1.7c-0.5-0.7-1.4-1.5-3-1.5c-2,0-3.4,1.5-3.4,3.7c0,2.3,1.5,3.7,3.5,3.7c1.4,0,2.3-0.6,2.7-1v-0.9
			h-1.9v-2.5h4.9V31.2z"/>
	</g>
	<g>
		<g>
			<rect x="1" y="7.9" fill="#FFFBEF" width="4" height="23.6"/>
		</g>
		<g>
			<circle fill="#FFFBEF" cx="3" cy="3" r="3"/>
		</g>
		<g>
			<rect x="9.9" y="13" fill="#FFFBEF" width="4" height="18.5"/>
		</g>
		<g>
			<circle fill="#FFFBEF" cx="11.9" cy="8.1" r="3"/>
		</g>
		<g>
			<rect x="18.8" y="7.9" fill="#FFFBEF" width="4" height="23.6"/>
		</g>
		<g>
			<circle fill="#FFFBEF" cx="20.8" cy="3" r="3"/>
		</g>
		<g>
			<rect x="27.7" y="13" fill="#FFFBEF" width="4" height="18.5"/>
		</g>
		<g>
			<circle fill="#FFFBEF" cx="29.7" cy="8.1" r="3"/>
		</g>
	</g>
</g>
</svg>
