<!-- Generator: Adobe Illustrator 17.1.0, SVG Export Plug-In  -->
<svg version="1.1"
	 xmlns="http://www.w3.org/2000/svg" xmlns:xlink="http://www.w3.org/1999/xlink" xmlns:a="http://ns.adobe.com/AdobeSVGViewerExtensions/3.0/"
	 x="0px" y="0px" width="135.7px" height="31.4px" viewBox="0 0 135.7 31.4" enable-background="new 0 0 135.7 31.4"
	 xml:space="preserve">
<defs>
</defs>
<g>
	<g>
		<path fill="#FFFBEF" d="M46.7,13V0.4h6v2.8h-2.9v1.9h2.8V8h-2.8v2.2h3V13H46.7z"/>
		<path fill="#FFFBEF" d="M56.9,0.4c4.2,0,6.7,2.3,6.7,6.3c0,3.9-2.5,6.3-6.7,6.3H54V0.4H56.9z M57.1,10.3c2,0,3.4-1.2,3.4-3.6
			c0-2.4-1.3-3.6-3.4-3.6V10.3z"/>
		<path fill="#FFFBEF" d="M64.7,7.9V0.4h3v7.6c0,1.4,0.7,2.4,2.2,2.4c1.4,0,2.1-1,2.1-2.4V0.4h3v7.5c0,3-1.7,5.3-5.2,5.3
			C66.3,13.2,64.7,11.1,64.7,7.9z"/>
		<path fill="#FFFBEF" d="M87,11.6c-1.1,1-2.4,1.6-4.2,1.6c-4.2,0-6.7-2.8-6.7-6.5c0-3.6,2.6-6.5,6.6-6.5c1.9,0,3.3,0.6,4.3,1.5
			l-1.8,2.3C84.7,3.5,83.9,3,82.8,3c-2.2,0-3.5,1.6-3.5,3.7c0,2.1,1.4,3.7,3.5,3.7c1.1,0,1.9-0.5,2.4-0.9L87,11.6z"/>
		<path fill="#FFFBEF" d="M94.9,10h-4l-1,3h-3l4.4-12.6h3.2L99.2,13H96L94.9,10z M91.9,7.4h2.2L93,4.2L91.9,7.4z"/>
		<path fill="#FFFBEF" d="M103.3,3.2V13h-3V3.2h-2.1V0.4h7.2v2.8H103.3z"/>
		<path fill="#FFFBEF" d="M109.5,13h-3V0.4h3V13z"/>
		<path fill="#FFFBEF" d="M117.1,0.1c4.1,0,6.7,2.8,6.7,6.5c0,3.7-2.5,6.6-6.6,6.6c-4.1,0-6.6-2.8-6.6-6.5
			C110.6,3,113.2,0.1,117.1,0.1z M117.2,10.4c2.2,0,3.4-1.6,3.4-3.7c0-2.1-1.3-3.7-3.4-3.7c-2.2,0-3.4,1.6-3.4,3.7
			C113.8,8.7,115.1,10.4,117.2,10.4z"/>
		<path fill="#FFFBEF" d="M127.8,5.5V13h-2.9V0.4h3.1l4.7,7.6V0.4h2.9V13h-3L127.8,5.5z"/>
		<path fill="#FFFBEF" d="M51.1,26.1h-1.3v5h-3V18.6h4.3c2.6,0,4,1.4,4,3.7C55,24.7,53.5,26.1,51.1,26.1z M49.8,21.2v2.3h1.1
			c0.7,0,1.1-0.5,1.1-1.2c0-0.7-0.4-1.1-1.1-1.1H49.8z"/>
		<path fill="#FFFBEF" d="M62.1,18.3c4.1,0,6.7,2.8,6.7,6.5c0,3.7-2.5,6.6-6.6,6.6c-4.1,0-6.6-2.8-6.6-6.5
			C55.5,21.2,58.2,18.3,62.1,18.3z M62.1,28.6c2.2,0,3.4-1.6,3.4-3.7c0-2.1-1.3-3.7-3.4-3.7c-2.2,0-3.4,1.6-3.4,3.7
			C58.7,26.9,60,28.6,62.1,28.6z"/>
		<path fill="#FFFBEF" d="M69.8,31.2V18.6h3v9.8h2.9v2.8H69.8z"/>
		<path fill="#FFFBEF" d="M79.9,31.2h-3V18.6h3V31.2z"/>
		<path fill="#FFFBEF" d="M91.8,29.8c-1.1,1-2.4,1.6-4.2,1.6c-4.2,0-6.7-2.8-6.7-6.5c0-3.6,2.6-6.5,6.6-6.5c1.9,0,3.3,0.6,4.3,1.5
			l-1.8,2.3c-0.5-0.4-1.3-0.9-2.4-0.9c-2.2,0-3.5,1.6-3.5,3.7c0,2.1,1.4,3.7,3.5,3.7c1.1,0,1.9-0.5,2.4-0.9L91.8,29.8z"/>
		<path fill="#FFFBEF" d="M91.9,18.6h3.4L97,22l1.8-3.4h3.2l-3.6,6.3v6.2h-3V25L91.9,18.6z"/>
	</g>
	<g>
		<g>
			<rect x="33.7" y="0" fill="#FFFBEF" width="4.7" height="31"/>
		</g>
		<g>
			<rect x="24.4" y="0" fill="#FFFBEF" width="4.7" height="31"/>
		</g>
		<g>
			<rect x="15" y="0" fill="#FFFBEF" width="4.6" height="31"/>
		</g>
		<g>
			
				<rect x="-4.2" y="17" transform="matrix(-0.4921 0.8705 -0.8705 -0.4921 28.9549 21.9061)" fill="#FFFBEF" width="24.5" height="4.7"/>
		</g>
	</g>
</g>
</svg>
