<!-- Generator: Adobe Illustrator 17.1.0, SVG Export Plug-In  -->
<svg version="1.1"
	 xmlns="http://www.w3.org/2000/svg" xmlns:xlink="http://www.w3.org/1999/xlink" xmlns:a="http://ns.adobe.com/AdobeSVGViewerExtensions/3.0/"
	 x="0px" y="0px" width="147px" height="31px" viewBox="0 0 147 31" enable-background="new 0 0 147 31" xml:space="preserve">
<defs>
</defs>
<g>
	<g>
		<path fill="#FFFBEF" d="M44.2,5.2v7.4h-2.9V0h3.1l4.7,7.6V0H52v12.6h-3L44.2,5.2z"/>
		<path fill="#FFFBEF" d="M53.6,12.6V0h6v2.8h-2.9v1.9h2.8v2.8h-2.8v2.2h3v2.8H53.6z"/>
		<path fill="#FFFBEF" d="M69.2,4.7L67,12.6h-3.5L60,0h3.3l2.1,8.6L67.6,0h3.3l2.2,8.6L75.1,0h3.1l-3.4,12.6h-3.6L69.2,4.7z"/>
		<path fill="#FFFBEF" d="M48.3,27.8h-4l-1,3h-3l4.4-12.6H48l4.7,12.6h-3.2L48.3,27.8z M45.2,25.2h2.2l-1.1-3.2L45.2,25.2z"/>
		<path fill="#FFFBEF" d="M61.9,30.8H59L56,22v8.8h-2.8V18.2h4.5l2.8,8.5l2.8-8.5h4.5v12.6h-2.9V22L61.9,30.8z"/>
		<path fill="#FFFBEF" d="M69.3,30.8V18.2h6V21h-2.9V23h2.8v2.8h-2.8V28h3v2.8H69.3z"/>
		<path fill="#FFFBEF" d="M83.3,25.1l2.9,5.7h-3.3l-2.5-5.2h-0.8v5.2h-3V18.2h4.3c2.6,0,4,1.4,4,3.7C84.9,23.4,84.3,24.4,83.3,25.1z
			 M79.6,20.8v2.3h1.1c0.7,0,1.1-0.5,1.1-1.2c0-0.7-0.4-1.1-1.1-1.1H79.6z"/>
		<path fill="#FFFBEF" d="M89.7,30.8h-3V18.2h3V30.8z"/>
		<path fill="#FFFBEF" d="M101.6,29.4c-1.1,1-2.4,1.6-4.2,1.6c-4.2,0-6.7-2.8-6.7-6.5c0-3.6,2.6-6.5,6.6-6.5c1.9,0,3.3,0.6,4.3,1.5
			l-1.8,2.3c-0.5-0.4-1.3-0.9-2.4-0.9c-2.2,0-3.5,1.6-3.5,3.7c0,2.1,1.4,3.7,3.5,3.7c1.1,0,1.9-0.5,2.4-0.9L101.6,29.4z"/>
		<path fill="#FFFBEF" d="M109.6,27.8h-4l-1,3h-3l4.4-12.6h3.2l4.7,12.6h-3.2L109.6,27.8z M106.5,25.2h2.2l-1.1-3.2L106.5,25.2z"/>
		<path fill="#FFFBEF" d="M117.2,30.8V18.2h3V28h2.9v2.8H117.2z"/>
		<path fill="#FFFBEF" d="M127.2,30.8h-3V18.2h3V30.8z"/>
		<path fill="#FFFBEF" d="M127.8,18.2h3.4l2.9,8.8l2.9-8.8h3.2l-4.6,12.6h-3.3L127.8,18.2z"/>
		<path fill="#FFFBEF" d="M140.9,30.8V18.2h6V21H144V23h2.8v2.8H144V28h3v2.8H140.9z"/>
	</g>
	<g>
		<path fill="#FFFBEF" d="M6.6,31v-8.9H0V0h33.5v22.1H15.6L6.6,31z M3.4,18.7h6.6v4.2l4.3-4.2h15.9V3.5H3.4V18.7z"/>
	</g>
</g>
</svg>
