<!-- Generator: Adobe Illustrator 17.1.0, SVG Export Plug-In  -->
<svg version="1.1"
	 xmlns="http://www.w3.org/2000/svg" xmlns:xlink="http://www.w3.org/1999/xlink" xmlns:a="http://ns.adobe.com/AdobeSVGViewerExtensions/3.0/"
	 x="0px" y="0px" width="222.4px" height="38.9px" viewBox="0 0 222.4 38.9" enable-background="new 0 0 222.4 38.9"
	 xml:space="preserve">
<defs>
</defs>
<g>
	<g>
		<path fill="#FFFBEF" d="M54.7,20.5h-2.9l-3-8.8v8.8h-2.8V7.9h4.5l2.8,8.5l2.8-8.5h4.5v12.6h-2.9v-8.8L54.7,20.5z"/>
		<path fill="#FFFBEF" d="M69.2,17.5h-4l-1,3h-3l4.4-12.6h3.2l4.7,12.6h-3.2L69.2,17.5z M66.1,14.9h2.2l-1.1-3.2L66.1,14.9z"/>
		<path fill="#FFFBEF" d="M80.8,14.7l2.9,5.7h-3.3l-2.5-5.2h-0.8v5.2h-3V7.9h4.3c2.6,0,4,1.4,4,3.7C82.4,13,81.8,14.1,80.8,14.7z
			 M77.1,10.5v2.3h1.1c0.7,0,1.1-0.5,1.1-1.2c0-0.7-0.4-1.1-1.1-1.1H77.1z"/>
		<path fill="#FFFBEF" d="M87.1,12.8l3.4-4.9h3.5l-4.4,6l4.4,6.6h-3.5l-3.4-5.1v5.1h-3V7.9h3V12.8z"/>
		<path fill="#FFFBEF" d="M94.7,20.5V7.9h6v2.8h-2.9v1.9h2.8v2.8h-2.8v2.2h3v2.8H94.7z"/>
		<path fill="#FFFBEF" d="M106.7,10.7v9.8h-3v-9.8h-2.1V7.9h7.2v2.8H106.7z"/>
		<path fill="#FFFBEF" d="M113.5,12.4l1.6,0.6c1.6,0.7,2.6,1.8,2.6,3.6c0,2.5-1.8,4-4.3,4c-3.6,0-4.3-2.3-4.1-4.2h2.9
			c0,0.8,0.3,1.6,1.3,1.6c0.7,0,1.2-0.4,1.2-1.1c0-0.7-0.5-1.1-1.3-1.4c-0.6-0.3-1.3-0.5-2-0.8c-1.3-0.7-1.9-1.9-1.9-3.4
			c0-2.2,1.6-3.7,4.1-3.7c3,0,4,1.7,3.9,3.9h-2.8c0-0.8-0.4-1.3-1.1-1.3c-0.7,0-1,0.4-1,0.9C112.4,11.7,112.7,12.1,113.5,12.4z"/>
		<path fill="#FFFBEF" d="M119.6,20.5c-0.7-0.2-1.2-0.8-1.2-1.6c0-1,0.7-1.8,1.8-1.8c1.1,0,1.8,0.8,1.8,1.8c0,0.5-0.1,1-0.4,1.5
			l-1.1,2.1h-2L119.6,20.5z"/>
		<path fill="#FFFBEF" d="M125.7,20.5V7.9h6v2.8h-2.9v1.9h2.8v2.8h-2.8v2.2h3v2.8H125.7z"/>
		<path fill="#FFFBEF" d="M135.9,13v7.4H133V7.9h3.1l4.7,7.6V7.9h2.9v12.6h-3L135.9,13z"/>
		<path fill="#FFFBEF" d="M149.9,10.7v9.8h-3v-9.8h-2.1V7.9h7.2v2.8H149.9z"/>
		<path fill="#FFFBEF" d="M153,20.5V7.9h6v2.8h-2.9v1.9h2.8v2.8h-2.8v2.2h3v2.8H153z"/>
		<path fill="#FFFBEF" d="M167,14.7l2.9,5.7h-3.3l-2.5-5.2h-0.8v5.2h-3V7.9h4.3c2.6,0,4,1.4,4,3.7C168.6,13,168.1,14.1,167,14.7z
			 M163.4,10.5v2.3h1.1c0.7,0,1.1-0.5,1.1-1.2c0-0.7-0.4-1.1-1.1-1.1H163.4z"/>
		<path fill="#FFFBEF" d="M174.7,15.4h-1.3v5h-3V7.9h4.3c2.6,0,4,1.4,4,3.7C178.6,14,177.1,15.4,174.7,15.4z M173.4,10.5v2.3h1.1
			c0.7,0,1.1-0.5,1.1-1.2c0-0.7-0.4-1.1-1.1-1.1H173.4z"/>
		<path fill="#FFFBEF" d="M186.2,14.7l2.9,5.7h-3.3l-2.5-5.2h-0.8v5.2h-3V7.9h4.3c2.6,0,4,1.4,4,3.7C187.8,13,187.2,14.1,186.2,14.7
			z M182.5,10.5v2.3h1.1c0.7,0,1.1-0.5,1.1-1.2c0-0.7-0.4-1.1-1.1-1.1H182.5z"/>
		<path fill="#FFFBEF" d="M192.6,20.5h-3V7.9h3V20.5z"/>
		<path fill="#FFFBEF" d="M198,12.4l1.6,0.6c1.6,0.7,2.6,1.8,2.6,3.6c0,2.5-1.8,4-4.3,4c-3.6,0-4.3-2.3-4.1-4.2h2.9
			c0,0.8,0.3,1.6,1.3,1.6c0.7,0,1.2-0.4,1.2-1.1c0-0.7-0.5-1.1-1.3-1.4c-0.6-0.3-1.3-0.5-2-0.8c-1.3-0.7-1.9-1.9-1.9-3.4
			c0-2.2,1.6-3.7,4.1-3.7c3,0,4,1.7,3.9,3.9h-2.8c0-0.8-0.4-1.3-1.1-1.3c-0.7,0-1,0.4-1,0.9C196.8,11.7,197.1,12.1,198,12.4z"/>
		<path fill="#FFFBEF" d="M203.2,20.5V7.9h6v2.8h-2.9v1.9h2.8v2.8h-2.8v2.2h3v2.8H203.2z"/>
		<path fill="#FFFBEF" d="M53.9,38c-0.9,0.5-1.9,0.9-3.2,0.9c-3.3,0-5.1-1.7-5.1-4c0-1.5,0.7-2.7,2-3.4c-0.5-0.6-0.8-1.3-0.8-2.2
			c0-1.9,1.5-3.4,3.8-3.4c2.5,0,3.9,1.5,3.9,3.4c0,1.7-1.1,2.7-2.3,3l1.5,1.6c0.1-0.6,0.2-1.3,0.2-1.9h2.9c0.1,1.6-0.2,3-0.9,4.1
			l2.5,2.6h-3.7L53.9,38z M52,36l-2.7-2.8c-0.3,0.3-0.6,0.7-0.6,1.2c0,1.1,0.9,1.8,2.1,1.8C51.2,36.2,51.7,36.1,52,36z M50.6,30.4
			c0.6,0,1.1-0.5,1.1-1.1c0-0.6-0.5-1-1.1-1c-0.6,0-1.1,0.5-1.1,1.1C49.5,30,50,30.4,50.6,30.4z"/>
		<path fill="#FFFBEF" d="M67.9,32.9l2.9,5.8h-3.3L65,33.5h-0.8v5.2h-3V26.1h4.3c2.6,0,4,1.4,4,3.7C69.5,31.2,68.9,32.3,67.9,32.9z
			 M64.2,28.7V31h1.1c0.7,0,1.1-0.5,1.1-1.2c0-0.7-0.4-1.1-1.1-1.1H64.2z"/>
		<path fill="#FFFBEF" d="M71.2,38.7V26.1h6v2.8h-2.9v1.9h2.8v2.8h-2.8v2.2h3v2.8H71.2z"/>
		<path fill="#FFFBEF" d="M82.5,30.6l1.6,0.6c1.6,0.7,2.6,1.8,2.6,3.6c0,2.5-1.8,4-4.3,4c-3.6,0-4.3-2.3-4.1-4.2H81
			c0,0.8,0.3,1.6,1.3,1.6c0.7,0,1.2-0.4,1.2-1.1c0-0.7-0.5-1.1-1.3-1.4c-0.6-0.3-1.3-0.5-2-0.8c-1.3-0.7-1.9-1.9-1.9-3.4
			c0-2.2,1.6-3.7,4.1-3.7c3,0,4,1.7,3.9,3.9h-2.8c0-0.8-0.4-1.3-1.1-1.3c-0.7,0-1,0.4-1,0.9C81.3,29.9,81.6,30.3,82.5,30.6z"/>
		<path fill="#FFFBEF" d="M90.8,38.7h-3V26.1h3V38.7z"/>
		<path fill="#FFFBEF" d="M92.3,38.7V26.1h3v9.8h2.9v2.8H92.3z"/>
		<path fill="#FFFBEF" d="M102.4,38.7h-3V26.1h3V38.7z"/>
		<path fill="#FFFBEF" d="M103.9,38.7V26.1h6v2.8H107v1.9h2.8v2.8H107v2.2h3v2.8H103.9z"/>
		<path fill="#FFFBEF" d="M114.1,31.2v7.4h-2.9V26.1h3.1l4.7,7.6v-7.6h2.9v12.6h-3L114.1,31.2z"/>
		<path fill="#FFFBEF" d="M134,37.3c-1.1,1-2.4,1.6-4.2,1.6c-4.2,0-6.7-2.8-6.7-6.5c0-3.6,2.6-6.5,6.6-6.5c1.9,0,3.3,0.6,4.3,1.5
			l-1.8,2.3c-0.5-0.4-1.3-0.9-2.4-0.9c-2.2,0-3.5,1.6-3.5,3.7c0,2.1,1.4,3.7,3.5,3.7c1.1,0,1.9-0.5,2.4-0.9L134,37.3z"/>
		<path fill="#FFFBEF" d="M134,26.1h3.4l1.7,3.4l1.8-3.4h3.2l-3.6,6.4v6.2h-3v-6.2L134,26.1z"/>
		<path fill="#FFFBEF" d="M150.4,38.7h-3V26.1h3V38.7z"/>
		<path fill="#FFFBEF" d="M154.8,31.2v7.4h-2.9V26.1h3.1l4.7,7.6v-7.6h2.9v12.6h-3L154.8,31.2z"/>
		<path fill="#FFFBEF" d="M167.3,38.7h-3V26.1h3V38.7z"/>
		<path fill="#FFFBEF" d="M173.4,28.9v9.8h-3v-9.8h-2.1v-2.8h7.2v2.8H173.4z"/>
		<path fill="#FFFBEF" d="M179.6,38.7h-3V26.1h3V38.7z"/>
		<path fill="#FFFBEF" d="M188.2,35.7h-4l-1,3h-3l4.4-12.6h3.2l4.7,12.6h-3.2L188.2,35.7z M185.1,33.1h2.2l-1.1-3.2L185.1,33.1z"/>
		<path fill="#FFFBEF" d="M196.6,28.9v9.8h-3v-9.8h-2.1v-2.8h7.2v2.8H196.6z"/>
		<path fill="#FFFBEF" d="M202.7,38.7h-3V26.1h3V38.7z"/>
		<path fill="#FFFBEF" d="M203.3,26.1h3.4l2.9,8.8l2.9-8.8h3.2l-4.6,12.6h-3.3L203.3,26.1z"/>
		<path fill="#FFFBEF" d="M216.4,38.7V26.1h6v2.8h-2.9v1.9h2.8v2.8h-2.8v2.2h3v2.8H216.4z"/>
	</g>
	<g>
		<g>
			<g>
				<rect x="6" y="17.9" fill="#FFFBEF" width="3.6" height="18.9"/>
			</g>
			<g>
				<rect x="13.6" y="17.9" fill="#FFFBEF" width="3.6" height="18.9"/>
			</g>
			<g>
				<rect x="21.1" y="17.9" fill="#FFFBEF" width="3.6" height="18.9"/>
			</g>
			<g>
				<rect x="28.7" y="17.9" fill="#FFFBEF" width="3.6" height="18.9"/>
			</g>
		</g>
		<g>
			<polygon fill="#FFFBEF" points="38.4,17.1 19.2,11.4 0,17.1 0,13.3 19.2,7.6 38.4,13.3 			"/>
		</g>
		<g>
			<rect x="0" y="35" fill="#FFFBEF" width="38.4" height="3.6"/>
		</g>
		<g>
			<polygon fill="#FFFBEF" points="21,9.5 17.4,9.5 17.4,0 24.8,0 24.8,3.6 21,3.6 			"/>
		</g>
	</g>
</g>
</svg>
