<?xml version="1.0" encoding="utf-8"?>
<!-- Generator: Adobe Illustrator 17.1.0, SVG Export Plug-In . SVG Version: 6.00 Build 0)  -->
<!DOCTYPE svg PUBLIC "-//W3C//DTD SVG 1.1//EN" "http://www.w3.org/Graphics/SVG/1.1/DTD/svg11.dtd">
<svg version="1.1" id="Layer_1" xmlns="http://www.w3.org/2000/svg" xmlns:xlink="http://www.w3.org/1999/xlink" x="0px" y="0px"
	 viewBox="0 0 324.6 105" enable-background="new 0 0 324.6 105" xml:space="preserve">
<text transform="matrix(1 0 0 1 128.0547 55.5654)"><tspan x="0" y="0" fill="#FFFBEF" font-family="'Platform-Bold'" font-size="49.3948">OPEN</tspan><tspan x="0" y="49.4" fill="#FFFBEF" font-family="'Platform-Bold'" font-size="49.3948">MARKETS</tspan></text>
<g>
	<polygon fill="#FFFBEF" points="88,49 78,49 78,95 67,95 67,49 57,49 57,95 47,95 47,49 37,49 37,95 26,95 26,49 16,49 16,95 0,95 
		0,105 104,105 104,95 88,95 	"/>
	<polygon fill="#FFFBEF" points="57,22.2 57,10 67,10 67,0 47,0 47,22.2 0,36.1 0,46.5 52,31.1 104,46.5 104,36.1 	"/>
</g>
</svg>
