<svg version="1.1"
	 xmlns="http://www.w3.org/2000/svg" xmlns:xlink="http://www.w3.org/1999/xlink" xmlns:a="http://ns.adobe.com/AdobeSVGViewerExtensions/3.0/"
	 x="0px" y="0px" width="151.2px" height="51.4px" viewBox="0 0 151.2 51.4" enable-background="new 0 0 151.2 51.4"
	 xml:space="preserve">
<defs>
</defs>
<g>
	<g>
		<g>
			<rect x="16.6" y="25" fill="#FFFBEF" width="4.8" height="16.5"/>
		</g>
		<g>
			<rect x="10.6" y="39.1" fill="#FFFBEF" width="16.6" height="4.8"/>
		</g>
		<g>
			<rect x="10.6" y="46.2" fill="#FFFBEF" width="16.6" height="4.8"/>
		</g>
		<g>
			<path fill="#FFFBEF" d="M19,0C8.5,0,0,8.5,0,19c0,8.4,5.5,15.5,13,18v-5.1C8.3,29.6,4.7,24.7,4.7,19c0-7.8,6.4-14.2,14.2-14.2
				c7.8,0,14.1,6.4,14.1,14.2c0,5.7-3.3,10.7-8.4,12.9V37c7.6-2.5,13.1-9.6,13.1-18C37.8,8.5,29.4,0,19,0z"/>
		</g>
	</g>
	<g>
		<path fill="#FFFBEF" d="M50.9,1.9c4.1,0,6.7,2.8,6.7,6.5c0,3.7-2.5,6.6-6.6,6.6c-4.1,0-6.6-2.8-6.6-6.5
			C44.4,4.8,47.1,1.9,50.9,1.9z M51,12.1c2.2,0,3.4-1.6,3.4-3.7c0-2.1-1.3-3.7-3.4-3.7c-2.2,0-3.4,1.6-3.4,3.7
			C47.6,10.5,48.9,12.1,51,12.1z"/>
		<path fill="#FFFBEF" d="M63.1,9.7h-1.3v5h-3V2.1H63c2.6,0,4,1.4,4,3.7C67,8.2,65.5,9.7,63.1,9.7z M61.7,4.8v2.3h1.1
			c0.7,0,1.1-0.5,1.1-1.2c0-0.7-0.4-1.1-1.1-1.1H61.7z"/>
		<path fill="#FFFBEF" d="M67.9,14.7V2.1h6V5h-2.9v1.9h2.8v2.8h-2.8v2.2h3v2.8H67.9z"/>
		<path fill="#FFFBEF" d="M78.1,7.3v7.4h-2.9V2.1h3.1L83,9.7V2.1h2.9v12.6h-3L78.1,7.3z"/>
		<path fill="#FFFBEF" d="M49.5,23.2v9.8h-3v-9.8h-2.1v-2.8h7.2v2.8H49.5z"/>
		<path fill="#FFFBEF" d="M52.6,32.9V20.3h6v2.8h-2.9v1.9h2.8v2.8h-2.8v2.2h3v2.8H52.6z"/>
		<path fill="#FFFBEF" d="M70.4,31.5c-1.1,1-2.4,1.6-4.2,1.6c-4.2,0-6.7-2.8-6.7-6.5c0-3.6,2.6-6.5,6.6-6.5c1.9,0,3.3,0.6,4.3,1.5
			l-1.8,2.3c-0.5-0.4-1.3-0.9-2.4-0.9c-2.2,0-3.5,1.6-3.5,3.7c0,2.1,1.4,3.7,3.5,3.7c1.1,0,1.9-0.5,2.4-0.9L70.4,31.5z"/>
		<path fill="#FFFBEF" d="M81.7,32.9h-3v-5h-4.4v5h-3V20.3h3v4.7h4.4v-4.7h3V32.9z"/>
		<path fill="#FFFBEF" d="M86.2,25.5v7.4h-2.9V20.3h3.1l4.7,7.6v-7.6h2.9v12.6h-3L86.2,25.5z"/>
		<path fill="#FFFBEF" d="M101.7,20.1c4.1,0,6.7,2.8,6.7,6.5c0,3.7-2.5,6.6-6.6,6.6c-4.1,0-6.6-2.8-6.6-6.5
			C95.2,23,97.8,20.1,101.7,20.1z M101.8,30.3c2.2,0,3.4-1.6,3.4-3.7c0-2.1-1.3-3.7-3.4-3.7c-2.2,0-3.4,1.6-3.4,3.7
			C98.3,28.7,99.7,30.3,101.8,30.3z"/>
		<path fill="#FFFBEF" d="M109.5,32.9V20.3h3v9.8h2.9v2.8H109.5z"/>
		<path fill="#FFFBEF" d="M122.1,20.1c4.1,0,6.7,2.8,6.7,6.5c0,3.7-2.5,6.6-6.6,6.6c-4.1,0-6.6-2.8-6.6-6.5
			C115.5,23,118.2,20.1,122.1,20.1z M122.1,30.3c2.2,0,3.4-1.6,3.4-3.7c0-2.1-1.3-3.7-3.4-3.7c-2.2,0-3.4,1.6-3.4,3.7
			C118.7,28.7,120,30.3,122.1,30.3z"/>
		<path fill="#FFFBEF" d="M141.8,32.9h-2.9v-0.6c-0.6,0.5-1.5,0.8-2.9,0.8c-3.9,0-6.5-2.6-6.5-6.5c0-3.5,2.5-6.5,6.5-6.5
			c2.7,0,4.4,1.2,5.4,2.7l-2.4,1.7c-0.5-0.7-1.4-1.5-3-1.5c-2,0-3.3,1.5-3.3,3.7c0,2.3,1.5,3.7,3.5,3.7c1.4,0,2.3-0.6,2.7-1v-0.9
			H137V26h4.9V32.9z"/>
		<path fill="#FFFBEF" d="M141.1,20.3h3.4l1.7,3.4l1.8-3.4h3.2l-3.6,6.3v6.2h-3v-6.2L141.1,20.3z"/>
		<path fill="#FFFBEF" d="M47.8,51.1h-3V38.5h3V51.1z"/>
		<path fill="#FFFBEF" d="M52.3,43.7v7.4h-2.9V38.5h3.1l4.7,7.6v-7.6h2.9v12.6h-3L52.3,43.7z"/>
		<path fill="#FFFBEF" d="M65.5,43.1l1.6,0.6c1.6,0.7,2.6,1.8,2.6,3.6c0,2.5-1.8,4-4.3,4c-3.6,0-4.3-2.3-4.1-4.2h2.9
			c0,0.8,0.3,1.6,1.3,1.6c0.7,0,1.2-0.4,1.2-1.1c0-0.7-0.5-1.1-1.3-1.4c-0.6-0.3-1.3-0.5-2-0.8c-1.3-0.7-1.9-1.9-1.9-3.4
			c0-2.2,1.6-3.7,4.1-3.7c3,0,4,1.7,3.9,3.9h-2.8c0-0.8-0.4-1.3-1.1-1.3c-0.7,0-1,0.4-1,0.9C64.4,42.4,64.7,42.7,65.5,43.1z"/>
		<path fill="#FFFBEF" d="M75.1,41.4v9.8h-3v-9.8H70v-2.8h7.2v2.8H75.1z"/>
		<path fill="#FFFBEF" d="M81.3,51.1h-3V38.5h3V51.1z"/>
		<path fill="#FFFBEF" d="M87.4,41.4v9.8h-3v-9.8h-2.1v-2.8h7.2v2.8H87.4z"/>
		<path fill="#FFFBEF" d="M90.5,46.1v-7.6h3v7.6c0,1.4,0.7,2.4,2.2,2.4c1.4,0,2.1-1,2.1-2.4v-7.5h3v7.5c0,3-1.7,5.3-5.2,5.3
			C92.1,51.4,90.5,49.2,90.5,46.1z"/>
		<path fill="#FFFBEF" d="M107,41.4v9.8h-3v-9.8h-2.1v-2.8h7.2v2.8H107z"/>
		<path fill="#FFFBEF" d="M110.1,51.1V38.5h6v2.8h-2.9v1.9h2.8v2.8h-2.8v2.2h3v2.8H110.1z"/>
	</g>
</g>
</svg>
