<?xml version="1.0" encoding="utf-8"?>
<!-- Generator: Adobe Illustrator 17.1.0, SVG Export Plug-In . SVG Version: 6.00 Build 0)  -->
<!DOCTYPE svg PUBLIC "-//W3C//DTD SVG 1.1//EN" "http://www.w3.org/Graphics/SVG/1.1/DTD/svg11.dtd">
<svg version="1.1" id="Layer_1" xmlns="http://www.w3.org/2000/svg" xmlns:xlink="http://www.w3.org/1999/xlink" x="0px" y="0px"
	 viewBox="-18 102.7 759.3 14" enable-background="new -18 102.7 759.3 14" xml:space="preserve">
<g>
	<g>
		<path fill="#3B17FF" d="M265.9,108.9v1h-0.6v-2.5h1.2v0.6h-0.6v0.4h0.6v0.6L265.9,108.9L265.9,108.9z"/>
		<path fill="#3B17FF" d="M266.8,109.9v-2.5h1.2v0.6h-0.6v0.4h0.6v0.6h-0.6v0.4h0.6v0.6L266.8,109.9L266.8,109.9z"/>
		<path fill="#3B17FF" d="M268.2,109.9v-2.5h0.6v1.9h0.6v0.6C269.4,109.9,268.2,109.9,268.2,109.9z"/>
		<path fill="#3B17FF" d="M269.6,109.9v-2.5h0.6v1.9h0.6v0.6C270.8,109.9,269.6,109.9,269.6,109.9z"/>
		<path fill="#3B17FF" d="M272.1,107.3c0.8,0,1.3,0.6,1.3,1.3s-0.5,1.3-1.3,1.3c-0.8,0-1.3-0.6-1.3-1.3S271.3,107.3,272.1,107.3z
			 M272.1,109.3c0.4,0,0.7-0.3,0.7-0.7c0-0.4-0.3-0.7-0.7-0.7c-0.4,0-0.7,0.3-0.7,0.7C271.4,109,271.7,109.3,272.1,109.3z"/>
		<path fill="#3B17FF" d="M275.2,108.3l-0.4,1.6H274l-0.7-2.5h0.7l0.4,1.7l0.4-1.7h0.7l0.4,1.7l0.4-1.7h0.6l-0.7,2.5h-0.7
			L275.2,108.3z"/>
		<path fill="#3B17FF" d="M277.8,108.3l0.3,0.1c0.3,0.1,0.5,0.4,0.5,0.7c0,0.5-0.4,0.8-0.9,0.8c-0.7,0-0.9-0.5-0.8-0.8h0.6
			c0,0.2,0.1,0.3,0.3,0.3c0.1,0,0.2-0.1,0.2-0.2c0-0.1-0.1-0.2-0.3-0.3c-0.1-0.1-0.3-0.1-0.4-0.2c-0.3-0.1-0.4-0.4-0.4-0.7
			c0-0.4,0.3-0.7,0.8-0.7c0.6,0,0.8,0.3,0.8,0.8H278c0-0.2-0.1-0.3-0.2-0.3c-0.1,0-0.2,0.1-0.2,0.2
			C277.6,108.1,277.7,108.2,277.8,108.3z"/>
	</g>
	<g>
		<g>
			<rect x="255.2" y="109.1" fill="#3B17FF" width="8.5" height="0.8"/>
		</g>
		<g>
			<rect x="259.1" y="105.1" fill="#3B17FF" width="0.8" height="4.4"/>
		</g>
		<g>
			
				<rect x="260.2" y="105.4" transform="matrix(-0.866 -0.5 0.5 -0.866 432.4911 331.0642)" fill="#3B17FF" width="0.8" height="4.4"/>
		</g>
		<g>
			
				<rect x="261" y="106.2" transform="matrix(-0.4995 -0.8663 0.8663 -0.4995 298.0631 389.0065)" fill="#3B17FF" width="0.8" height="4.4"/>
		</g>
		<g>
			
				<rect x="256.2" y="107.2" transform="matrix(-0.5 -0.866 0.866 -0.5 294.4659 385.1891)" fill="#3B17FF" width="4.4" height="0.8"/>
		</g>
		<g>
			
				<rect x="255.4" y="108" transform="matrix(-0.866 -0.5001 0.5001 -0.866 426.5283 331.0922)" fill="#3B17FF" width="4.4" height="0.8"/>
		</g>
	</g>
</g>
<g>
	<g>
		<g>
			<rect x="-13.7" y="108.6" fill="#3B17FF" width="0.9" height="3.3"/>
		</g>
		<g>
			<rect x="-14.9" y="111.4" fill="#3B17FF" width="3.3" height="0.9"/>
		</g>
		<g>
			<rect x="-14.9" y="112.8" fill="#3B17FF" width="3.3" height="0.9"/>
		</g>
		<g>
			<path fill="#3B17FF" d="M-13.2,103.7c-2.1,0-3.8,1.7-3.8,3.8c0,1.7,1.1,3.1,2.6,3.6v-1c-0.9-0.5-1.6-1.4-1.6-2.6
				c0-1.5,1.3-2.8,2.8-2.8s2.8,1.3,2.8,2.8c0,1.1-0.7,2.1-1.7,2.6v1c1.5-0.5,2.6-1.9,2.6-3.6C-9.5,105.3-11.2,103.7-13.2,103.7z"/>
		</g>
	</g>
	<g>
		<path fill="#3B17FF" d="M-6.9,104c0.8,0,1.3,0.6,1.3,1.3s-0.5,1.3-1.3,1.3s-1.3-0.6-1.3-1.3C-8.2,104.6-7.7,104-6.9,104z
			 M-6.9,106.1c0.4,0,0.7-0.3,0.7-0.7s-0.3-0.7-0.7-0.7c-0.4,0-0.7,0.3-0.7,0.7S-7.3,106.1-6.9,106.1z"/>
		<path fill="#3B17FF" d="M-4.5,105.6h-0.3v1h-0.6v-2.5h0.9c0.5,0,0.8,0.3,0.8,0.7C-3.7,105.3-4,105.6-4.5,105.6z M-4.8,104.6v0.5
			h0.2c0.1,0,0.2-0.1,0.2-0.2s-0.1-0.2-0.2-0.2C-4.6,104.6-4.8,104.6-4.8,104.6z"/>
		<path fill="#3B17FF" d="M-3.6,106.6v-2.5h1.2v0.6h-0.6v0.4h0.6v0.6h-0.6v0.4h0.6v0.6L-3.6,106.6L-3.6,106.6z"/>
		<path fill="#3B17FF" d="M-1.5,105.1v1.5h-0.6v-2.5h0.6l0.9,1.5v-1.5H0v2.5h-0.6L-1.5,105.1z"/>
		<path fill="#3B17FF" d="M-7.2,108.3v1.9h-0.6v-1.9h-0.4v-0.6h1.4v0.6H-7.2z"/>
		<path fill="#3B17FF" d="M-6.6,110.2v-2.5h1.2v0.6H-6v0.4h0.6v0.6H-6v0.4h0.6v0.6L-6.6,110.2L-6.6,110.2z"/>
		<path fill="#3B17FF" d="M-3.1,109.9c-0.2,0.2-0.5,0.3-0.8,0.3c-0.8,0-1.3-0.6-1.3-1.3c0-0.7,0.5-1.3,1.3-1.3
			c0.4,0,0.7,0.1,0.9,0.3l-0.4,0.5c-0.1-0.1-0.3-0.2-0.5-0.2c-0.4,0-0.7,0.3-0.7,0.7s0.3,0.7,0.7,0.7c0.2,0,0.4-0.1,0.5-0.2
			L-3.1,109.9z"/>
		<path fill="#3B17FF" d="M-0.8,110.2h-0.6v-1h-0.9v1h-0.6v-2.5h0.6v0.9h0.9v-0.9h0.6V110.2z"/>
		<path fill="#3B17FF" d="M0.1,108.7v1.5h-0.6v-2.5h0.6l0.9,1.5v-1.5h0.6v2.5H1L0.1,108.7z"/>
		<path fill="#3B17FF" d="M3.1,107.6c0.8,0,1.3,0.6,1.3,1.3c0,0.7-0.5,1.3-1.3,1.3s-1.3-0.6-1.3-1.3C1.8,108.2,2.4,107.6,3.1,107.6z
			 M3.1,109.7c0.4,0,0.7-0.3,0.7-0.7c0-0.4-0.3-0.7-0.7-0.7c-0.4,0-0.7,0.3-0.7,0.7C2.5,109.3,2.7,109.7,3.1,109.7z"/>
		<path fill="#3B17FF" d="M4.7,110.2v-2.5h0.6v1.9h0.6v0.6H4.7z"/>
		<path fill="#3B17FF" d="M7.2,107.6c0.8,0,1.3,0.6,1.3,1.3c0,0.7-0.5,1.3-1.3,1.3s-1.3-0.6-1.3-1.3C5.9,108.2,6.4,107.6,7.2,107.6z
			 M7.2,109.7c0.4,0,0.7-0.3,0.7-0.7c0-0.4-0.3-0.7-0.7-0.7c-0.4,0-0.7,0.3-0.7,0.7S6.8,109.7,7.2,109.7z"/>
		<path fill="#3B17FF" d="M11.1,110.2h-0.6v-0.1c-0.1,0.1-0.3,0.2-0.6,0.2c-0.8,0-1.3-0.5-1.3-1.3c0-0.7,0.5-1.3,1.3-1.3
			c0.5,0,0.9,0.2,1.1,0.5l-0.5,0.3c-0.1-0.1-0.3-0.3-0.6-0.3c-0.4,0-0.7,0.3-0.7,0.7c0,0.5,0.3,0.7,0.7,0.7c0.3,0,0.5-0.1,0.5-0.2
			v-0.2h-0.4v-0.5h1L11.1,110.2L11.1,110.2z"/>
		<path fill="#3B17FF" d="M10.9,107.7h0.7l0.3,0.7l0.4-0.7h0.6l-0.7,1.2v1.2h-0.6v-1.2L10.9,107.7z"/>
		<path fill="#3B17FF" d="M-7.5,113.8h-0.6v-2.5h0.6V113.8z"/>
		<path fill="#3B17FF" d="M-6.7,112.3v1.5h-0.6v-2.5h0.6l0.9,1.5v-1.5h0.6v2.5h-0.6L-6.7,112.3z"/>
		<path fill="#3B17FF" d="M-4,112.2l0.3,0.1c0.3,0.1,0.5,0.4,0.5,0.7c0,0.5-0.4,0.8-0.9,0.8c-0.7,0-0.9-0.5-0.8-0.8h0.6
			c0,0.2,0.1,0.3,0.3,0.3c0.1,0,0.2-0.1,0.2-0.2s-0.1-0.2-0.3-0.3c-0.1-0.1-0.3-0.1-0.4-0.2c-0.3-0.1-0.4-0.4-0.4-0.7
			c0-0.4,0.3-0.7,0.8-0.7c0.6,0,0.8,0.3,0.8,0.8h-0.6c0-0.2-0.1-0.3-0.2-0.3c-0.1,0-0.2,0.1-0.2,0.2C-4.3,112-4.2,112.1-4,112.2z"/>
		<path fill="#3B17FF" d="M-2.1,111.8v1.9h-0.6v-1.9h-0.4v-0.6h1.4v0.6H-2.1z"/>
		<path fill="#3B17FF" d="M-0.9,113.8h-0.6v-2.5h0.6V113.8z"/>
		<path fill="#3B17FF" d="M0.3,111.8v1.9h-0.6v-1.9h-0.4v-0.6h1.4v0.6H0.3z"/>
		<path fill="#3B17FF" d="M0.9,112.8v-1.5h0.6v1.5c0,0.3,0.1,0.5,0.4,0.5c0.3,0,0.4-0.2,0.4-0.5v-1.5h0.6v1.5c0,0.6-0.3,1-1,1
			C1.2,113.8,0.9,113.4,0.9,112.8z"/>
		<path fill="#3B17FF" d="M4.2,111.8v1.9H3.6v-1.9H3.2v-0.6h1.4v0.6H4.2z"/>
		<path fill="#3B17FF" d="M4.8,113.8v-2.5H6v0.6H5.4v0.4H6v0.6H5.4v0.4H6v0.6L4.8,113.8L4.8,113.8z"/>
	</g>
</g>
<g>
	<g>
		<path fill="#3B17FF" d="M320.2,106.4h-0.8l-0.2,0.6h-0.6l0.9-2.5h0.6l0.9,2.5h-0.6L320.2,106.4z M319.6,105.9h0.4l-0.2-0.6
			L319.6,105.9z"/>
		<path fill="#3B17FF" d="M321.9,105.4l0.3,0.1c0.3,0.1,0.5,0.4,0.5,0.7c0,0.5-0.4,0.8-0.9,0.8c-0.7,0-0.9-0.5-0.8-0.8h0.6
			c0,0.2,0.1,0.3,0.3,0.3c0.1,0,0.2-0.1,0.2-0.2c0-0.1-0.1-0.2-0.3-0.3c-0.1-0.1-0.3-0.1-0.4-0.2c-0.3-0.1-0.4-0.4-0.4-0.7
			c0-0.4,0.3-0.7,0.8-0.7c0.6,0,0.8,0.3,0.8,0.8h-0.6c0-0.2-0.1-0.3-0.2-0.3s-0.2,0.1-0.2,0.2C321.6,105.2,321.7,105.3,321.9,105.4z
			"/>
		<path fill="#3B17FF" d="M323.7,105.4l0.3,0.1c0.3,0.1,0.5,0.4,0.5,0.7c0,0.5-0.4,0.8-0.9,0.8c-0.7,0-0.9-0.5-0.8-0.8h0.6
			c0,0.2,0.1,0.3,0.3,0.3c0.1,0,0.2-0.1,0.2-0.2c0-0.1-0.1-0.2-0.3-0.3c-0.1-0.1-0.3-0.1-0.4-0.2c-0.3-0.1-0.4-0.4-0.4-0.7
			c0-0.4,0.3-0.7,0.8-0.7c0.6,0,0.8,0.3,0.8,0.8h-0.6c0-0.2-0.1-0.3-0.2-0.3s-0.2,0.1-0.2,0.2C323.5,105.2,323.5,105.3,323.7,105.4z
			"/>
		<path fill="#3B17FF" d="M324.7,107v-2.5h1.2v0.6h-0.6v0.4h0.6v0.6h-0.6v0.4h0.6v0.6L324.7,107L324.7,107z"/>
		<path fill="#3B17FF" d="M327.1,105v1.9h-0.6V105h-0.4v-0.6h1.4v0.6H327.1z"/>
		<path fill="#3B17FF" d="M319.7,110.6h-0.9v-2.5h0.9c0.5,0,0.8,0.3,0.8,0.7c0,0.2-0.1,0.4-0.3,0.5c0.2,0.1,0.3,0.3,0.3,0.6
			C320.4,110.3,320.1,110.6,319.7,110.6z M319.4,108.6v0.5h0.2c0.1,0,0.2-0.1,0.2-0.2s-0.1-0.2-0.2-0.2L319.4,108.6L319.4,108.6z
			 M319.4,109.5v0.5h0.2c0.1,0,0.2-0.1,0.2-0.3s-0.1-0.2-0.2-0.2H319.4z"/>
		<path fill="#3B17FF" d="M320.6,109.6v-1.5h0.6v1.5c0,0.3,0.1,0.5,0.4,0.5c0.3,0,0.4-0.2,0.4-0.5v-1.5h0.6v1.5c0,0.6-0.3,1-1,1
			C321,110.6,320.6,110.2,320.6,109.6z"/>
		<path fill="#3B17FF" d="M323.6,110.6H323v-2.5h0.6V110.6z"/>
		<path fill="#3B17FF" d="M323.9,110.6v-2.5h0.6v1.9h0.6v0.6C325.1,110.6,323.9,110.6,323.9,110.6z"/>
		<path fill="#3B17FF" d="M325.9,108.1c0.8,0,1.3,0.5,1.3,1.2c0,0.8-0.5,1.2-1.3,1.2h-0.6v-2.5C325.3,108.1,325.9,108.1,325.9,108.1
			z M325.9,110c0.4,0,0.7-0.2,0.7-0.7c0-0.5-0.3-0.7-0.7-0.7C325.9,108.6,325.9,110,325.9,110z"/>
		<path fill="#3B17FF" d="M328,110.6h-0.6v-2.5h0.6V110.6z"/>
		<path fill="#3B17FF" d="M328.9,109.1v1.5h-0.6v-2.5h0.6l0.9,1.5v-1.5h0.6v2.5h-0.6L328.9,109.1z"/>
		<path fill="#3B17FF" d="M333.1,110.6h-0.6v-0.1c-0.1,0.1-0.3,0.2-0.6,0.2c-0.8,0-1.3-0.5-1.3-1.3c0-0.7,0.5-1.3,1.3-1.3
			c0.5,0,0.9,0.2,1,0.5l-0.5,0.3c-0.1-0.1-0.3-0.3-0.6-0.3c-0.4,0-0.7,0.3-0.7,0.7c0,0.5,0.3,0.7,0.7,0.7c0.3,0,0.5-0.1,0.5-0.2
			v-0.2h-0.4v-0.5h1L333.1,110.6L333.1,110.6z"/>
	</g>
	<g>
		<polygon fill="#3B17FF" points="312.3,110.6 311.6,110.6 311.6,108.3 313.6,108.3 313.6,106.4 315.5,106.4 315.5,104.5 
			317.7,104.5 317.7,105.2 316.1,105.2 316.1,107.1 314.2,107.1 314.2,109 312.3,109 		"/>
	</g>
</g>
<g>
	<g>
		<path fill="#3B17FF" d="M46.1,108.2h-0.6v-2.5h0.6V108.2z"/>
		<path fill="#3B17FF" d="M47,106.7v1.5h-0.6v-2.5H47l0.9,1.5v-1.5h0.6v2.5h-0.6L47,106.7z"/>
		<path fill="#3B17FF" d="M49.8,106.3v1.9h-0.6v-1.9h-0.4v-0.6h1.4v0.6H49.8z"/>
		<path fill="#3B17FF" d="M50.4,108.2v-2.5h1.2v0.6H51v0.4h0.6v0.6H51v0.4h0.6v0.6L50.4,108.2L50.4,108.2z"/>
		<path fill="#3B17FF" d="M53.2,107.1l0.6,1.1h-0.7l-0.5-1h-0.2v1h-0.6v-2.5h0.9c0.5,0,0.8,0.3,0.8,0.7
			C53.5,106.7,53.3,106.9,53.2,107.1z M52.4,106.2v0.5h0.2c0.1,0,0.2-0.1,0.2-0.2c0-0.1-0.1-0.2-0.2-0.2H52.4z"/>
		<path fill="#3B17FF" d="M54.4,106.7v1.5h-0.6v-2.5h0.6l0.9,1.5v-1.5h0.6v2.5h-0.6L54.4,106.7z"/>
		<path fill="#3B17FF" d="M57.6,107.6h-0.8l-0.2,0.6h-0.6l0.9-2.5h0.6l0.9,2.5h-0.6L57.6,107.6z M57,107.1h0.4l-0.2-0.6L57,107.1z"
			/>
		<path fill="#3B17FF" d="M59.3,106.3v1.9h-0.6v-1.9h-0.4v-0.6h1.4v0.6H59.3z"/>
		<path fill="#3B17FF" d="M60.5,108.2h-0.6v-2.5h0.6V108.2z"/>
		<path fill="#3B17FF" d="M62,105.6c0.8,0,1.3,0.6,1.3,1.3c0,0.7-0.5,1.3-1.3,1.3s-1.3-0.6-1.3-1.3C60.7,106.2,61.3,105.6,62,105.6z
			 M62,107.7c0.4,0,0.7-0.3,0.7-0.7c0-0.4-0.3-0.7-0.7-0.7c-0.4,0-0.7,0.3-0.7,0.7C61.4,107.3,61.6,107.7,62,107.7z"/>
		<path fill="#3B17FF" d="M64.1,106.7v1.5h-0.6v-2.5h0.6l0.9,1.5v-1.5h0.6v2.5h-0.6L64.1,106.7z"/>
		<path fill="#3B17FF" d="M67.4,107.6h-0.8l-0.2,0.6h-0.6l0.9-2.5h0.6l0.9,2.5h-0.6L67.4,107.6z M66.8,107.1h0.4l-0.2-0.6
			L66.8,107.1z"/>
		<path fill="#3B17FF" d="M68.3,108.2v-2.5h0.6v1.9h0.6v0.6H68.3z"/>
		<path fill="#3B17FF" d="M46.3,110.2l0.3,0.1c0.3,0.1,0.5,0.4,0.5,0.7c0,0.5-0.4,0.8-0.9,0.8c-0.7,0-0.9-0.5-0.8-0.8H46
			c0,0.2,0.1,0.3,0.3,0.3c0.1,0,0.2-0.1,0.2-0.2c0-0.1-0.1-0.2-0.3-0.3c-0.1-0.1-0.3-0.1-0.4-0.2c-0.3-0.1-0.4-0.4-0.4-0.7
			c0-0.4,0.3-0.7,0.8-0.7c0.6,0,0.8,0.3,0.8,0.8h-0.6c0-0.2-0.1-0.3-0.2-0.3c-0.1,0-0.2,0.1-0.2,0.2
			C46.1,110.1,46.1,110.1,46.3,110.2z"/>
		<path fill="#3B17FF" d="M47.3,111.8v-2.5h1.2v0.6h-0.6v0.4h0.6v0.6h-0.6v0.4h0.6v0.6L47.3,111.8L47.3,111.8z"/>
		<path fill="#3B17FF" d="M50.9,111.5c-0.2,0.2-0.5,0.3-0.8,0.3c-0.8,0-1.3-0.6-1.3-1.3c0-0.7,0.5-1.3,1.3-1.3
			c0.4,0,0.7,0.1,0.9,0.3l-0.4,0.5c-0.1-0.1-0.3-0.2-0.5-0.2c-0.4,0-0.7,0.3-0.7,0.7c0,0.4,0.3,0.7,0.7,0.7c0.2,0,0.4-0.1,0.5-0.2
			L50.9,111.5z"/>
		<path fill="#3B17FF" d="M51,110.8v-1.5h0.6v1.5c0,0.3,0.1,0.5,0.4,0.5c0.3,0,0.4-0.2,0.4-0.5v-1.5H53v1.5c0,0.6-0.3,1-1,1
			C51.3,111.8,51,111.4,51,110.8z"/>
		<path fill="#3B17FF" d="M54.7,110.7l0.6,1.1h-0.7l-0.5-1h-0.2v1h-0.6v-2.5h0.9c0.5,0,0.8,0.3,0.8,0.7
			C55,110.3,54.9,110.5,54.7,110.7z M53.9,109.8v0.5h0.2c0.1,0,0.2-0.1,0.2-0.2s-0.1-0.2-0.2-0.2H53.9z"/>
		<path fill="#3B17FF" d="M55.9,111.8h-0.6v-2.5h0.6V111.8z"/>
		<path fill="#3B17FF" d="M57.1,109.9v1.9h-0.6v-1.9h-0.4v-0.6h1.4v0.6H57.1z"/>
		<path fill="#3B17FF" d="M57.6,109.3h0.7l0.3,0.7l0.4-0.7h0.6l-0.7,1.2v1.2h-0.6v-1.2L57.6,109.3z"/>
	</g>
	<g>
		<g>
			<path fill="#3B17FF" d="M40.7,112.2c-1.9,0-3.5-1.6-3.5-3.5c0-1.9,1.6-3.5,3.5-3.5c1.9,0,3.5,1.6,3.5,3.5
				C44.1,110.7,42.6,112.2,40.7,112.2z M40.7,105.7c-1.7,0-3,1.3-3,3s1.3,3,3,3c1.7,0,3-1.3,3-3C43.7,107.1,42.3,105.7,40.7,105.7z"
				/>
		</g>
		<g>
			<path fill="#3B17FF" d="M40.7,112.2l-0.1-0.1c-0.5-0.3-0.9-0.8-1.2-1.4c-0.3-0.6-0.5-1.3-0.5-2s0.2-1.4,0.5-2
				c0.3-0.6,0.7-1.1,1.2-1.4l0.1-0.1l0.1,0.1c0.5,0.3,0.9,0.8,1.2,1.4s0.5,1.3,0.5,2s-0.2,1.4-0.5,2c-0.3,0.6-0.7,1.1-1.2,1.4
				L40.7,112.2z M40.7,105.9c-0.8,0.6-1.3,1.7-1.3,2.9c0,1.2,0.5,2.3,1.3,2.9c0.8-0.6,1.3-1.7,1.3-2.9
				C42,107.6,41.5,106.5,40.7,105.9z"/>
		</g>
		<g>
			<path fill="#3B17FF" d="M40.7,107.7c-1.1,0-2.1-0.3-2.6-0.9l0.3-0.3c0.5,0.5,1.3,0.7,2.3,0.7c0.9,0,1.8-0.3,2.3-0.7l0.3,0.3
				C42.7,107.3,41.8,107.7,40.7,107.7z"/>
		</g>
		<g>
			<path fill="#3B17FF" d="M43,111c-0.5-0.5-1.3-0.7-2.3-0.7c-0.9,0-1.8,0.3-2.3,0.7l-0.3-0.3c0.6-0.6,1.5-0.9,2.6-0.9
				c1.1,0,2.1,0.3,2.6,0.9L43,111z"/>
		</g>
		<g>
			<rect x="37.4" y="108.5" fill="#3B17FF" width="6.5" height="0.5"/>
		</g>
	</g>
</g>
<g>
	<g>
		<path fill="#3B17FF" d="M212.1,108.2h-0.9v-2.5h0.9c0.5,0,0.8,0.3,0.8,0.7c0,0.2-0.1,0.4-0.3,0.5c0.2,0.1,0.3,0.3,0.3,0.6
			C212.9,107.9,212.6,108.2,212.1,108.2z M211.8,106.2v0.5h0.2c0.1,0,0.2-0.1,0.2-0.2c0-0.1-0.1-0.2-0.2-0.2L211.8,106.2
			L211.8,106.2z M211.8,107.2v0.5h0.2c0.1,0,0.2-0.1,0.2-0.3c0-0.2-0.1-0.2-0.2-0.2H211.8z"/>
		<path fill="#3B17FF" d="M214.4,107.1l0.6,1.1h-0.7l-0.5-1h-0.2v1h-0.6v-2.5h0.9c0.5,0,0.8,0.3,0.8,0.7
			C214.7,106.7,214.6,106.9,214.4,107.1z M213.7,106.2v0.5h0.2c0.1,0,0.2-0.1,0.2-0.2c0-0.1-0.1-0.2-0.2-0.2H213.7z"/>
		<path fill="#3B17FF" d="M215.1,108.2v-2.5h1.2v0.6h-0.6v0.4h0.6v0.6h-0.6v0.4h0.6v0.6L215.1,108.2L215.1,108.2z"/>
		<path fill="#3B17FF" d="M217.9,107.6h-0.8l-0.2,0.6h-0.6l0.9-2.5h0.6l0.9,2.5h-0.6L217.9,107.6z M217.3,107.1h0.4l-0.2-0.6
			L217.3,107.1z"/>
		<path fill="#3B17FF" d="M219.5,105.7c0.8,0,1.3,0.5,1.3,1.2c0,0.8-0.5,1.2-1.3,1.2h-0.6v-2.5H219.5z M219.5,107.7
			c0.4,0,0.7-0.2,0.7-0.7c0-0.5-0.3-0.7-0.7-0.7V107.7z"/>
		<path fill="#3B17FF" d="M222.5,106.6l-0.4,1.6h-0.7l-0.7-2.5h0.7l0.4,1.7l0.4-1.7h0.7l0.4,1.7l0.4-1.7h0.6l-0.7,2.5h-0.7
			L222.5,106.6z"/>
		<path fill="#3B17FF" d="M225.1,108.2h-0.6v-2.5h0.6V108.2z"/>
		<path fill="#3B17FF" d="M225.9,106.7v1.5h-0.6v-2.5h0.6l0.9,1.5v-1.5h0.6v2.5h-0.6L225.9,106.7z"/>
		<path fill="#3B17FF" d="M228.4,106.7v1.5h-0.6v-2.5h0.6l0.9,1.5v-1.5h0.6v2.5h-0.6L228.4,106.7z"/>
		<path fill="#3B17FF" d="M230.9,108.2h-0.6v-2.5h0.6V108.2z"/>
		<path fill="#3B17FF" d="M231.7,106.7v1.5h-0.6v-2.5h0.6l0.9,1.5v-1.5h0.6v2.5h-0.6L231.7,106.7z"/>
		<path fill="#3B17FF" d="M236,108.2h-0.6v-0.1c-0.1,0.1-0.3,0.2-0.6,0.2c-0.8,0-1.3-0.5-1.3-1.3c0-0.7,0.5-1.3,1.3-1.3
			c0.5,0,0.9,0.2,1,0.5l-0.5,0.3c-0.1-0.1-0.3-0.3-0.6-0.3c-0.4,0-0.7,0.3-0.7,0.7c0,0.5,0.3,0.7,0.7,0.7c0.3,0,0.5-0.1,0.5-0.2
			v-0.2H235v-0.5h1L236,108.2L236,108.2z"/>
		<path fill="#3B17FF" d="M212.8,111.7c-0.2,0.1-0.4,0.2-0.6,0.2c-0.7,0-1-0.3-1-0.8c0-0.3,0.1-0.5,0.4-0.7
			c-0.1-0.1-0.2-0.3-0.2-0.4c0-0.4,0.3-0.7,0.8-0.7c0.5,0,0.8,0.3,0.8,0.7c0,0.3-0.2,0.5-0.5,0.6l0.3,0.3c0-0.1,0-0.3,0-0.4h0.6
			c0,0.3,0,0.6-0.2,0.8l0.5,0.5h-0.7L212.8,111.7z M212.4,111.3l-0.5-0.6c-0.1,0.1-0.1,0.1-0.1,0.2c0,0.2,0.2,0.4,0.4,0.4
			C212.2,111.3,212.3,111.3,212.4,111.3z M212.1,110.2c0.1,0,0.2-0.1,0.2-0.2s-0.1-0.2-0.2-0.2s-0.2,0.1-0.2,0.2
			S212,110.2,212.1,110.2z"/>
		<path fill="#3B17FF" d="M216.3,111.5c-0.2,0.2-0.5,0.3-0.8,0.3c-0.8,0-1.3-0.6-1.3-1.3c0-0.7,0.5-1.3,1.3-1.3
			c0.4,0,0.7,0.1,0.9,0.3l-0.4,0.5c-0.1-0.1-0.3-0.2-0.5-0.2c-0.4,0-0.7,0.3-0.7,0.7c0,0.4,0.3,0.7,0.7,0.7c0.2,0,0.4-0.1,0.5-0.2
			L216.3,111.5z"/>
		<path fill="#3B17FF" d="M217.9,111.2h-0.8l-0.2,0.6h-0.6l0.9-2.5h0.6l0.9,2.5h-0.6L217.9,111.2z M217.3,110.7h0.4l-0.2-0.6
			L217.3,110.7z"/>
		<path fill="#3B17FF" d="M220.2,110.7l0.6,1.1h-0.7l-0.5-1h-0.2v1h-0.6v-2.5h0.9c0.5,0,0.8,0.3,0.8,0.7
			C220.5,110.3,220.4,110.5,220.2,110.7z M219.4,109.8v0.5h0.2c0.1,0,0.2-0.1,0.2-0.2s-0.1-0.2-0.2-0.2H219.4z"/>
		<path fill="#3B17FF" d="M220.8,111.8v-2.5h1.2v0.6h-0.6v0.4h0.6v0.6h-0.6v0.4h0.6v0.6L220.8,111.8L220.8,111.8z"/>
		<path fill="#3B17FF" d="M224.6,111.8h-0.6v-0.1c-0.1,0.1-0.3,0.2-0.6,0.2c-0.8,0-1.3-0.5-1.3-1.3c0-0.7,0.5-1.3,1.3-1.3
			c0.5,0,0.9,0.2,1,0.5l-0.5,0.3c-0.1-0.1-0.3-0.3-0.6-0.3c-0.4,0-0.7,0.3-0.7,0.7c0,0.5,0.3,0.7,0.7,0.7c0.3,0,0.5-0.1,0.5-0.2
			v-0.2h-0.4v-0.5h1L224.6,111.8L224.6,111.8z"/>
		<path fill="#3B17FF" d="M225.5,111.8h-0.6v-2.5h0.6V111.8z"/>
		<path fill="#3B17FF" d="M225.6,109.3h0.7l0.6,1.7l0.6-1.7h0.6l-0.9,2.5h-0.7L225.6,109.3z"/>
		<path fill="#3B17FF" d="M228.8,111.8h-0.6v-2.5h0.6V111.8z"/>
		<path fill="#3B17FF" d="M229.7,110.3v1.5h-0.6v-2.5h0.6l0.9,1.5v-1.5h0.6v2.5h-0.6L229.7,110.3z"/>
		<path fill="#3B17FF" d="M233.9,111.8h-0.6v-0.1c-0.1,0.1-0.3,0.2-0.6,0.2c-0.8,0-1.3-0.5-1.3-1.3c0-0.7,0.5-1.3,1.3-1.3
			c0.5,0,0.9,0.2,1.1,0.5l-0.5,0.3c-0.1-0.1-0.3-0.3-0.6-0.3c-0.4,0-0.7,0.3-0.7,0.7c0,0.5,0.3,0.7,0.7,0.7c0.3,0,0.5-0.1,0.5-0.2
			v-0.2H233v-0.5h1L233.9,111.8L233.9,111.8z"/>
	</g>
	<g>
		<g>
			<rect x="203.4" y="107.2" fill="#3B17FF" width="0.8" height="4.7"/>
		</g>
		<g>
			<circle fill="#3B17FF" cx="203.8" cy="106.2" r="0.6"/>
		</g>
		<g>
			<rect x="205.2" y="108.2" fill="#3B17FF" width="0.8" height="3.7"/>
		</g>
		<g>
			<circle fill="#3B17FF" cx="205.6" cy="107.2" r="0.6"/>
		</g>
		<g>
			<rect x="207" y="107.2" fill="#3B17FF" width="0.8" height="4.7"/>
		</g>
		<g>
			<circle fill="#3B17FF" cx="207.4" cy="106.2" r="0.6"/>
		</g>
		<g>
			<rect x="208.7" y="108.2" fill="#3B17FF" width="0.8" height="3.7"/>
		</g>
		<g>
			<circle fill="#3B17FF" cx="209.1" cy="107.2" r="0.6"/>
		</g>
	</g>
</g>
<g>
	<g>
		<path fill="#3B17FF" d="M554.9,107.6l-0.8-1.2h0.7l0.4,0.7l0.4-0.7h0.7l-0.8,1.2l0.8,1.3h-0.7l-0.5-0.8c-0.3,0.4-0.4,0.7-0.5,0.8
			h-0.7L554.9,107.6z"/>
		<path fill="#3B17FF" d="M556.4,107.6h0.9v0.5h-0.9V107.6z"/>
		<path fill="#3B17FF" d="M557.6,108.9v-2.5h0.6v1.9h0.6v0.6H557.6z"/>
		<path fill="#3B17FF" d="M560.4,108.3h-0.8l-0.2,0.6h-0.6l0.9-2.5h0.6l0.9,2.5h-0.6L560.4,108.3z M559.8,107.8h0.4l-0.2-0.6
			L559.8,107.8z"/>
		<path fill="#3B17FF" d="M562.3,108.9h-0.9v-2.5h0.9c0.5,0,0.8,0.3,0.8,0.7c0,0.2-0.1,0.4-0.3,0.5c0.2,0.1,0.3,0.3,0.3,0.6
			C563,108.6,562.7,108.9,562.3,108.9z M562,106.9v0.5h0.2c0.1,0,0.2-0.1,0.2-0.2s-0.1-0.2-0.2-0.2L562,106.9L562,106.9z M562,107.8
			v0.5h0.2c0.1,0,0.2-0.1,0.2-0.3s-0.1-0.2-0.2-0.2H562z"/>
	</g>
	<g>
		<g>
			
				<rect x="543.7" y="106.9" transform="matrix(0.7071 0.7071 -0.7071 0.7071 236.7331 -356.357)" fill="#3B17FF" width="9.7" height="1.4"/>
		</g>
		<g>
			
				<rect x="543.7" y="106.9" transform="matrix(-0.7071 0.7071 -0.7071 -0.7071 1012.4606 -204.2196)" fill="#3B17FF" width="9.7" height="1.4"/>
		</g>
	</g>
</g>
<g>
	<g>
		<path fill="#3B17FF" d="M159.8,105.8h-0.2v0.9H159v-2.2h0.8c0.5,0,0.7,0.2,0.7,0.7C160.5,105.5,160.2,105.8,159.8,105.8z
			 M159.5,105v0.4h0.2c0.1,0,0.2-0.1,0.2-0.2c0-0.1-0.1-0.2-0.2-0.2C159.7,105,159.5,105,159.5,105z"/>
		<path fill="#3B17FF" d="M161.7,104.5c0.7,0,1.1,0.5,1.1,1.1s-0.4,1.1-1.1,1.1c-0.7,0-1.1-0.5-1.1-1.1
			C160.5,105,161,104.5,161.7,104.5z M161.7,106.2c0.4,0,0.6-0.3,0.6-0.6s-0.2-0.6-0.6-0.6s-0.6,0.3-0.6,0.6
			C161.1,105.9,161.3,106.2,161.7,106.2z"/>
		<path fill="#3B17FF" d="M163.7,105.3l0.3,0.1c0.3,0.1,0.5,0.3,0.5,0.6c0,0.4-0.3,0.7-0.8,0.7c-0.6,0-0.7-0.4-0.7-0.7h0.5
			c0,0.1,0,0.3,0.2,0.3c0.1,0,0.2-0.1,0.2-0.2c0-0.1-0.1-0.2-0.2-0.2c-0.1,0-0.2-0.1-0.3-0.1c-0.2-0.1-0.3-0.3-0.3-0.6
			c0-0.4,0.3-0.7,0.7-0.7c0.5,0,0.7,0.3,0.7,0.7h-0.5c0-0.1-0.1-0.2-0.2-0.2c-0.1,0-0.2,0.1-0.2,0.2
			C163.5,105.2,163.5,105.2,163.7,105.3z"/>
		<path fill="#3B17FF" d="M165.3,105v1.7h-0.5V105h-0.4v-0.5h1.2v0.5H165.3z"/>
		<path fill="#3B17FF" d="M167,105.3l0.3,0.1c0.3,0.1,0.5,0.3,0.5,0.6c0,0.4-0.3,0.7-0.8,0.7c-0.6,0-0.7-0.4-0.7-0.7h0.5
			c0,0.1,0,0.3,0.2,0.3c0.1,0,0.2-0.1,0.2-0.2c0-0.1-0.1-0.2-0.2-0.2c-0.1,0-0.2-0.1-0.3-0.1c-0.2-0.1-0.3-0.3-0.3-0.6
			c0-0.4,0.3-0.7,0.7-0.7c0.5,0,0.7,0.3,0.7,0.7h-0.5c0-0.1-0.1-0.2-0.2-0.2c-0.1,0-0.2,0.1-0.2,0.2
			C166.8,105.2,166.9,105.2,167,105.3z"/>
		<path fill="#3B17FF" d="M167.9,106.7v-2.2h1v0.5h-0.5v0.3h0.5v0.5h-0.5v0.4h0.5v0.5L167.9,106.7L167.9,106.7z"/>
		<path fill="#3B17FF" d="M171,106.4c-0.2,0.2-0.4,0.3-0.7,0.3c-0.7,0-1.2-0.5-1.2-1.1s0.5-1.1,1.1-1.1c0.3,0,0.6,0.1,0.7,0.3
			l-0.3,0.4c-0.1-0.1-0.2-0.2-0.4-0.2c-0.4,0-0.6,0.3-0.6,0.6s0.2,0.6,0.6,0.6c0.2,0,0.3-0.1,0.4-0.2L171,106.4z"/>
		<path fill="#3B17FF" d="M172.1,104.5c0.7,0,1.1,0.5,1.1,1.1s-0.4,1.1-1.1,1.1c-0.7,0-1.1-0.5-1.1-1.1
			C171,105,171.4,104.5,172.1,104.5z M172.1,106.2c0.4,0,0.6-0.3,0.6-0.6s-0.2-0.6-0.6-0.6s-0.6,0.3-0.6,0.6
			C171.5,105.9,171.8,106.2,172.1,106.2z"/>
		<path fill="#3B17FF" d="M174,105.4v1.3h-0.5v-2.2h0.5l0.8,1.3v-1.3h0.5v2.2h-0.5L174,105.4z"/>
		<path fill="#3B17FF" d="M176.1,104.5c0.7,0,1.2,0.4,1.2,1.1c0,0.7-0.4,1.1-1.2,1.1h-0.5v-2.2H176.1z M176.1,106.2
			c0.4,0,0.6-0.2,0.6-0.6c0-0.4-0.2-0.6-0.6-0.6V106.2z"/>
		<path fill="#3B17FF" d="M178.6,106.2h-0.7l-0.2,0.5h-0.5l0.8-2.2h0.6l0.8,2.2h-0.6L178.6,106.2z M178,105.7h0.4l-0.2-0.6
			L178,105.7z"/>
		<path fill="#3B17FF" d="M180.6,105.7l0.5,1h-0.6l-0.4-0.9h-0.1v0.9h-0.5v-2.2h0.8c0.5,0,0.7,0.2,0.7,0.7
			C180.8,105.4,180.7,105.6,180.6,105.7z M179.9,105v0.4h0.2c0.1,0,0.2-0.1,0.2-0.2c0-0.1-0.1-0.2-0.2-0.2
			C180.1,105,179.9,105,179.9,105z"/>
		<path fill="#3B17FF" d="M180.8,104.5h0.6l0.3,0.6l0.3-0.6h0.6l-0.6,1.1v1.1h-0.5v-1.1L180.8,104.5z"/>
		<path fill="#3B17FF" d="M159.5,108.6v1.3H159v-2.2h0.5l0.8,1.3v-1.3h0.5v2.2h-0.5L159.5,108.6z"/>
		<path fill="#3B17FF" d="M162.4,109.3h-0.7l-0.2,0.5H161l0.8-2.2h0.6l0.8,2.2h-0.6L162.4,109.3z M161.8,108.9h0.4l-0.2-0.6
			L161.8,108.9z"/>
		<path fill="#3B17FF" d="M163.8,108.1v1.7h-0.5v-1.7h-0.4v-0.5h1.2v0.5H163.8z"/>
		<path fill="#3B17FF" d="M164.9,109.8h-0.5v-2.2h0.5V109.8z"/>
		<path fill="#3B17FF" d="M166.2,107.6c0.7,0,1.1,0.5,1.1,1.1s-0.4,1.1-1.1,1.1c-0.7,0-1.1-0.5-1.1-1.1
			C165.1,108.1,165.5,107.6,166.2,107.6z M166.2,109.4c0.4,0,0.6-0.3,0.6-0.6s-0.2-0.6-0.6-0.6s-0.6,0.3-0.6,0.6
			S165.9,109.4,166.2,109.4z"/>
		<path fill="#3B17FF" d="M168.1,108.6v1.3h-0.5v-2.2h0.5l0.8,1.3v-1.3h0.5v2.2h-0.5L168.1,108.6z"/>
		<path fill="#3B17FF" d="M170.9,109.3h-0.7l-0.2,0.5h-0.5l0.8-2.2h0.6l0.8,2.2h-0.6L170.9,109.3z M170.4,108.9h0.4l-0.2-0.6
			L170.4,108.9z"/>
		<path fill="#3B17FF" d="M171.7,109.8v-2.2h0.5v1.7h0.5v0.5H171.7z"/>
		<path fill="#3B17FF" d="M174.2,109h-0.2v0.9h-0.5v-2.2h0.8c0.5,0,0.7,0.2,0.7,0.7C174.9,108.7,174.6,109,174.2,109z M174,108.1
			v0.4h0.2c0.1,0,0.2-0.1,0.2-0.2s-0.1-0.2-0.2-0.2H174z"/>
		<path fill="#3B17FF" d="M176.1,107.6c0.7,0,1.1,0.5,1.1,1.1s-0.4,1.1-1.1,1.1c-0.7,0-1.1-0.5-1.1-1.1
			C175,108.1,175.4,107.6,176.1,107.6z M176.1,109.4c0.4,0,0.6-0.3,0.6-0.6s-0.2-0.6-0.6-0.6s-0.6,0.3-0.6,0.6
			S175.7,109.4,176.1,109.4z"/>
		<path fill="#3B17FF" d="M177.4,109.8v-2.2h0.5v1.7h0.5v0.5H177.4z"/>
		<path fill="#3B17FF" d="M179.2,109.8h-0.5v-2.2h0.5V109.8z"/>
		<path fill="#3B17FF" d="M181.2,109.6c-0.2,0.2-0.4,0.3-0.7,0.3c-0.7,0-1.2-0.5-1.2-1.1s0.5-1.1,1.1-1.1c0.3,0,0.6,0.1,0.7,0.3
			l-0.3,0.4c-0.1-0.1-0.2-0.2-0.4-0.2c-0.4,0-0.6,0.3-0.6,0.6s0.2,0.6,0.6,0.6c0.2,0,0.3-0.1,0.4-0.2L181.2,109.6z"/>
		<path fill="#3B17FF" d="M181.2,107.6h0.6l0.3,0.6l0.3-0.6h0.6l-0.6,1.1v1.1h-0.5v-1.1L181.2,107.6z"/>
		<path fill="#3B17FF" d="M159.6,113H159v-2.2h0.5V113z"/>
		<path fill="#3B17FF" d="M160.3,111.7v1.3h-0.5v-2.2h0.5l0.8,1.3v-1.3h0.5v2.2h-0.5L160.3,111.7z"/>
		<path fill="#3B17FF" d="M162.6,111.6l0.3,0.1c0.3,0.1,0.5,0.3,0.5,0.6c0,0.4-0.3,0.7-0.8,0.7c-0.6,0-0.7-0.4-0.7-0.7h0.5
			c0,0.1,0,0.3,0.2,0.3c0.1,0,0.2-0.1,0.2-0.2c0-0.1-0.1-0.2-0.2-0.2c-0.1,0-0.2-0.1-0.3-0.1c-0.2-0.1-0.3-0.3-0.3-0.6
			c0-0.4,0.3-0.7,0.7-0.7c0.5,0,0.7,0.3,0.7,0.7h-0.5c0-0.1-0.1-0.2-0.2-0.2c-0.1,0-0.2,0.1-0.2,0.2
			C162.4,111.5,162.5,111.5,162.6,111.6z"/>
		<path fill="#3B17FF" d="M164.3,111.3v1.7h-0.5v-1.7h-0.4v-0.5h1.2v0.5H164.3z"/>
		<path fill="#3B17FF" d="M165.3,113h-0.5v-2.2h0.5V113z"/>
		<path fill="#3B17FF" d="M166.4,111.3v1.7h-0.5v-1.7h-0.4v-0.5h1.2v0.5H166.4z"/>
		<path fill="#3B17FF" d="M166.9,112.1v-1.3h0.5v1.3c0,0.2,0.1,0.4,0.4,0.4s0.4-0.2,0.4-0.4v-1.3h0.5v1.3c0,0.5-0.3,0.9-0.9,0.9
			C167.2,113,166.9,112.7,166.9,112.1z"/>
		<path fill="#3B17FF" d="M169.8,111.3v1.7h-0.5v-1.7h-0.4v-0.5h1.2v0.5H169.8z"/>
		<path fill="#3B17FF" d="M170.3,113v-2.2h1v0.5h-0.5v0.3h0.5v0.5h-0.5v0.4h0.5v0.5L170.3,113L170.3,113z"/>
	</g>
	<g>
		<g>
			<path fill="#3B17FF" d="M151.6,113c-1.4,0-2.6-0.6-3.6-1.5l-0.1-0.1v-2.7h0.9v2.4c0.8,0.7,1.8,1.1,2.8,1.1s2.1-0.4,2.8-1.1v-2.4
				h0.9v2.7l-0.1,0.1C154.3,112.4,153,113,151.6,113z"/>
		</g>
		<g>
			<path fill="#3B17FF" d="M151.6,110.8l-6.3-3.1l6.3-3.1l6.3,3.1L151.6,110.8z M147.4,107.6l4.3,2.1l4.3-2.1l-4.3-2.1L147.4,107.6z
				"/>
		</g>
	</g>
</g>
<g>
	<g>
		<path fill="#3B17FF" d="M428.2,107v-2.5h1.2v0.6h-0.6v0.4h0.6v0.6h-0.6v0.4h0.6v0.6L428.2,107L428.2,107z"/>
		<path fill="#3B17FF" d="M431.7,106.7c-0.2,0.2-0.5,0.3-0.8,0.3c-0.8,0-1.3-0.6-1.3-1.3c0-0.7,0.5-1.3,1.3-1.3
			c0.4,0,0.7,0.1,0.9,0.3l-0.4,0.5c-0.1-0.1-0.3-0.2-0.5-0.2c-0.4,0-0.7,0.3-0.7,0.7c0,0.4,0.3,0.7,0.7,0.7c0.2,0,0.4-0.1,0.5-0.2
			L431.7,106.7z"/>
		<path fill="#3B17FF" d="M432.9,104.4c0.8,0,1.3,0.6,1.3,1.3s-0.5,1.3-1.3,1.3s-1.3-0.6-1.3-1.3S432.2,104.4,432.9,104.4z
			 M432.9,106.5c0.4,0,0.7-0.3,0.7-0.7c0-0.4-0.3-0.7-0.7-0.7c-0.4,0-0.7,0.3-0.7,0.7C432.3,106.1,432.5,106.5,432.9,106.5z"/>
		<path fill="#3B17FF" d="M435,105.5v1.5h-0.6v-2.5h0.6l0.9,1.5v-1.5h0.6v2.5H436L435,105.5z"/>
		<path fill="#3B17FF" d="M438.1,104.4c0.8,0,1.3,0.6,1.3,1.3s-0.5,1.3-1.3,1.3s-1.3-0.6-1.3-1.3S437.3,104.4,438.1,104.4z
			 M438.1,106.5c0.4,0,0.7-0.3,0.7-0.7c0-0.4-0.3-0.7-0.7-0.7c-0.4,0-0.7,0.3-0.7,0.7C437.5,106.1,437.7,106.5,438.1,106.5z"/>
		<path fill="#3B17FF" d="M441.4,107h-0.6l-0.6-1.7v1.7h-0.6v-2.5h0.9l0.6,1.7l0.6-1.7h0.9v2.5H442v-1.8L441.4,107z"/>
		<path fill="#3B17FF" d="M443.5,107h-0.6v-2.5h0.6V107z"/>
		<path fill="#3B17FF" d="M445.8,106.7c-0.2,0.2-0.5,0.3-0.8,0.3c-0.8,0-1.3-0.6-1.3-1.3c0-0.7,0.5-1.3,1.3-1.3
			c0.4,0,0.7,0.1,0.9,0.3l-0.4,0.5c-0.1-0.1-0.3-0.2-0.5-0.2c-0.4,0-0.7,0.3-0.7,0.7c0,0.4,0.3,0.7,0.7,0.7c0.2,0,0.4-0.1,0.5-0.2
			L445.8,106.7z"/>
		<path fill="#3B17FF" d="M430.6,110.6H430v-0.1c-0.1,0.1-0.3,0.2-0.6,0.2c-0.8,0-1.3-0.5-1.3-1.3c0-0.7,0.5-1.3,1.3-1.3
			c0.5,0,0.9,0.2,1,0.5l-0.5,0.3c-0.1-0.1-0.3-0.3-0.6-0.3c-0.4,0-0.7,0.3-0.7,0.7c0,0.5,0.3,0.7,0.7,0.7c0.3,0,0.5-0.1,0.5-0.2
			v-0.2h-0.4v-0.5h1L430.6,110.6L430.6,110.6z"/>
		<path fill="#3B17FF" d="M432.2,109.4l0.6,1.1h-0.7l-0.5-1h-0.2v1h-0.6v-2.5h0.9c0.5,0,0.8,0.3,0.8,0.7
			C432.5,109.1,432.4,109.3,432.2,109.4z M431.4,108.6v0.5h0.2c0.1,0,0.2-0.1,0.2-0.2s-0.1-0.2-0.2-0.2
			C431.6,108.6,431.4,108.6,431.4,108.6z"/>
		<path fill="#3B17FF" d="M433.9,108c0.8,0,1.3,0.6,1.3,1.3s-0.5,1.3-1.3,1.3s-1.3-0.6-1.3-1.3S433.1,108,433.9,108z M433.9,110.1
			c0.4,0,0.7-0.3,0.7-0.7c0-0.4-0.3-0.7-0.7-0.7c-0.4,0-0.7,0.3-0.7,0.7C433.3,109.7,433.5,110.1,433.9,110.1z"/>
		<path fill="#3B17FF" d="M437,109l-0.4,1.6h-0.7l-0.7-2.5h0.7l0.4,1.7l0.4-1.7h0.7l0.4,1.7l0.4-1.7h0.6l-0.7,2.5h-0.7L437,109z"/>
		<path fill="#3B17FF" d="M439.9,108.6v1.9h-0.6v-1.9h-0.4v-0.6h1.4v0.6H439.9z"/>
		<path fill="#3B17FF" d="M442.6,110.6H442v-1h-0.9v1h-0.6v-2.5h0.6v0.9h0.9v-0.9h0.6V110.6z"/>
	</g>
	<g>
		<g>
			
				<rect x="420.1" y="107.1" transform="matrix(0.7071 -0.7071 0.7071 0.7071 48.1042 331.0478)" fill="#3B17FF" width="7.1" height="0.8"/>
		</g>
		<g>
			<polygon fill="#3B17FF" points="424.1,104.5 426.7,104.5 426.7,107 425.9,107 425.9,105.2 424.1,105.2 			"/>
		</g>
		<g>
			<polygon fill="#3B17FF" points="426.7,110.6 420.6,110.6 420.6,104.5 421.3,104.5 421.3,109.8 426.7,109.8 			"/>
		</g>
	</g>
</g>
<g>
	<g>
		<path fill="#3B17FF" d="M375.3,106H375v1h-0.6v-2.5h0.9c0.5,0,0.8,0.3,0.8,0.7C376,105.7,375.7,106,375.3,106z M375,105v0.5h0.2
			c0.1,0,0.2-0.1,0.2-0.2s-0.1-0.2-0.2-0.2C375.2,105,375,105,375,105z"/>
		<path fill="#3B17FF" d="M377.4,104.4c0.8,0,1.3,0.6,1.3,1.3s-0.5,1.3-1.3,1.3s-1.3-0.6-1.3-1.3C376.1,105,376.7,104.4,377.4,104.4
			z M377.4,106.5c0.4,0,0.7-0.3,0.7-0.7c0-0.4-0.3-0.7-0.7-0.7c-0.4,0-0.7,0.3-0.7,0.7C376.8,106.1,377,106.5,377.4,106.5z"/>
		<path fill="#3B17FF" d="M379,107v-2.5h0.6v1.9h0.6v0.6C380.1,107,379,107,379,107z"/>
		<path fill="#3B17FF" d="M381,107h-0.6v-2.5h0.6V107z"/>
		<path fill="#3B17FF" d="M382.2,105v1.9h-0.6V105h-0.4v-0.6h1.4v0.6H382.2z"/>
		<path fill="#3B17FF" d="M383.4,107h-0.6v-2.5h0.6V107z"/>
		<path fill="#3B17FF" d="M385.8,106.7c-0.2,0.2-0.5,0.3-0.8,0.3c-0.8,0-1.3-0.6-1.3-1.3c0-0.7,0.5-1.3,1.3-1.3
			c0.4,0,0.7,0.1,0.9,0.3l-0.4,0.5c-0.1-0.1-0.3-0.2-0.5-0.2c-0.4,0-0.7,0.3-0.7,0.7c0,0.4,0.3,0.7,0.7,0.7c0.2,0,0.4-0.1,0.5-0.2
			L385.8,106.7z"/>
		<path fill="#3B17FF" d="M387.3,106.4h-0.8l-0.2,0.6h-0.6l0.9-2.5h0.6l0.9,2.5h-0.6L387.3,106.4z M386.7,105.9h0.4l-0.2-0.6
			L386.7,105.9z"/>
		<path fill="#3B17FF" d="M388.3,107v-2.5h0.6v1.9h0.6v0.6C389.5,107,388.3,107,388.3,107z"/>
		<path fill="#3B17FF" d="M375.7,109.4l0.6,1.1h-0.7l-0.5-1H375v1h-0.6v-2.5h0.9c0.5,0,0.8,0.3,0.8,0.7
			C376,109.1,375.9,109.3,375.7,109.4z M375,108.6v0.5h0.2c0.1,0,0.2-0.1,0.2-0.2s-0.1-0.2-0.2-0.2C375.2,108.6,375,108.6,375,108.6
			z"/>
		<path fill="#3B17FF" d="M376.4,110.6v-2.5h1.2v0.6H377v0.4h0.6v0.6H377v0.4h0.6v0.6L376.4,110.6L376.4,110.6z"/>
		<path fill="#3B17FF" d="M378.4,109.6v1h-0.6v-2.5h1.2v0.6h-0.6v0.4h0.6v0.6L378.4,109.6L378.4,109.6z"/>
		<path fill="#3B17FF" d="M380.5,108c0.8,0,1.3,0.6,1.3,1.3c0,0.7-0.5,1.3-1.3,1.3s-1.3-0.6-1.3-1.3
			C379.2,108.6,379.7,108,380.5,108z M380.5,110.1c0.4,0,0.7-0.3,0.7-0.7c0-0.4-0.3-0.7-0.7-0.7c-0.4,0-0.7,0.3-0.7,0.7
			C379.8,109.7,380.1,110.1,380.5,110.1z"/>
		<path fill="#3B17FF" d="M383.4,109.4l0.6,1.1h-0.7l-0.5-1h-0.2v1H382v-2.5h0.9c0.5,0,0.8,0.3,0.8,0.7
			C383.7,109.1,383.6,109.3,383.4,109.4z M382.6,108.6v0.5h0.2c0.1,0,0.2-0.1,0.2-0.2s-0.1-0.2-0.2-0.2
			C382.8,108.6,382.6,108.6,382.6,108.6z"/>
		<path fill="#3B17FF" d="M385.7,110.6h-0.6l-0.6-1.7v1.7H384v-2.5h0.9l0.6,1.7l0.6-1.7h0.9v2.5h-0.6v-1.7L385.7,110.6z"/>
	</g>
	<g>
		<g>
			<polygon fill="#3B17FF" points="369.4,109 367.7,107.2 368.3,106.6 369.4,107.8 372.9,104.3 373.5,104.9 			"/>
		</g>
		<g>
			<path fill="#3B17FF" d="M371.9,107.2c0,0.1,0,0.2,0,0.3c0,1.4-1.1,2.5-2.5,2.5s-2.5-1.1-2.5-2.5s1.1-2.5,2.5-2.5
				c0.6,0,1.1,0.2,1.5,0.5l0.6-0.6c-0.6-0.5-1.3-0.8-2.1-0.8c-1.8,0-3.3,1.5-3.3,3.3c0,1.8,1.5,3.3,3.3,3.3s3.3-1.5,3.3-3.3
				c0-0.4-0.1-0.7-0.2-1L371.9,107.2z"/>
		</g>
	</g>
</g>
<g>
	<g>
		<path fill="#3B17FF" d="M477.4,107.7h-0.6l-0.6-1.7v1.7h-0.6v-2.5h0.9l0.6,1.7l0.6-1.7h0.9v2.5H478V106L477.4,107.7z"/>
		<path fill="#3B17FF" d="M480.3,107.1h-0.8l-0.2,0.6h-0.6l0.9-2.5h0.6l0.9,2.5h-0.6L480.3,107.1z M479.7,106.6h0.4l-0.2-0.6
			L479.7,106.6z"/>
		<path fill="#3B17FF" d="M482.6,106.6l0.6,1.1h-0.7l-0.5-1h-0.2v1h-0.6v-2.5h0.9c0.5,0,0.8,0.3,0.8,0.7
			C482.9,106.2,482.8,106.5,482.6,106.6z M481.8,105.7v0.5h0.2c0.1,0,0.2-0.1,0.2-0.2s-0.1-0.2-0.2-0.2
			C482.1,105.7,481.8,105.7,481.8,105.7z"/>
		<path fill="#3B17FF" d="M483.8,106.2l0.7-1h0.7l-0.9,1.2l0.9,1.3h-0.7l-0.7-1v1h-0.6v-2.5h0.6V106.2z"/>
		<path fill="#3B17FF" d="M485.3,107.7v-2.5h1.2v0.6h-0.6v0.4h0.6v0.6h-0.6v0.4h0.6v0.6L485.3,107.7L485.3,107.7z"/>
		<path fill="#3B17FF" d="M487.7,105.8v1.9h-0.6v-1.9h-0.4v-0.6h1.4v0.6H487.7z"/>
		<path fill="#3B17FF" d="M489.1,106.1l0.3,0.1c0.3,0.1,0.5,0.4,0.5,0.7c0,0.5-0.4,0.8-0.9,0.8c-0.7,0-0.9-0.5-0.8-0.8h0.6
			c0,0.2,0.1,0.3,0.3,0.3c0.1,0,0.2-0.1,0.2-0.2c0-0.1-0.1-0.2-0.3-0.3c-0.1-0.1-0.3-0.1-0.4-0.2c-0.3-0.1-0.4-0.4-0.4-0.7
			c0-0.4,0.3-0.7,0.8-0.7c0.6,0,0.8,0.3,0.8,0.8h-0.6c0-0.2-0.1-0.3-0.2-0.3c-0.1,0-0.2,0.1-0.2,0.2
			C488.8,106,488.9,106.1,489.1,106.1z"/>
		<path fill="#3B17FF" d="M490.3,107.7c-0.1,0-0.2-0.2-0.2-0.3c0-0.2,0.1-0.4,0.4-0.4s0.4,0.2,0.4,0.4c0,0.1,0,0.2-0.1,0.3l-0.2,0.4
			H490L490.3,107.7z"/>
		<path fill="#3B17FF" d="M491.5,107.7v-2.5h1.2v0.6h-0.6v0.4h0.6v0.6h-0.6v0.4h0.6v0.6L491.5,107.7L491.5,107.7z"/>
		<path fill="#3B17FF" d="M493.5,106.2v1.5h-0.6v-2.5h0.6l0.9,1.5v-1.5h0.6v2.5h-0.6L493.5,106.2z"/>
		<path fill="#3B17FF" d="M496.3,105.8v1.9h-0.6v-1.9h-0.4v-0.6h1.4v0.6H496.3z"/>
		<path fill="#3B17FF" d="M496.9,107.7v-2.5h1.2v0.6h-0.6v0.4h0.6v0.6h-0.6v0.4h0.6v0.6L496.9,107.7L496.9,107.7z"/>
		<path fill="#3B17FF" d="M499.6,106.6l0.6,1.1h-0.7l-0.5-1h-0.2v1h-0.6v-2.5h0.9c0.5,0,0.8,0.3,0.8,0.7
			C500,106.2,499.8,106.5,499.6,106.6z M498.9,105.7v0.5h0.2c0.1,0,0.2-0.1,0.2-0.2s-0.1-0.2-0.2-0.2
			C499.1,105.7,498.9,105.7,498.9,105.7z"/>
		<path fill="#3B17FF" d="M501.2,106.7h-0.3v1h-0.6v-2.5h0.9c0.5,0,0.8,0.3,0.8,0.7C501.9,106.4,501.6,106.7,501.2,106.7z
			 M500.9,105.7v0.5h0.2c0.1,0,0.2-0.1,0.2-0.2s-0.1-0.2-0.2-0.2C501.1,105.7,500.9,105.7,500.9,105.7z"/>
		<path fill="#3B17FF" d="M503.4,106.6l0.6,1.1h-0.7l-0.5-1h-0.2v1h-0.6v-2.5h0.9c0.5,0,0.8,0.3,0.8,0.7
			C503.8,106.2,503.6,106.5,503.4,106.6z M502.7,105.7v0.5h0.2c0.1,0,0.2-0.1,0.2-0.2s-0.1-0.2-0.2-0.2
			C502.9,105.7,502.7,105.7,502.7,105.7z"/>
		<path fill="#3B17FF" d="M504.7,107.7h-0.6v-2.5h0.6V107.7z"/>
		<path fill="#3B17FF" d="M505.8,106.1l0.3,0.1c0.3,0.1,0.5,0.4,0.5,0.7c0,0.5-0.4,0.8-0.9,0.8c-0.7,0-0.9-0.5-0.8-0.8h0.6
			c0,0.2,0.1,0.3,0.3,0.3c0.1,0,0.2-0.1,0.2-0.2c0-0.1-0.1-0.2-0.3-0.3c-0.1-0.1-0.3-0.1-0.4-0.2c-0.3-0.1-0.4-0.4-0.4-0.7
			c0-0.4,0.3-0.7,0.8-0.7c0.6,0,0.8,0.3,0.8,0.8H506c0-0.2-0.1-0.3-0.2-0.3s-0.2,0.1-0.2,0.2C505.5,106,505.6,106.1,505.8,106.1z"/>
		<path fill="#3B17FF" d="M506.8,107.7v-2.5h1.2v0.6h-0.6v0.4h0.6v0.6h-0.6v0.4h0.6v0.6L506.8,107.7L506.8,107.7z"/>
		<path fill="#3B17FF" d="M477.3,111.2c-0.2,0.1-0.4,0.2-0.6,0.2c-0.7,0-1-0.3-1-0.8c0-0.3,0.1-0.5,0.4-0.7
			c-0.1-0.1-0.2-0.3-0.2-0.4c0-0.4,0.3-0.7,0.8-0.7c0.5,0,0.8,0.3,0.8,0.7c0,0.3-0.2,0.5-0.5,0.6l0.3,0.3c0-0.1,0-0.3,0-0.4h0.6
			c0,0.3,0,0.6-0.2,0.8l0.5,0.5h-0.7L477.3,111.2z M476.9,110.8l-0.5-0.6c-0.1,0.1-0.1,0.1-0.1,0.2c0,0.2,0.2,0.4,0.4,0.4
			C476.7,110.8,476.8,110.8,476.9,110.8z M476.6,109.7c0.1,0,0.2-0.1,0.2-0.2s-0.1-0.2-0.2-0.2c-0.1,0-0.2,0.1-0.2,0.2
			S476.5,109.7,476.6,109.7z"/>
		<path fill="#3B17FF" d="M480,110.2l0.6,1.1h-0.7l-0.5-1h-0.2v1h-0.6v-2.5h0.9c0.5,0,0.8,0.3,0.8,0.7
			C480.3,109.8,480.2,110.1,480,110.2z M479.3,109.3v0.5h0.2c0.1,0,0.2-0.1,0.2-0.2c0-0.1-0.1-0.2-0.2-0.2
			C479.5,109.3,479.3,109.3,479.3,109.3z"/>
		<path fill="#3B17FF" d="M480.7,111.3v-2.5h1.2v0.6h-0.6v0.4h0.6v0.6h-0.6v0.4h0.6v0.6L480.7,111.3L480.7,111.3z"/>
		<path fill="#3B17FF" d="M482.9,109.7l0.3,0.1c0.3,0.1,0.5,0.4,0.5,0.7c0,0.5-0.4,0.8-0.9,0.8c-0.7,0-0.9-0.5-0.8-0.8h0.6
			c0,0.2,0.1,0.3,0.3,0.3c0.1,0,0.2-0.1,0.2-0.2c0-0.1-0.1-0.2-0.3-0.3c-0.1-0.1-0.3-0.1-0.4-0.2c-0.3-0.1-0.4-0.4-0.4-0.7
			c0-0.4,0.3-0.7,0.8-0.7c0.6,0,0.8,0.3,0.8,0.8h-0.6c0-0.2-0.1-0.3-0.2-0.3s-0.2,0.1-0.2,0.2C482.7,109.6,482.7,109.7,482.9,109.7z
			"/>
		<path fill="#3B17FF" d="M484.6,111.3H484v-2.5h0.6V111.3z"/>
		<path fill="#3B17FF" d="M484.9,111.3v-2.5h0.6v1.9h0.6v0.6C486,111.3,484.9,111.3,484.9,111.3z"/>
		<path fill="#3B17FF" d="M486.9,111.3h-0.6v-2.5h0.6V111.3z"/>
		<path fill="#3B17FF" d="M487.2,111.3v-2.5h1.2v0.6h-0.6v0.4h0.6v0.6h-0.6v0.4h0.6v0.6L487.2,111.3L487.2,111.3z"/>
		<path fill="#3B17FF" d="M489.2,109.8v1.5h-0.6v-2.5h0.6l0.9,1.5v-1.5h0.6v2.5h-0.6L489.2,109.8z"/>
		<path fill="#3B17FF" d="M493.1,111c-0.2,0.2-0.5,0.3-0.8,0.3c-0.8,0-1.3-0.6-1.3-1.3c0-0.7,0.5-1.3,1.3-1.3c0.4,0,0.7,0.1,0.9,0.3
			l-0.4,0.5c-0.1-0.1-0.3-0.2-0.5-0.2c-0.4,0-0.7,0.3-0.7,0.7c0,0.4,0.3,0.7,0.7,0.7c0.2,0,0.4-0.1,0.5-0.2L493.1,111z"/>
		<path fill="#3B17FF" d="M493.1,108.8h0.7l0.3,0.7l0.4-0.7h0.6l-0.7,1.3v1.2h-0.6v-1.2L493.1,108.8z"/>
		<path fill="#3B17FF" d="M496.3,111.3h-0.6v-2.5h0.6V111.3z"/>
		<path fill="#3B17FF" d="M497.2,109.8v1.5h-0.6v-2.5h0.6l0.9,1.5v-1.5h0.6v2.5h-0.6L497.2,109.8z"/>
		<path fill="#3B17FF" d="M499.7,111.3h-0.6v-2.5h0.6V111.3z"/>
		<path fill="#3B17FF" d="M500.9,109.4v1.9h-0.6v-1.9h-0.4v-0.6h1.4v0.6H500.9z"/>
		<path fill="#3B17FF" d="M502.1,111.3h-0.6v-2.5h0.6V111.3z"/>
		<path fill="#3B17FF" d="M503.8,110.7H503l-0.2,0.6h-0.6l0.9-2.5h0.6l0.9,2.5h-0.6L503.8,110.7z M503.2,110.2h0.4l-0.2-0.6
			L503.2,110.2z"/>
		<path fill="#3B17FF" d="M505.5,109.4v1.9h-0.6v-1.9h-0.4v-0.6h1.4v0.6H505.5z"/>
		<path fill="#3B17FF" d="M506.7,111.3h-0.6v-2.5h0.6V111.3z"/>
		<path fill="#3B17FF" d="M506.8,108.8h0.7l0.6,1.7l0.6-1.7h0.6l-0.9,2.5h-0.7L506.8,108.8z"/>
		<path fill="#3B17FF" d="M509.4,111.3v-2.5h1.2v0.6H510v0.4h0.6v0.6H510v0.4h0.6v0.6L509.4,111.3L509.4,111.3z"/>
	</g>
	<g>
		<g>
			<g>
				<rect x="467.8" y="107.2" fill="#3B17FF" width="0.7" height="3.7"/>
			</g>
			<g>
				<rect x="469.3" y="107.2" fill="#3B17FF" width="0.7" height="3.7"/>
			</g>
			<g>
				<rect x="470.8" y="107.2" fill="#3B17FF" width="0.7" height="3.7"/>
			</g>
			<g>
				<rect x="472.3" y="107.2" fill="#3B17FF" width="0.7" height="3.7"/>
			</g>
		</g>
		<g>
			<polygon fill="#3B17FF" points="474.2,107.1 470.4,105.9 466.6,107.1 466.6,106.3 470.4,105.2 474.2,106.3 			"/>
		</g>
		<g>
			<rect x="466.6" y="110.6" fill="#3B17FF" width="7.6" height="0.7"/>
		</g>
		<g>
			<polygon fill="#3B17FF" points="470.7,105.6 470,105.6 470,103.7 471.5,103.7 471.5,104.4 470.7,104.4 			"/>
		</g>
	</g>
</g>
<g>
	<g>
		<path fill="#3B17FF" d="M603.4,105.5v1.5h-0.6v-2.5h0.6l0.9,1.5v-1.5h0.6v2.5h-0.6L603.4,105.5z"/>
		<path fill="#3B17FF" d="M605.3,107v-2.5h1.2v0.6h-0.6v0.4h0.6v0.6h-0.6v0.4h0.6v0.6L605.3,107L605.3,107z"/>
		<path fill="#3B17FF" d="M608.4,105.4L608,107h-0.7l-0.7-2.5h0.7l0.4,1.7l0.4-1.7h0.7l0.4,1.7l0.4-1.7h0.6l-0.7,2.5h-0.7
			L608.4,105.4z"/>
		<path fill="#3B17FF" d="M604.3,110h-0.8l-0.2,0.6h-0.6l0.9-2.5h0.6l0.9,2.5h-0.6L604.3,110z M603.7,109.5h0.4l-0.2-0.6
			L603.7,109.5z"/>
		<path fill="#3B17FF" d="M606.9,110.6h-0.6l-0.6-1.7v1.7h-0.6v-2.5h0.9l0.6,1.7l0.6-1.7h0.9v2.5h-0.6v-1.7L606.9,110.6z"/>
		<path fill="#3B17FF" d="M608.4,110.6v-2.5h1.2v0.6H609v0.4h0.6v0.6H609v0.4h0.6v0.6L608.4,110.6L608.4,110.6z"/>
		<path fill="#3B17FF" d="M611.2,109.5l0.6,1.1h-0.7l-0.5-1h-0.2v1h-0.6v-2.5h0.9c0.5,0,0.8,0.3,0.8,0.7
			C611.5,109.1,611.4,109.3,611.2,109.5z M610.5,108.6v0.5h0.2c0.1,0,0.2-0.1,0.2-0.2s-0.1-0.2-0.2-0.2H610.5z"/>
		<path fill="#3B17FF" d="M612.4,110.6h-0.6v-2.5h0.6V110.6z"/>
		<path fill="#3B17FF" d="M614.8,110.3c-0.2,0.2-0.5,0.3-0.8,0.3c-0.8,0-1.3-0.6-1.3-1.3c0-0.7,0.5-1.3,1.3-1.3
			c0.4,0,0.7,0.1,0.9,0.3l-0.4,0.5c-0.1-0.1-0.3-0.2-0.5-0.2c-0.4,0-0.7,0.3-0.7,0.7c0,0.4,0.3,0.7,0.7,0.7c0.2,0,0.4-0.1,0.5-0.2
			L614.8,110.3z"/>
		<path fill="#3B17FF" d="M616.4,110h-0.8l-0.2,0.6h-0.6l0.9-2.5h0.6l0.9,2.5h-0.6L616.4,110z M615.8,109.5h0.4l-0.2-0.6
			L615.8,109.5z"/>
		<path fill="#3B17FF" d="M617.9,110.6v-2.5h0.6v1.9h0.6v0.6H617.9z"/>
		<path fill="#3B17FF" d="M619.9,110.6h-0.6v-2.5h0.6V110.6z"/>
		<path fill="#3B17FF" d="M620,108.1h0.7l0.6,1.7l0.6-1.7h0.6l-0.9,2.5h-0.7L620,108.1z"/>
		<path fill="#3B17FF" d="M622.6,110.6v-2.5h1.2v0.6h-0.6v0.4h0.6v0.6h-0.6v0.4h0.6v0.6L622.6,110.6L622.6,110.6z"/>
	</g>
	<g>
		<path fill="#3B17FF" d="M596,110.6v-1.8h-1.3v-4.4h6.6v4.4h-3.5L596,110.6z M595.4,108.2h1.3v0.8l0.9-0.8h3.1v-3h-5.3V108.2z"/>
	</g>
</g>
<g>
	<g>
		<path fill="#3B17FF" d="M658.6,105.5v1.5H658v-2.5h0.6l0.9,1.5v-1.5h0.6v2.5h-0.6L658.6,105.5z"/>
		<path fill="#3B17FF" d="M660.4,107v-2.5h1.2v0.6H661v0.4h0.6v0.6H661v0.4h0.6v0.6L660.4,107L660.4,107z"/>
		<path fill="#3B17FF" d="M663.5,105.4l-0.4,1.6h-0.7l-0.7-2.5h0.7l0.4,1.7l0.4-1.7h0.7l0.4,1.7l0.4-1.7h0.6l-0.7,2.5h-0.7
			L663.5,105.4z"/>
		<path fill="#3B17FF" d="M659.4,110h-0.8l-0.2,0.6h-0.6l0.9-2.5h0.6l0.9,2.5h-0.6L659.4,110z M658.8,109.5h0.4l-0.2-0.6
			L658.8,109.5z"/>
		<path fill="#3B17FF" d="M662.1,110.6h-0.6l-0.6-1.7v1.7h-0.6v-2.5h0.9l0.6,1.7l0.6-1.7h0.9v2.5h-0.6v-1.7L662.1,110.6z"/>
		<path fill="#3B17FF" d="M663.5,110.6v-2.5h1.2v0.6h-0.6v0.4h0.6v0.6h-0.6v0.4h0.6v0.6L663.5,110.6L663.5,110.6z"/>
		<path fill="#3B17FF" d="M666.3,109.5l0.6,1.1h-0.7l-0.5-1h-0.2v1H665v-2.5h0.9c0.5,0,0.8,0.3,0.8,0.7
			C666.6,109.1,666.5,109.3,666.3,109.5z M665.6,108.6v0.5h0.2c0.1,0,0.2-0.1,0.2-0.2s-0.1-0.2-0.2-0.2H665.6z"/>
		<path fill="#3B17FF" d="M667.6,110.6H667v-2.5h0.6V110.6z"/>
		<path fill="#3B17FF" d="M669.9,110.3c-0.2,0.2-0.5,0.3-0.8,0.3c-0.8,0-1.3-0.6-1.3-1.3c0-0.7,0.5-1.3,1.3-1.3
			c0.4,0,0.7,0.1,0.9,0.3l-0.4,0.5c-0.1-0.1-0.3-0.2-0.5-0.2c-0.4,0-0.7,0.3-0.7,0.7c0,0.4,0.3,0.7,0.7,0.7c0.2,0,0.4-0.1,0.5-0.2
			L669.9,110.3z"/>
		<path fill="#3B17FF" d="M671.5,110h-0.8l-0.2,0.6h-0.6l0.9-2.5h0.6l0.9,2.5h-0.6L671.5,110z M670.9,109.5h0.4l-0.2-0.6
			L670.9,109.5z"/>
		<path fill="#3B17FF" d="M673.6,109.1v1.5H673v-2.5h0.6l0.9,1.5v-1.5h0.6v2.5h-0.6L673.6,109.1z"/>
		<path fill="#3B17FF" d="M675.2,108.1h0.7l0.3,0.7l0.4-0.7h0.6l-0.7,1.2v1.2h-0.6v-1.2L675.2,108.1z"/>
		<path fill="#3B17FF" d="M679.2,110.3c-0.2,0.2-0.5,0.3-0.8,0.3c-0.8,0-1.3-0.6-1.3-1.3c0-0.7,0.5-1.3,1.3-1.3
			c0.4,0,0.7,0.1,0.9,0.3l-0.4,0.5c-0.1-0.1-0.3-0.2-0.5-0.2c-0.4,0-0.7,0.3-0.7,0.7c0,0.4,0.3,0.7,0.7,0.7c0.2,0,0.4-0.1,0.5-0.2
			L679.2,110.3z"/>
	</g>
	<g>
		<g>
			<path fill="#3B17FF" d="M653.3,110.8c-1.8,0-3.2-1.4-3.2-3.2c0-1.8,1.4-3.2,3.2-3.2s3.2,1.4,3.2,3.2
				C656.6,109.4,655.1,110.8,653.3,110.8z M653.3,104.8c-1.5,0-2.8,1.2-2.8,2.8c0,1.5,1.2,2.8,2.8,2.8s2.8-1.2,2.8-2.8
				C656.1,106.1,654.9,104.8,653.3,104.8z"/>
		</g>
		<g>
			<path fill="#3B17FF" d="M653.3,108.4c-0.5,0-0.8-0.4-0.8-0.8c0-0.5,0.4-0.8,0.8-0.8s0.8,0.4,0.8,0.8
				C654.2,108,653.8,108.4,653.3,108.4z M653.3,107.2c-0.2,0-0.4,0.2-0.4,0.4s0.2,0.4,0.4,0.4s0.4-0.2,0.4-0.4
				C653.7,107.4,653.5,107.2,653.3,107.2z"/>
		</g>
		<g>
			<path fill="#3B17FF" d="M653.3,109.6c-1.1,0-2-0.9-2-2c0-1.1,0.9-2,2-2c1.1,0,2,0.9,2,2C655.4,108.7,654.5,109.6,653.3,109.6z
				 M653.3,106c-0.9,0-1.6,0.7-1.6,1.6c0,0.9,0.7,1.6,1.6,1.6c0.9,0,1.6-0.7,1.6-1.6C654.9,106.7,654.2,106,653.3,106z"/>
		</g>
	</g>
</g>
<g>
	<g>
		<path fill="#3B17FF" d="M716.2,105.1v1.9h-0.6v-1.9h-0.4v-0.6h1.4v0.6H716.2z"/>
		<path fill="#3B17FF" d="M718.9,107h-0.6v-1h-0.9v1h-0.6v-2.5h0.6v0.9h0.9v-0.9h0.6V107z"/>
		<path fill="#3B17FF" d="M719.2,107v-2.5h1.2v0.6h-0.6v0.4h0.6v0.6h-0.6v0.4h0.6v0.6L719.2,107L719.2,107z"/>
		<path fill="#3B17FF" d="M722.9,105.4l-0.4,1.6h-0.7l-0.7-2.5h0.7l0.4,1.7l0.4-1.7h0.7l0.4,1.7l0.4-1.7h0.6L724,107h-0.7
			L722.9,105.4z"/>
		<path fill="#3B17FF" d="M724.8,107v-2.5h1.2v0.6h-0.6v0.4h0.6v0.6h-0.6v0.4h0.6v0.6L724.8,107L724.8,107z"/>
		<path fill="#3B17FF" d="M726.2,107v-2.5h1.2v0.6h-0.6v0.4h0.6v0.6h-0.6v0.4h0.6v0.6L726.2,107L726.2,107z"/>
		<path fill="#3B17FF" d="M728.3,105.5l0.7-1h0.7l-0.9,1.2l0.9,1.3h-0.7l-0.7-1v1h-0.6v-2.5h0.6V105.5z"/>
		<path fill="#3B17FF" d="M729.8,107v-2.5h0.6v1.9h0.6v0.6H729.8z"/>
		<path fill="#3B17FF" d="M730.7,104.5h0.7l0.3,0.7l0.4-0.7h0.6l-0.7,1.2v1.2h-0.6v-1.2L730.7,104.5z"/>
		<path fill="#3B17FF" d="M716.9,109l-0.4,1.6h-0.7l-0.7-2.5h0.7l0.4,1.7l0.4-1.7h0.7l0.4,1.7l0.4-1.7h0.6l-0.7,2.5h-0.7L716.9,109z
			"/>
		<path fill="#3B17FF" d="M720,108.1c0.8,0,1.3,0.6,1.3,1.3s-0.5,1.3-1.3,1.3s-1.3-0.6-1.3-1.3S719.2,108.1,720,108.1z M720,110.1
			c0.4,0,0.7-0.3,0.7-0.7c0-0.4-0.3-0.7-0.7-0.7c-0.4,0-0.7,0.3-0.7,0.7C719.3,109.8,719.6,110.1,720,110.1z"/>
		<path fill="#3B17FF" d="M722.1,109.1v1.5h-0.6v-2.5h0.6l0.9,1.5v-1.5h0.6v2.5H723L722.1,109.1z"/>
		<path fill="#3B17FF" d="M724.6,109.1l0.7-1h0.7l-0.9,1.2l0.9,1.3h-0.7l-0.7-1v1H724v-2.5h0.6V109.1z"/>
	</g>
	<g>
		<g>
			<g>
				<rect x="709" y="106.9" fill="#3B17FF" width="3.1" height="0.4"/>
			</g>
		</g>
		<g>
			<g>
				<rect x="709" y="107.8" fill="#3B17FF" width="2.1" height="0.4"/>
			</g>
		</g>
		<g>
			<g>
				<path fill="#3B17FF" d="M712.1,107.9c0.1,0.1,0.1,0.3,0,0.4s-0.3,0.1-0.4,0s-0.1-0.3,0-0.4C711.8,107.8,712,107.8,712.1,107.9"
					/>
			</g>
		</g>
		<g>
			<g>
				<g>
					<path fill="#3B17FF" d="M710.7,110.8c-1.8,0-3.2-1.4-3.2-3.2c0-1.8,1.4-3.2,3.2-3.2s3.2,1.4,3.2,3.2
						C713.9,109.4,712.4,110.8,710.7,110.8z M710.7,104.9c-1.4,0-2.6,1.2-2.6,2.6c0,1.5,1.2,2.6,2.6,2.6c1.5,0,2.6-1.2,2.6-2.6
						S712.1,104.9,710.7,104.9z"/>
				</g>
			</g>
		</g>
	</g>
</g>
<g>
	<g>
		<path fill="#3B17FF" d="M104.6,108.2v-2.5h1.2v0.6h-0.6v0.4h0.6v0.6h-0.6v0.4h0.6v0.6L104.6,108.2L104.6,108.2z"/>
		<path fill="#3B17FF" d="M106.6,105.7c0.8,0,1.3,0.5,1.3,1.2c0,0.8-0.5,1.2-1.3,1.2H106v-2.5H106.6z M106.6,107.7
			c0.4,0,0.7-0.2,0.7-0.7s-0.3-0.7-0.7-0.7V107.7z"/>
		<path fill="#3B17FF" d="M108.1,107.2v-1.5h0.6v1.5c0,0.3,0.1,0.5,0.4,0.5c0.3,0,0.4-0.2,0.4-0.5v-1.5h0.6v1.5c0,0.6-0.3,1-1,1
			C108.5,108.3,108.1,107.8,108.1,107.2z"/>
		<path fill="#3B17FF" d="M112.6,107.9c-0.2,0.2-0.5,0.3-0.8,0.3c-0.8,0-1.3-0.6-1.3-1.3c0-0.7,0.5-1.3,1.3-1.3
			c0.4,0,0.7,0.1,0.9,0.3l-0.4,0.5c-0.1-0.1-0.3-0.2-0.5-0.2c-0.4,0-0.7,0.3-0.7,0.7s0.3,0.7,0.7,0.7c0.2,0,0.4-0.1,0.5-0.2
			L112.6,107.9z"/>
		<path fill="#3B17FF" d="M114.1,107.6h-0.8l-0.2,0.6h-0.6l0.9-2.5h0.6l0.9,2.5h-0.6L114.1,107.6z M113.5,107.1h0.4l-0.2-0.6
			L113.5,107.1z"/>
		<path fill="#3B17FF" d="M115.8,106.3v1.9h-0.6v-1.9h-0.4v-0.6h1.4v0.6H115.8z"/>
		<path fill="#3B17FF" d="M117,108.2h-0.6v-2.5h0.6V108.2z"/>
		<path fill="#3B17FF" d="M118.5,105.7c0.8,0,1.3,0.6,1.3,1.3c0,0.7-0.5,1.3-1.3,1.3s-1.3-0.6-1.3-1.3
			C117.2,106.2,117.8,105.7,118.5,105.7z M118.5,107.7c0.4,0,0.7-0.3,0.7-0.7s-0.3-0.7-0.7-0.7c-0.4,0-0.7,0.3-0.7,0.7
			C117.9,107.4,118.1,107.7,118.5,107.7z"/>
		<path fill="#3B17FF" d="M120.7,106.7v1.5h-0.6v-2.5h0.6l0.9,1.5v-1.5h0.6v2.5h-0.6L120.7,106.7z"/>
		<path fill="#3B17FF" d="M105.5,110.8h-0.3v1h-0.6v-2.5h0.9c0.5,0,0.8,0.3,0.8,0.7C106.2,110.5,105.9,110.8,105.5,110.8z
			 M105.2,109.8v0.5h0.2c0.1,0,0.2-0.1,0.2-0.2s-0.1-0.2-0.2-0.2H105.2z"/>
		<path fill="#3B17FF" d="M107.6,109.3c0.8,0,1.3,0.6,1.3,1.3c0,0.7-0.5,1.3-1.3,1.3s-1.3-0.6-1.3-1.3
			C106.3,109.8,106.9,109.3,107.6,109.3z M107.7,111.3c0.4,0,0.7-0.3,0.7-0.7s-0.3-0.7-0.7-0.7c-0.4,0-0.7,0.3-0.7,0.7
			C107,111,107.2,111.3,107.7,111.3z"/>
		<path fill="#3B17FF" d="M109.2,111.8v-2.5h0.6v1.9h0.6v0.6H109.2z"/>
		<path fill="#3B17FF" d="M111.2,111.8h-0.6v-2.5h0.6V111.8z"/>
		<path fill="#3B17FF" d="M113.5,111.5c-0.2,0.2-0.5,0.3-0.8,0.3c-0.8,0-1.3-0.6-1.3-1.3c0-0.7,0.5-1.3,1.3-1.3
			c0.4,0,0.7,0.1,0.9,0.3l-0.4,0.5c-0.1-0.1-0.3-0.2-0.5-0.2c-0.4,0-0.7,0.3-0.7,0.7c0,0.4,0.3,0.7,0.7,0.7c0.2,0,0.4-0.1,0.5-0.2
			L113.5,111.5z"/>
		<path fill="#3B17FF" d="M113.5,109.3h0.7l0.3,0.7l0.4-0.7h0.6l-0.7,1.2v1.2h-0.6v-1.2L113.5,109.3z"/>
	</g>
	<g>
		<g>
			<rect x="102" y="105.6" fill="#3B17FF" width="0.9" height="6.1"/>
		</g>
		<g>
			<rect x="100.2" y="105.6" fill="#3B17FF" width="0.9" height="6.1"/>
		</g>
		<g>
			<rect x="98.3" y="105.6" fill="#3B17FF" width="0.9" height="6.1"/>
		</g>
		<g>
			
				<rect x="94.5" y="109" transform="matrix(0.4921 -0.8705 0.8705 0.4921 -46.0538 140.0002)" fill="#3B17FF" width="4.8" height="0.9"/>
		</g>
	</g>
</g>
</svg>
