<?xml version="1.0" encoding="utf-8"?>
<!-- Generator: Adobe Illustrator 16.0.0, SVG Export Plug-In . SVG Version: 6.00 Build 0)  -->
<!DOCTYPE svg PUBLIC "-//W3C//DTD SVG 1.1//EN" "http://www.w3.org/Graphics/SVG/1.1/DTD/svg11.dtd">
<svg version="1.1" id="Layer_1" xmlns="http://www.w3.org/2000/svg" xmlns:xlink="http://www.w3.org/1999/xlink" x="0px" y="0px"
	 width="99.591px" height="119.842px" viewBox="0 0 99.591 119.842" enable-background="new 0 0 99.591 119.842"
	 xml:space="preserve">
<g>
	<g>
		<g>
			<rect x="18.712" y="26.528" fill="#333132" width="20.273" height="2.838"/>
			<rect x="18.712" y="20.718" fill="#333132" width="20.273" height="2.905"/>
			<rect x="23.714" y="14.906" fill="#333132" width="15.271" height="2.905"/>
			<circle fill="#333132" cx="20.32" cy="16.365" r="1.624"/>
		</g>
		<path fill="#333132" d="M28.841,6.369c8.649,0,15.686,7.036,15.686,15.685S37.49,37.739,28.841,37.739
			s-15.686-7.037-15.686-15.686S20.191,6.369,28.841,6.369 M28.841,3.199c-10.414,0-18.855,8.441-18.855,18.855
			c0,10.415,8.441,18.856,18.855,18.856c10.415,0,18.855-8.441,18.855-18.856C47.696,11.64,39.256,3.199,28.841,3.199L28.841,3.199z
			"/>
	</g>
	<g>
		<path fill="#333232" d="M19.088,56.363v12.678H15.59V56.363h-4.84v-3.225h13.178v3.225H19.088z"/>
		<path fill="#333232" d="M32.811,69.041v-6.777c0-0.814-0.182-1.432-0.545-1.846s-0.879-0.624-1.545-0.624
			s-1.193,0.209-1.578,0.624c-0.387,0.414-0.58,1.031-0.58,1.846v6.777h-3.453V52.457h3.453v6.148
			c0.197-0.26,0.412-0.508,0.648-0.744c0.234-0.236,0.494-0.446,0.783-0.629c0.287-0.184,0.605-0.328,0.953-0.436
			c0.348-0.106,0.742-0.16,1.182-0.16c1.318,0,2.336,0.402,3.057,1.204c0.719,0.803,1.078,1.908,1.078,3.316v7.885H32.811z"/>
		<path fill="#333232" d="M49.486,63.293c0,0.166-0.004,0.311-0.012,0.432s-0.02,0.266-0.035,0.432h-8.473
			c0.166,0.787,0.51,1.383,1.033,1.783s1.17,0.602,1.943,0.602c0.574,0,1.09-0.098,1.545-0.295c0.453-0.197,0.922-0.514,1.406-0.953
			l1.979,1.748c-0.576,0.713-1.273,1.27-2.092,1.67c-0.816,0.4-1.779,0.602-2.885,0.602c-0.908,0-1.754-0.15-2.533-0.453
			s-1.453-0.734-2.021-1.295s-1.012-1.225-1.328-1.988c-0.318-0.766-0.479-1.617-0.479-2.555v-0.047
			c0-0.863,0.148-1.682,0.443-2.453c0.295-0.773,0.707-1.447,1.238-2.023c0.529-0.575,1.162-1.028,1.896-1.362
			c0.734-0.332,1.549-0.5,2.443-0.5c1.014,0,1.893,0.182,2.635,0.545s1.359,0.853,1.852,1.466s0.855,1.318,1.09,2.113
			s0.354,1.625,0.354,2.488V63.293z M46.123,61.998c-0.105-0.773-0.379-1.396-0.818-1.875c-0.439-0.477-1.021-0.715-1.748-0.715
			s-1.314,0.235-1.762,0.704c-0.447,0.471-0.738,1.1-0.875,1.887H46.123z"/>
		<path fill="#333232" d="M29.357,92.82h-3.045l-3.59-10.406L19.135,92.82H16.09l-5.43-16.018h3.748l3.295,10.77l3.566-10.814h2.998
			l3.568,10.814l3.293-10.77h3.658L29.357,92.82z"/>
		<path fill="#333232" d="M45.76,86.959c0,0.166-0.004,0.311-0.01,0.43c-0.01,0.123-0.021,0.268-0.035,0.434H37.24
			c0.166,0.787,0.512,1.383,1.035,1.783c0.521,0.4,1.17,0.602,1.941,0.602c0.576,0,1.092-0.1,1.545-0.297
			c0.455-0.195,0.924-0.514,1.408-0.953l1.977,1.75c-0.574,0.713-1.271,1.268-2.09,1.67c-0.818,0.4-1.779,0.602-2.885,0.602
			c-0.908,0-1.754-0.152-2.533-0.455c-0.781-0.301-1.453-0.734-2.021-1.295c-0.568-0.559-1.012-1.223-1.33-1.988
			c-0.318-0.764-0.477-1.615-0.477-2.555v-0.047c0-0.861,0.148-1.68,0.443-2.451c0.295-0.773,0.707-1.447,1.238-2.023
			c0.529-0.574,1.162-1.029,1.896-1.363c0.734-0.332,1.549-0.498,2.443-0.498c1.014,0,1.891,0.18,2.635,0.543
			c0.74,0.363,1.357,0.854,1.852,1.467c0.492,0.613,0.855,1.316,1.09,2.111s0.352,1.625,0.352,2.488V86.959z M42.398,85.662
			c-0.107-0.771-0.379-1.396-0.818-1.873s-1.021-0.717-1.748-0.717c-0.729,0-1.314,0.236-1.762,0.705s-0.738,1.098-0.875,1.885
			H42.398z"/>
		<path fill="#333232" d="M58.551,86.959c0,0.166-0.004,0.311-0.012,0.43c-0.008,0.123-0.02,0.268-0.033,0.434h-8.475
			c0.166,0.787,0.512,1.383,1.033,1.783c0.523,0.4,1.17,0.602,1.943,0.602c0.576,0,1.09-0.1,1.545-0.297
			c0.455-0.195,0.924-0.514,1.408-0.953l1.977,1.75c-0.576,0.713-1.271,1.268-2.09,1.67c-0.818,0.4-1.781,0.602-2.885,0.602
			c-0.91,0-1.754-0.152-2.533-0.455c-0.781-0.301-1.455-0.734-2.023-1.295c-0.568-0.559-1.01-1.223-1.328-1.988
			c-0.318-0.764-0.477-1.615-0.477-2.555v-0.047c0-0.861,0.146-1.68,0.441-2.451c0.297-0.773,0.709-1.447,1.238-2.023
			c0.529-0.574,1.164-1.029,1.898-1.363c0.734-0.332,1.547-0.498,2.441-0.498c1.016,0,1.893,0.18,2.635,0.543
			s1.359,0.854,1.852,1.467s0.855,1.316,1.09,2.111c0.236,0.795,0.354,1.625,0.354,2.488V86.959z M55.189,85.662
			c-0.107-0.771-0.379-1.396-0.818-1.873s-1.021-0.717-1.75-0.717c-0.727,0-1.312,0.236-1.76,0.705s-0.738,1.098-0.875,1.885H55.189
			z"/>
		<path fill="#333232" d="M67.82,92.705l-3.182-4.975l-1.203,1.273v3.701h-3.453V76.121h3.453v8.838l4.043-4.43h4.135l-4.635,4.793
			l4.795,7.383H67.82z"/>
		<path fill="#333232" d="M72.453,92.705V76.121h3.453v16.584H72.453z"/>
		<path fill="#333232" d="M84.926,93c-0.227,0.621-0.469,1.148-0.727,1.58s-0.543,0.783-0.852,1.057
			c-0.312,0.271-0.662,0.469-1.057,0.59s-0.85,0.182-1.363,0.182c-0.637,0-1.197-0.076-1.682-0.227
			c-0.484-0.152-0.947-0.355-1.385-0.613l1.158-2.498c0.227,0.135,0.473,0.25,0.738,0.34c0.264,0.09,0.51,0.137,0.738,0.137
			c0.303,0,0.541-0.057,0.715-0.172c0.176-0.113,0.338-0.32,0.488-0.625l-4.77-12.221h3.656l2.773,8.291l2.658-8.291h3.588
			L84.926,93z"/>
		<path fill="#333232" d="M29.357,116.484h-3.045l-3.59-10.404l-3.588,10.404H16.09l-5.43-16.018h3.748l3.295,10.77l3.566-10.814
			h2.998l3.568,10.814l3.293-10.77h3.658L29.357,116.484z"/>
		<path fill="#333232" d="M46.988,110.305c0,0.879-0.168,1.701-0.502,2.465c-0.332,0.766-0.795,1.436-1.385,2.01
			c-0.59,0.576-1.287,1.031-2.09,1.363c-0.803,0.334-1.682,0.5-2.637,0.5c-0.939,0-1.809-0.162-2.611-0.486
			c-0.803-0.326-1.496-0.773-2.078-1.342c-0.584-0.568-1.043-1.234-1.375-1.998c-0.334-0.766-0.5-1.588-0.5-2.467v-0.045
			c0-0.879,0.166-1.699,0.5-2.465c0.332-0.766,0.795-1.434,1.385-2.012c0.592-0.572,1.287-1.029,2.09-1.361
			c0.803-0.334,1.682-0.5,2.637-0.5c0.938,0,1.809,0.162,2.611,0.488s1.496,0.771,2.08,1.34c0.582,0.568,1.041,1.234,1.373,2
			c0.334,0.764,0.502,1.586,0.502,2.465V110.305z M43.58,110.305c0-0.455-0.078-0.883-0.229-1.283
			c-0.152-0.4-0.371-0.758-0.658-1.066c-0.289-0.312-0.629-0.559-1.023-0.74c-0.393-0.182-0.824-0.271-1.295-0.271
			c-0.5,0-0.941,0.086-1.328,0.262c-0.387,0.172-0.715,0.412-0.988,0.715s-0.48,0.654-0.625,1.057
			c-0.145,0.4-0.215,0.828-0.215,1.283v0.045c0,0.455,0.074,0.883,0.227,1.285c0.152,0.4,0.371,0.756,0.658,1.066
			s0.625,0.557,1.012,0.738s0.82,0.273,1.307,0.273c0.5,0,0.941-0.088,1.328-0.262s0.717-0.412,0.988-0.717
			c0.273-0.301,0.48-0.654,0.625-1.055c0.145-0.402,0.217-0.83,0.217-1.285V110.305z"/>
		<path fill="#333232" d="M56.051,116.371v-6.777c0-0.814-0.18-1.432-0.545-1.846c-0.363-0.416-0.879-0.623-1.545-0.623
			s-1.193,0.207-1.578,0.623c-0.387,0.414-0.58,1.031-0.58,1.846v6.777H48.35v-12.178h3.453v1.74
			c0.197-0.258,0.414-0.506,0.648-0.742s0.496-0.447,0.783-0.629c0.287-0.184,0.605-0.328,0.955-0.436
			c0.348-0.105,0.742-0.16,1.18-0.16c1.318,0,2.338,0.402,3.057,1.205c0.719,0.801,1.08,1.906,1.08,3.316v7.883H56.051z"/>
		<path fill="#333232" d="M69.205,116.371l-3.182-4.975l-1.203,1.271v3.703h-3.453V99.787h3.453v8.836l4.043-4.43h4.135
			l-4.635,4.795l4.795,7.383H69.205z"/>
	</g>
</g>
</svg>
