<?xml version="1.0" encoding="utf-8"?>
<!-- Generator: Adobe Illustrator 17.1.0, SVG Export Plug-In . SVG Version: 6.00 Build 0)  -->
<!DOCTYPE svg PUBLIC "-//W3C//DTD SVG 1.1//EN" "http://www.w3.org/Graphics/SVG/1.1/DTD/svg11.dtd">
<svg version="1.1" id="Layer_1" xmlns="http://www.w3.org/2000/svg" xmlns:xlink="http://www.w3.org/1999/xlink" x="0px" y="0px"
	 viewBox="0 0 102 138" enable-background="new 0 0 102 138" xml:space="preserve">
<g>
	<g>
		<path fill="#333232" d="M25.3,63v12.7h-3.5V63H17v-3.2h13.2V63H25.3z"/>
		<path fill="#333232" d="M39,75.7v-6.8c0-0.8-0.2-1.4-0.5-1.8c-0.4-0.4-0.9-0.6-1.5-0.6c-0.7,0-1.2,0.2-1.6,0.6
			c-0.4,0.4-0.6,1-0.6,1.8v6.8h-3.5V59.1h3.5v6.1c0.2-0.3,0.4-0.5,0.6-0.7c0.2-0.2,0.5-0.4,0.8-0.6c0.3-0.2,0.6-0.3,1-0.4
			c0.3-0.1,0.7-0.2,1.2-0.2c1.3,0,2.3,0.4,3.1,1.2c0.7,0.8,1.1,1.9,1.1,3.3v7.9H39z"/>
		<path fill="#333232" d="M55.7,69.9c0,0.2,0,0.3,0,0.4c0,0.1,0,0.3,0,0.4h-8.5c0.2,0.8,0.5,1.4,1,1.8c0.5,0.4,1.2,0.6,1.9,0.6
			c0.6,0,1.1-0.1,1.5-0.3c0.5-0.2,0.9-0.5,1.4-1l2,1.7c-0.6,0.7-1.3,1.3-2.1,1.7c-0.8,0.4-1.8,0.6-2.9,0.6c-0.9,0-1.8-0.2-2.5-0.5
			c-0.8-0.3-1.5-0.7-2-1.3c-0.6-0.6-1-1.2-1.3-2c-0.3-0.8-0.5-1.6-0.5-2.6v0c0-0.9,0.1-1.7,0.4-2.5c0.3-0.8,0.7-1.4,1.2-2
			c0.5-0.6,1.2-1,1.9-1.4c0.7-0.3,1.5-0.5,2.4-0.5c1,0,1.9,0.2,2.6,0.5c0.7,0.4,1.4,0.9,1.9,1.5c0.5,0.6,0.9,1.3,1.1,2.1
			C55.6,68.2,55.7,69,55.7,69.9L55.7,69.9z M52.4,68.6c-0.1-0.8-0.4-1.4-0.8-1.9c-0.4-0.5-1-0.7-1.7-0.7c-0.7,0-1.3,0.2-1.8,0.7
			c-0.4,0.5-0.7,1.1-0.9,1.9H52.4z"/>
		<path fill="#333232" d="M35.6,99.5h-3L29,89.1l-3.6,10.4h-3l-5.4-16h3.7l3.3,10.8l3.6-10.8h3l3.6,10.8l3.3-10.8H41L35.6,99.5z"/>
		<path fill="#333232" d="M52,93.6c0,0.2,0,0.3,0,0.4c0,0.1,0,0.3,0,0.4h-8.5c0.2,0.8,0.5,1.4,1,1.8c0.5,0.4,1.2,0.6,1.9,0.6
			c0.6,0,1.1-0.1,1.5-0.3c0.5-0.2,0.9-0.5,1.4-1l2,1.8c-0.6,0.7-1.3,1.3-2.1,1.7c-0.8,0.4-1.8,0.6-2.9,0.6c-0.9,0-1.8-0.2-2.5-0.5
			c-0.8-0.3-1.5-0.7-2-1.3c-0.6-0.6-1-1.2-1.3-2c-0.3-0.8-0.5-1.6-0.5-2.6v0c0-0.9,0.1-1.7,0.4-2.5c0.3-0.8,0.7-1.4,1.2-2
			c0.5-0.6,1.2-1,1.9-1.4c0.7-0.3,1.5-0.5,2.4-0.5c1,0,1.9,0.2,2.6,0.5c0.7,0.4,1.4,0.9,1.9,1.5c0.5,0.6,0.9,1.3,1.1,2.1
			C51.9,91.9,52,92.7,52,93.6L52,93.6z M48.6,92.3c-0.1-0.8-0.4-1.4-0.8-1.9c-0.4-0.5-1-0.7-1.7-0.7c-0.7,0-1.3,0.2-1.8,0.7
			c-0.4,0.5-0.7,1.1-0.9,1.9H48.6z"/>
		<path fill="#333232" d="M64.8,93.6c0,0.2,0,0.3,0,0.4c0,0.1,0,0.3,0,0.4h-8.5c0.2,0.8,0.5,1.4,1,1.8c0.5,0.4,1.2,0.6,1.9,0.6
			c0.6,0,1.1-0.1,1.5-0.3c0.5-0.2,0.9-0.5,1.4-1l2,1.8c-0.6,0.7-1.3,1.3-2.1,1.7c-0.8,0.4-1.8,0.6-2.9,0.6c-0.9,0-1.8-0.2-2.5-0.5
			c-0.8-0.3-1.5-0.7-2-1.3c-0.6-0.6-1-1.2-1.3-2c-0.3-0.8-0.5-1.6-0.5-2.6v0c0-0.9,0.1-1.7,0.4-2.5c0.3-0.8,0.7-1.4,1.2-2
			c0.5-0.6,1.2-1,1.9-1.4c0.7-0.3,1.5-0.5,2.4-0.5c1,0,1.9,0.2,2.6,0.5c0.7,0.4,1.4,0.9,1.9,1.5c0.5,0.6,0.9,1.3,1.1,2.1
			C64.7,91.9,64.8,92.7,64.8,93.6L64.8,93.6z M61.4,92.3c-0.1-0.8-0.4-1.4-0.8-1.9c-0.4-0.5-1-0.7-1.7-0.7c-0.7,0-1.3,0.2-1.8,0.7
			c-0.4,0.5-0.7,1.1-0.9,1.9H61.4z"/>
		<path fill="#333232" d="M74.1,99.4l-3.2-5l-1.2,1.3v3.7h-3.5V82.8h3.5v8.8l4-4.4h4.1L73.2,92l4.8,7.4H74.1z"/>
		<path fill="#333232" d="M78.7,99.4V82.8h3.5v16.6H78.7z"/>
		<path fill="#333232" d="M91.2,99.6c-0.2,0.6-0.5,1.1-0.7,1.6c-0.3,0.4-0.5,0.8-0.9,1.1c-0.3,0.3-0.7,0.5-1.1,0.6
			c-0.4,0.1-0.8,0.2-1.4,0.2c-0.6,0-1.2-0.1-1.7-0.2c-0.5-0.2-0.9-0.4-1.4-0.6l1.2-2.5c0.2,0.1,0.5,0.2,0.7,0.3
			c0.3,0.1,0.5,0.1,0.7,0.1c0.3,0,0.5-0.1,0.7-0.2c0.2-0.1,0.3-0.3,0.5-0.6l-4.8-12.2h3.7l2.8,8.3l2.7-8.3h3.6L91.2,99.6z"/>
		<path fill="#333232" d="M35.6,123.1h-3L29,112.7l-3.6,10.4h-3l-5.4-16h3.7l3.3,10.8l3.6-10.8h3l3.6,10.8l3.3-10.8H41L35.6,123.1z"
			/>
		<path fill="#333232" d="M53.2,116.9c0,0.9-0.2,1.7-0.5,2.5c-0.3,0.8-0.8,1.4-1.4,2c-0.6,0.6-1.3,1-2.1,1.4
			c-0.8,0.3-1.7,0.5-2.6,0.5c-0.9,0-1.8-0.2-2.6-0.5c-0.8-0.3-1.5-0.8-2.1-1.3c-0.6-0.6-1-1.2-1.4-2c-0.3-0.8-0.5-1.6-0.5-2.5v0
			c0-0.9,0.2-1.7,0.5-2.5c0.3-0.8,0.8-1.4,1.4-2c0.6-0.6,1.3-1,2.1-1.4c0.8-0.3,1.7-0.5,2.6-0.5c0.9,0,1.8,0.2,2.6,0.5
			c0.8,0.3,1.5,0.8,2.1,1.3c0.6,0.6,1,1.2,1.4,2C53.1,115.2,53.2,116,53.2,116.9L53.2,116.9z M49.8,116.9c0-0.5-0.1-0.9-0.2-1.3
			c-0.2-0.4-0.4-0.8-0.7-1.1c-0.3-0.3-0.6-0.6-1-0.7c-0.4-0.2-0.8-0.3-1.3-0.3c-0.5,0-0.9,0.1-1.3,0.3c-0.4,0.2-0.7,0.4-1,0.7
			c-0.3,0.3-0.5,0.7-0.6,1.1c-0.1,0.4-0.2,0.8-0.2,1.3v0c0,0.5,0.1,0.9,0.2,1.3c0.2,0.4,0.4,0.8,0.7,1.1c0.3,0.3,0.6,0.6,1,0.7
			c0.4,0.2,0.8,0.3,1.3,0.3c0.5,0,0.9-0.1,1.3-0.3c0.4-0.2,0.7-0.4,1-0.7c0.3-0.3,0.5-0.7,0.6-1.1C49.7,117.9,49.8,117.4,49.8,116.9
			L49.8,116.9z"/>
		<path fill="#333232" d="M62.3,123v-6.8c0-0.8-0.2-1.4-0.5-1.8c-0.4-0.4-0.9-0.6-1.5-0.6c-0.7,0-1.2,0.2-1.6,0.6
			c-0.4,0.4-0.6,1-0.6,1.8v6.8h-3.5v-12.2H58v1.7c0.2-0.3,0.4-0.5,0.6-0.7c0.2-0.2,0.5-0.4,0.8-0.6c0.3-0.2,0.6-0.3,1-0.4
			c0.3-0.1,0.7-0.2,1.2-0.2c1.3,0,2.3,0.4,3.1,1.2c0.7,0.8,1.1,1.9,1.1,3.3v7.9H62.3z"/>
		<path fill="#333232" d="M75.4,123l-3.2-5l-1.2,1.3v3.7h-3.5v-16.6h3.5v8.8l4-4.4h4.1l-4.6,4.8l4.8,7.4H75.4z"/>
	</g>
	<g>
		<g>
			<rect x="25.5" y="24.9" fill="#333232" width="18.2" height="2.6"/>
		</g>
		<g>
			<rect x="25.5" y="30.1" fill="#333232" width="12.4" height="2.6"/>
		</g>
		<g>
			<path fill="#333232" d="M43.6,30.4c0.6,0.6,0.6,1.5,0,2.1c-0.6,0.6-1.5,0.6-2.1,0c-0.6-0.6-0.6-1.5,0-2.1
				C42.1,29.8,43,29.8,43.6,30.4"/>
		</g>
		<g>
			<g>
				<path fill="#333232" d="M35.1,47.5c-10.4,0-18.9-8.5-18.9-18.9c0-10.4,8.5-18.9,18.9-18.9c10.4,0,18.9,8.5,18.9,18.9
					C53.9,39.1,45.5,47.5,35.1,47.5z M35.1,13.3c-8.5,0-15.4,6.9-15.4,15.4c0,8.5,6.9,15.4,15.4,15.4s15.4-6.9,15.4-15.4
					C50.5,20.2,43.6,13.3,35.1,13.3z"/>
			</g>
		</g>
	</g>
</g>
</svg>
