<!-- Generator: Adobe Illustrator 17.1.0, SVG Export Plug-In  -->
<svg version="1.1"
	 xmlns="http://www.w3.org/2000/svg" xmlns:xlink="http://www.w3.org/1999/xlink" xmlns:a="http://ns.adobe.com/AdobeSVGViewerExtensions/3.0/"
	 x="0px" y="0px" width="93.1px" height="39.5px" viewBox="0 0 93.1 39.5" enable-background="new 0 0 93.1 39.5"
	 xml:space="preserve">
<defs>
</defs>
<g>
	<g>
		<path fill="#FFFBEF" d="M51.9,19.8l-4-6.1h3.7l2.2,3.5l2.1-3.5h3.6l-3.9,6.2l4.1,6.4h-3.5l-2.5-3.8c-1.3,1.9-2.1,3.3-2.5,3.8h-3.4
			L51.9,19.8z"/>
		<path fill="#FFFBEF" d="M59.4,19.7h4.8v2.7h-4.8V19.7z"/>
		<path fill="#FFFBEF" d="M65.4,26.2V13.7h3v9.8h2.9v2.8H65.4z"/>
		<path fill="#FFFBEF" d="M79.8,23.2h-4l-1,3h-3l4.4-12.6h3.2l4.7,12.6h-3.2L79.8,23.2z M76.7,20.7h2.2l-1.1-3.2L76.7,20.7z"/>
		<path fill="#FFFBEF" d="M89.3,26.2h-4.6V13.7H89c2.6,0,3.9,1.3,3.9,3.5c0,1.1-0.5,2.1-1.3,2.5c1,0.5,1.5,1.4,1.5,2.9
			C93.1,24.8,91.6,26.2,89.3,26.2z M87.7,16.3v2.3h1c0.6,0,1.1-0.4,1.1-1.1c0-0.7-0.4-1.1-1.1-1.1H87.7z M87.7,21.1v2.5h1.1
			c0.7,0,1.2-0.5,1.2-1.3c0-0.8-0.5-1.2-1.2-1.2H87.7z"/>
	</g>
	<g>
		<g>
			
				<rect x="-4.8" y="16.3" transform="matrix(-0.7071 -0.7071 0.7071 -0.7071 19.7625 47.7138)" fill="#FFFBEF" width="49" height="6.9"/>
		</g>
		<g>
			
				<rect x="-4.8" y="16.3" transform="matrix(0.7071 -0.7071 0.7071 0.7071 -8.1875 19.7634)" fill="#FFFBEF" width="49" height="6.9"/>
		</g>
	</g>
</g>
</svg>
